<mxfile host="Electron" agent="Mozilla/5.0 (Windows NT 10.0; Win64; x64) AppleWebKit/537.36 (KHTML, like Gecko) draw.io/24.7.17 Chrome/128.0.6613.36 Electron/32.0.1 Safari/537.36" version="24.7.17" pages="31">
  <diagram name="PÃ¡gina-1" id="zDdHO_9scJjU-Nwi-7eS">
    <mxGraphModel dx="1434" dy="836" grid="1" gridSize="10" guides="1" tooltips="1" connect="1" arrows="1" fold="1" page="1" pageScale="1" pageWidth="827" pageHeight="1169" math="0" shadow="0">
      <root>
        <mxCell id="0" />
        <mxCell id="1" parent="0" />
        <mxCell id="76LDIq9nZ131-UMKkFyV-8" style="edgeStyle=orthogonalEdgeStyle;rounded=0;orthogonalLoop=1;jettySize=auto;html=1;" parent="1" source="76LDIq9nZ131-UMKkFyV-3" edge="1">
          <mxGeometry relative="1" as="geometry">
            <mxPoint x="440" y="390" as="targetPoint" />
          </mxGeometry>
        </mxCell>
        <mxCell id="76LDIq9nZ131-UMKkFyV-3" value="INICIO" style="text;html=1;align=center;verticalAlign=middle;whiteSpace=wrap;rounded=0;strokeWidth=15;fontSize=18;" parent="1" vertex="1">
          <mxGeometry x="410" y="250" width="60" height="30" as="geometry" />
        </mxCell>
        <mxCell id="76LDIq9nZ131-UMKkFyV-4" value="" style="endArrow=none;html=1;rounded=0;" parent="1" edge="1">
          <mxGeometry width="50" height="50" relative="1" as="geometry">
            <mxPoint x="400" y="410" as="sourcePoint" />
            <mxPoint x="480" y="410" as="targetPoint" />
          </mxGeometry>
        </mxCell>
        <mxCell id="76LDIq9nZ131-UMKkFyV-5" value="" style="endArrow=none;html=1;rounded=0;" parent="1" edge="1">
          <mxGeometry width="50" height="50" relative="1" as="geometry">
            <mxPoint x="410" y="420" as="sourcePoint" />
            <mxPoint x="470" y="420" as="targetPoint" />
          </mxGeometry>
        </mxCell>
        <mxCell id="76LDIq9nZ131-UMKkFyV-6" value="" style="endArrow=none;html=1;rounded=0;" parent="1" edge="1">
          <mxGeometry width="50" height="50" relative="1" as="geometry">
            <mxPoint x="415" y="430" as="sourcePoint" />
            <mxPoint x="465" y="430" as="targetPoint" />
          </mxGeometry>
        </mxCell>
        <mxCell id="0bIC5MRsfbzhOnS3Pevb-1" value="" style="shape=image;verticalLabelPosition=bottom;labelBackgroundColor=default;verticalAlign=top;aspect=fixed;imageAspect=0;image=data:image/png,iVBORw0KGgoAAAANSUhEUgAAAUoAAADqCAIAAABLIJsIAAAgAElEQVR4Ae2d317bOLDHeae81oFHabbvsPcND3KWcn3ud7cFWgptoX8WzmdGGuk3ku04WAlO8ssFkW1pNPrJX0s28ejkmR8qQAUOVIGTA20Xm0UFqMAz8eZJQAUOVgHifbBdy4ZRgVZ4Xy4X9nl7uYGsH1ZnVm6xWCwv+oteLBeL5Samu0yJEfmcnf/f6nRxdn4tmZpY7qqN+6jA6yrQBG9hO6LyjOk1Tbt8K6CtPli2gPpGVwcrOu67xzfiPU4+5to7BRrgfX1+5sbVkbRINmA7KCc7B8fwSQIT70nysfDeKdAAbxmE3ZArFA1Ns0Wk69VpUSpId3lp83O5arxdSbaF5vRXDR359dBisThd6SQ7ml2exwm/88HdBSwv1YHOyXmP5b3rWTpMBRo8ORdQbWYeEYW5ep/E6y8BOikAy4C3EJiRFlN2fdGrRj0piF7g6A1uj7Lc1xDupwLzVWD66A2cxGYiRT0t17HUja5Vxv45f3lpANoVbzeVQLvoGLid8R6wjHaYpgL7ocC88c5DdOfzbaExfmJOgLZD/7V4pzK15XSICSqwNwq8Et76gH396N2Dd7491gzF6O3vFLAn1uPdbxntME0F9kOB6Xg/CxJuPiwUDaPb/2gtz65lct6JdzWxb4b3kOX96E56SQVQgQZ4998kY0VVWu54h/4x1ot3vlUONnUi3WRyPmS58p87qMDsFWiA97POtG0AxwnwmtbrTBgID/+7solAL96aLc3AbTodftA27d57yPKatvAwFZihAk3wfo6Eh8dcxqf8G7qYYNcCyICZPzilL8vi0Iql3l5KzjgRmIZ3/IGq+eMs165zDxWYuwKt8J57O+kfFThCBYj3EXY6m3wsChDvY+lptvMIFSDeR9jpbPKxKEC8j6Wn2c4jVIB4H2Gns8nHogDxPpaeZjuPUAHifYSdziYfiwLE+1h6mu08QgWI9xF2Opt8LAoQ72PpabbzCBUg3kfY6WzysShAvI+lpxu2c7FYNLRGU9tTgHhvT9uDtUy896Vr2+It72PiS539KmhUFnvzEr/HFNc3QKXQ8iJHhilfIO2sG98q7czQcmf2raXVzWxdLjHizciy4cX70Cvwem8qTbyTFDNPtMQ7RFYYw2d/MKYRcunJV9cyCu8R5ttleX28IUzV+GZhQA5JW6CObIF4Zy3mnWqFt54Her2vwetSQEfvrpGhK7PfR7y9HgNbL8BbZ0awllvXfId4D2g+q0NN8Fa2T1fXPeB1NXgd3uGsgqgs8aoBezTQolQdDhWjtwVp8suY5ZNV7yOK9UzQOMSBE8u4XkrVnu66imiw3TPe4H++OOpQmTfdtbLbgjTk7PwyLueS12xRheNtj0W8QgvjJu0l7dp24l2dAjPd0QRva1tjvPNSJMqPDSmulm68XX6FFq4OOSqbhXBS/yWbYfCs4V9tQVI9xWG9FGtu+O6tC/FWny0+nIIX6Qokx3pDRckN3TSXei1EjGMDXTZtRcJYdejywbfHbYl7ViQfIN5Zi3mnXhXvOLbglzHsYXtGpDENCAkM4VR2GUR+ITAcErOAN9wdSB7Y1FWBkTpzrOjOgbrAt+xAKJ5LKd6pXt2fccrZoAmlBcU7WcDGunSZzUlaNEo241XD5HI5iLeTY8Ybr4o3nJSlRJlDPQInuj8vO0ZvHfQ8jclaSuASgr5uHY3DFQfwTmOgzzxUV8a7HgMFHsW4OJSbI/XkVhfZIn5qIZmKnuGlBNLdFtwVzTctboliNoOwDMTblJj796HijTOCkFbgB/CWQ+GjZzOc1nleUPWm4m3l8ne4uCRWJVF/NsW7x8IGeLs7+d5FWotG6jDuL8TEu9BotpuHircfvZP8vXhXJ/EGePfUNTR6J4eKQTVdETTD0OidLGyAd572S+myYLLoE5Uyz8/E20s0360DxBtvm4PwefjtxdtzFR+trZ+cD9WV8a4JSdWNxHvAQkkpTMjxjr2ykK8d7uzE4nqg8FD2EW8n2Yw3DhHvCKcNqnge9+KtZ3+6wZZs8gmz2Xx16OpI4cGescPdclzaYd0D7QKehL3WhJ5rOg2/AOFIvMMSq+kxuG8vtquuKLXOshFvU2Lu39vFux8MPb3qu8n0G6nMoSpYneh2G5l5KOpS6mIFlhlXES6pcAutLJaXcJYXlusu7a4rj965CdGhdB3RPAna4EP2FlttT9oqC2VDgPz4cC5dp8LVJ1rwt9OuUVpvVVHOQryzFvNONcV73k2ld60UIN6tlNy2HeK9bYUP0D7x3pdOJd770lMz8pN4z6gzBl0h3oPy8CAV2GcFiPc+9x59pwKDChDvQXl4kArsswLEe597j75TgUEFiPegPDxIBfZZAeK9z71H36nAoALEe1AeHqQC+6wA8d7n3qPvVGBQAeI9KA8PUoF9VoB473Pv0XcqMKgA8R6UhwepwD4r0AZveWUyfQbeNMxKdb0Qml+TzPl2kpK3SuVz+uefMQSaf1u714nyZczejDxABV5DgQZ4K9sp2p6isp5wxdtn07emLQbDDrVwL0jnevOb5HkfU1RgrxSYjnc1gkkkhkR7nxgdeE9amaivnhH7ifcIkZhlLxU4edJPS98l1sfL8A7RVKAshg3BoR73+1BBeJuQw57EwCk2CU8xYXI0b5mbLy/wUuVHb6wxewL5L5aL09VKAjNZTHVvHEIOXy4XZ6vzcEMAjW3ZB7RFBUSBk//s8/T01EQSBWztHLtz9MbI3jFtgYo0f7g5V9ISujj2utsEzWbFA9jGkoZS67IAuGIoJWcKPMFgoyE8myc/I+0sBGfWStSkN2jkqBXIeAfMJ4uh524+y/vs9eANUCG3YiVR3Tv5l6qNZykBF5rikKsdKurGGzJoc5InJd52+YjewmYYyaMshTN9EnE/FZiqwMnv379t/I7fE4ZxxcbPlnscdIBBHjn1dVytGUjsySFZGfD8GgpWE3vHWDIbSrjagd5UBT45H/AE8stFp2tA1muB+psWOSqccY3gBhVoqIDg3Un45pArM52neIe/DrB8PA+MkeEIhn0Z0qGuuDdOs8P02HLadxhCC6Jc7WPwNmv5Wz0RO9GlEm/wUAZtrLFwJreeKSrQVoGIdw35ho/cwtncNXx1+4unO+TIkAgDBjNkKJOhXmVYyuJ8GLMWRLnax+Dd44nY6ca7dAZrLJxBP5mmAi0VOPmln4B3MYwHwkcM44Gx8WzbApTlLToygOnQ4D4qbH8e+U0gf7FIz9L8WFou5WEkm1k38BaeiJOdeMttP/5KJ0zR4d4bnDFv+U0FWitw8vPnzzGED0Auo9/YOXlyv6ZXMUM7ioTBBhD6gRGen4VnaWkAFz6teGI1OOBqXzd6F8/wwZPy0Rpc4MTJuMhJvJrkf5gVziRNmKACjRUQvMcT3gF5GJfyPWlMhdGpHMSy8wpYUQqHu5ATjeNRhcdKJ56ljNIejxjb+Jws2N0Qb3tuH+1mT8RO5+hdewIXQeKdzwOmtqrAyQ/9FITjs/Q0RcfEVn2icSpABZoocPLw8PAywjtG8iYe0QgVoAKNFDj5/v37w8PD4+NjPUtfO4Zv+HS9kcs0QwWowDgFTr59+5YI//HjR5il9/2fDOfnRXpcdcxFBajA7hQ4+fr1a014/X+yAubOzd15zZqoABUYocDJ/f19IDxM0fE+vO/f4J1sh50jamQWKkAFdqTAyd3d3f39fT2Ap3+GpzvwAarx0I4cZzVUgAqsU+Dk9va2HsDTYza8CUeGB9LrauRxKkAFdqTAyefPn798+XJ3dzcwgAfIB5AuDu3Id1ZDBajAoAKC9+3tbZqipzvw4ocuGxE+WCMPUgEqsCMFTj59+nR7e/vlyxecoof/kOE/ydIsvRio+zZ35D6roQJUoF+Bk5ubmzQ/T/8ke3x8TP8D//XrV2A7PUjvQxr399fII1SACuxIAeK9I6FZDRXYvQLEe/eas0YqsCMFGuH91xt7PXNxtroa8bZJ1wuhamJMnIP01ufyIr9c2f/yKUiZAzzAzm0ls2/bqmG93ctlfn11fe6NcugrrqHb3Tu5Q0bwTd6tOTbkwJEda4H3v+/OFos3f+mtt6bPVlfrZHRvXK/L7I/rS+D1VWAU3t7SlrdeH2+IVNG4rXqFjeErND2C8DrEBQlv3C2luQZ4v/9jsTh9J0O2fq5WZ4vTdz6IaVlrEQ6pPjy0h3gPqeOObQ1vuXJBtAwIa+HqdxviDIbf6ulHV4Yb0xQ4ub6+vrm5wX994wtk6aep6R9j4TeqxnLHd6J90LF1o3eYRcNcLg7XsEeDmeURshi9u6eOwax4Jg4sz1dh6cMO4xCVUSy/Xa1OdSKKJ6i1sLsuiNkuGTHyTDYS/Je/8SOH8qabpHRbCGhdRvdyyCdVOBq1oRUtuJETM6cYUta89d/iMNC+voDmCG0fmZnZXqJAa7xhoj7ojp5P+Syv8gaM7RRUfiySmbvq51ME8Xb51RQAHOyEE9rO++cyTDpa0Mln7+mLOZ+xLsRbfTYAtOrYtEBydCNUlOK96qZ52Gshkhkb6LJhWLjQwNQK9EHTqS+kCVZp1S2dO9RP653OHJ07N6+o0wx3DijQEO/38fGaTdQHas3RBW3Qsm87S4q+R6QxDQjJSRaYcRnECyEwHBKzgHc6p0Me2FRQkTpzrGjVQF3gW3YgFM+lFO9Ur+63qwAszIJNKC14OH1OqLfMlld9UT9zpUUDhzdFT/lsXhyvL8N18OjLFWiId5yoy7334s37NSuWVWdb0YTMoR7IPLiTPsxjw8CV8O4YTJK1lMAgp75qHY3jSbv6IMeSZZ/RDmF01zgLCNeCNLOQhAdAmq97ikOpiFaVW11kizcXaiGZit4B0nBd62A4d0Fsss2V6mau25NNrcsJTm44RxhpmdlQgfZ4Pz3JML7u4fm6EyJzqN7mE30k3oFP/KvIZbMlFWFerQV00JacMHr3nPp6KcFaQroD7zrTpnj3WCgbMoC3u5P38dtdQ9JsAs+U4TTINZwxTqZM27WZmWGKAoeKd89cuhfv6nID5+tmo3fujTQU12NvylQcSkU0Q76oFdlScRzG484BvHtmEGgtRpL2OV2G7g2QqzuD7dWZwmb39laU3xsrMB3vq3eni8Uf7/MzdHu6NuhLhVORO3OoB/KJvn70xtvmYDXzmc0Wg57nKtzB2giTixdOVg/k/Ew+2awbmw4V3Kb9RasHLBQNwQk5pisLKKlvlxA4PIBXZXXw77mkgnGyDWLsIjkd76cn/cla/FnLk9KuT9cG3a/OtiJ35lAP4PmEaXh8hRDqaWRnG+bPZgsq1J80A5ds8inu6gsfw2ZvXeBbeI6VhkQpEusaiXe8qHVZKBqCSLt0uPswC9he7wPK1dlg3Vm32iz3ltFLAMftXn22caAF3k+R8HhzaCO5H8oK5/X0igX8Vxg3ModaEM85TANCiLfd4EXL+Z4zmy2pwP82y9N1rSWcsoXloiW9dYFvUkQNRofSdUTzABh9o3cWobJQNgSuHbnSqAD64MZnqTd9wJ+6rXmPEh4LZYXr/0HEEq6KTevKtTK1iQKN8M5T85zaxA3mPSQFLpfu2nFITduzthDvPeuwPXD3Yjly/N+Dtuy5i8R7zztwfu5fvuUN9lx65eTq6ioFbOmLiFxEa1n7s/M0QZ9LK+kHFThKBYj3UXY7G30cChDv4+hntvIoFSDeR9ntbPRxKEC8j6Of2cqjVIB4H2W3s9HHoQDxPo5+ZiuPUgHifZTdzkYfhwLE+zj6ma08SgWI91F2Oxt9HAoQ7+PoZ7byKBVojbe8+3327t/4s9R+SbteCM2vSfaX28oRe1fx9M8/Ywg0ectToi5eDNdXvow5nJtHqcCOFWiLdwiWOhpv/9qgixCwQxncC9K53jF459xMUYEZKhDxDqt8393d3d/f4zIGP/WT1gAOL5Okv+nVkZCQBQzkk/HuX2xMR2+P96SlSyZIS7wniMeis1agHd4yLX/z3k/ON8S7XEvARTjBawFGHfFxiDXiT4wFAlPrMBTbJHyRYom5e4TlBU62/eiNNWZPIP/FcnG6Wr3VquNdhjMO0csul4uz1XmIj8J3J2eNx7471wrvGPxY4669ePT2YRKVKAsMoKgEbHR/QhfHXhfNyxUPYBtLGkqtywLgivfezhR4gsHSQ3g2T35G2lkIzlgouH0/g+j/jBVog3dYNlBWEZw4egNUyK0ImKgWkAxUp6xgY5cDOaC0B4qKQ4qooQgVdeMNGbS+5EmJN3gleWDTBRUvnHFt4AYVaKhAC7wl8rGN2M3wrhlI7MmhjoVvauwzY1IkDdfFTT7Qm6rAJ+cDnkB+qb1rQNZrQbxbiBeUwpmGvUlTVMApMB1viXx8trL1fyfinQfGyHAEw75scBau0idyG6bHaW9MhCG0IEqLjx29BzwZwBs8lIqwxsIZ1x/coAINFZiMty5aUDKlixCFx+k9vuLpDlnyGCgMGMyQoUwGipThevTOmQuiXO2bj97JrtiJTmbP9WjpDNZYOJOsMUEFGiswGe/in2OTRm9kANOhzX1U2P488ptGGTnLE4844+vwdpnVQLImhzrxLkOjhyk6J+fWM/zejQIzwlsww9tXRSIN4BlCPzDC87PwLC090BIIrXgCMqjqiM2W8VEZPOTrX2OkF++wJIjd7Wt1C7cyiR3aTS+zliNVYLt46xP11XWHtnbG47S+/lFqGPRCHjwqhKdP4lmqUdrjIWMbn5MFVzbE257bR7vZk368K0/g4lVcazrU4S4q0ESB1ngXc/U1q3w3aQKNUAEq0K0A8e7WhXupwAEocPLhw4fr62v8zfm3b98eHh4eHx9//PiRfnMefnaefm2eEtVo3bHjAGRiE6jAPipAvPex1+gzFRilAPEeJRMzUYF9VIB472Ov0WcqMEoB4j1KJmaiAvuoAPHex16jz1RglALEe5RMzEQF9lEB4r2PvUafqcAoBYj3KJmYiQrsowLEex97jT5TgVEKEO9RMjETFdhHBYj3PvYafaYCoxQQvK+urm5ubm5vb798+XJ/f//169cQ6rz4zfmvX7/ST80x8fT0ZBHO7SXN03cWnCn+BL3ypeuFUC095kXo9Nbn8iK/XFlGUKiqlB05wEPn4bY7s29t7W5i7XKZX1/dpNxg3su36UV6y4ev6G5eI7xybwb53UKBJnj7cGsdL5U8Va66N66ro4M76qgsmn0U3oOGWx98fby3gU24tsK79OGimSJVas9uRHi4NGxUpHVXHaq9JnhLkPM3f3Vhbfsq+Yh3JckWdrTGO8+5EG+pxeJSSiN6rr897ZOLoHyId49AU3a3wFuiKb55byR3flcursM7zKJhytcRDlVOiDxCFqO3nHPxA+FcglnxRhxYnq/ONE+HcYhSLpbfrmJsVjyPrVXddYFvkhEjz2QjwX87xePyKXnT3ap0W5CGnJ1f5tCxkZOMYg4LjxYcTpg5jcPWvPgd8iwvtV2Id5Fv3OqLsVC4NMhf509lkjtepEADvCXiEn6qG++upYj0XMlneeW7n7ApPxZF3A0O3Xi7/GoKAA52wslakJ830ULHdBT8xZw+xFr2zUdr06rj2RxIjvWGihKNumkuaasNKrQQGmJMumzP4lvCRnXotZD6QrJZpdBMSIrPZgd2p+R6C5bVcjo/7SC/pyvQAG99rmbLGDzJffiiIrxyNJ6UeFkI4+hlyGodHwsi0piGEVJgCKeyyyAG8tkjZgHvdE6HPLCpoCJ1dnEpWjJQF/iWHQjFcynFO9Wr+zM5ORs0obSgSiYL2FiXLrPBFHodrkWT14zeWlG6ppRlcVtyhsaW+mAupico0ADvcjaukc+LW/HKw+psK3JkDvUAnOhwXroYiQlvHfQ8jclaSrigqK5uOdXiB/DuOV+H6sp41/ykM7s4JJt5Qp5bXWSLNxfKRjIVW4GoQLrbQrhnjk3uaaNTRzZqUzmLmhoe/GPm1F/u+pstMdVAgS3g/WTLCQL3lafbxtsIzd8K/ADecih89OyUzZF4W7n8HS4uiVVJ1B+Fs0AlFVHBPN49FjbAO184xLzrAr1OWQ0wF6g6bgjv8WzrNTpfBeAy1FUh971UgUPF24/eSZ1evN25Ltk3wLunrqHROzm0Ad550p5KS2IDvL2FsmCwGjj3OV19faP3Bmz7KNF2UZFl41Yfirq4OUmB6Xh/lJvtP+DBOa4oaAN45WOFU5Ejc6gH8jhW/N8lD3d5sgdkBqv+UKCxOLmznVAET9ZcvHDSXwXKujLedWNTdSPxHrBQNMTdpcOoWFlASX27pNTQAF74LIVRLm9s1Bb4OSo/M41UYDre/+miv+n/3jIzd7Qr4ZU31dlW5JiCdzzbbFDF8zibLahQf9LNp2STT5jNDuE9UFfGO16S0pAIZ3OBSsJe5UDPNd1loWhIH97xxydmAdvrfcBKi06Jmz5/HIonDbwgSHeV3PsyBVrgHZf1tkkWjORp3e/KOT29rIT7DuNG5lCL4jmHaUCogFDHk2g433NmsyUVYc5pniwvAafCctWWMHZVdYFvUkQNxkzpOqJ5DLl4W5u9dS3ts1A2xKFilUabtiluuPFZiE0f8Kdua33v7cqWRqTG9eQ7nzvr5M4XKZDx/vz5c/Gb88fHR4xzPvCbc5uDD32/yD0W2nsFrs+XvKN+rV4k3q+l/JHUe706tbukI2nxnJpJvOfUG4fny4fVmbsLOLwWzrpFxHvW3UPnqMAUBYj3FPVYlgrMWgHiPevuoXNUYIoCxHuKeixLBWatAPGedffQOSowRQHiPUU9lqUCs1aAeM+6e+gcFZiiAPGeoh7LUoFZK0C8Z909dI4KTFHg5J9//vn48eP19fWnT59ub2/v7u5SnPPHx8cQ6vwXfDDCeUoP/dYcjk1xlGWpABXYVAHivalizE8F9kaBVnjra97hbcAqjmIav0GVrhdC82uSkHEXSXul8fTPPy2437hovuXLmLtwlnVQgdEKNMH7AkI4dEdKDYSDV4q3f9lA39B+hbeLel42Fubzq9fgOpNUYF8UaID3x9Wpi3zcFYxpDN5FcL+dKUi8dyY1K9qxAtPx/vjufxZnq2LJwDQfdwloW8foLUclmgoE9+iLLoL7Y9zyaFsiq9gHxt4wFNskPMcqcfcIywucbPvRG2vMkw7If7FcnK5WIYhyvMtwxiE6yuVycbY6D/FRoLGgDpNUoIkC0/GWmfmbv2CR0PH33pkTa4tShJGDLDCQohKwwTwuUv+zsm3AaDYrHsC2QxpKLcEPozfgiqGUnCnwBKOUqk1gWLOlBjoLwZlXuA0xlfl9LApMxvsfCZS6yEsIvvzeWyXPYyZQp0cS1cUIn3tKyhrPsldpDxQVhxx7UFE33pDBe1LibZePGFkNNl1Q8cKZ3ACmqEBbBdrg7SbnXauUjLv3xliCNQOJPTkkQbHPr50WNfZyRQiMSZE0XBc3+UBvqmKkJ5Bfau8akPWqpP6m6IWFM64R3KACDRVog7dfcqhjlZKxeKchWufGkQr4MqSFq/SJ3IbpcdobE23wLq3Gi8sA3uChTNF1M87ViXfDE5imhhSYjPd/8d4bnqFNwDuPgcKAwTzQgECRMlyP3rlcQRTChoHBZb9VmooMeAL5s+daa+kM1pgsZ/+YogLbUGA63v9d/OHXLXj55BwZwHRoeB8Vtj+P/CZURs7yxCPO+LrJucusBpI1ORQvB7kuyVKGRg9TdI7e1jP83o0CDfD+7593Z/nRmv58refhOTSpZiYsBgC3r4qEjaUwxvqBEZ6f+SfnboWABGRwwdW+Du+BNUZ68fYLfWt1i7TUduEMqMIkFWiqgOD94cOHq6ur9ErJ/f399+/fHx4ewislP378gDdKfv3+/Tu9SQIJ/eFauEPtWqWk+967uKOtf5QaBr2QDY8K4emDD6gD4fFQujRUvzDdEO/eNUb68far5J2dX8tFJD57I95NT2Ea61egFd7/wb13b7LfDR6hAlSgvQLEu72mtEgFZqIA8Z5JR9ANKtBeAeLdXlNapAIzUYB4z6Qj6AYVaK8A8W6vKS1SgZkoQLxn0hF0gwq0V4B4t9eUFqnATBQg3jPpCLpBBdorQLzba0qLVGAmChDvmXQE3aAC7RXIeN/c3IRlDO7v7799+4a/Ocefnf/WD/zaPCd7f4wKB9q3gBapABXoUYB49wjD3VRg/xUg3vvfh2wBFehRYDre8CpoekdTohl3h0Y2N+wVaCiywFc+Ld9OvuUNTflwlZKdyM1KdqbAdLzLe+/3f0jc1Pdwv41Ja5h74zrshDeiLddOviGcA9bHt7JRDab3UoHWeP8l6xH5yIpI95OJ1IG3jzdoGbf/Tby3rzFreB0F2uKtQc4hWosjWzeslZ14c5USk4ffVKCFAk3xlqH77N2/NdR5j/ncgzeGQ3Sx1jQ/Vykx+fhNBcYo0BDvj7JeSU8QxcS3+dSDNyz9U86ZE/k+lKIZjAsPQHw1rlIC2jB5lAq0w9vFS004lwkTeS3e8mQLWQ135ronPuj2R6uJvVsJqHhO5mqH64jsN7OpyIAnkN8HQrZmxiir8f8DDIScdWFqFwo0w1uWAe5/YJ4otzY5wGxnhEFXHYkMRzDsy9jT4raTq5RkAZmiAqBAM7xlMYN1M/Onp+En52EE7lz0D1x2ycA5VylxonCDCgQFTv7+++8Q5/zm5ubz5893d3f39/dfv34tfnb+8+fPEO08/Oa8inYuq3yfrj6mUbovYbp3jt64E9OhUJotm434bfvTzXk6nifMlicecsbXTc5dZjWQrMmhOKHIdUkWrlKSOoGJV1SgFd660tj/ro92bk2tmeEqJaYNv6lAIwUa4a2rfL+p8L5anRUzdnNb8bab5/hd/yhVB+SOozJUpg9XKTFR+U0FvAKN8LZfpvbNydN+Xzu3qAAV2KICxHuL4tI0FXhdBYj36+rP2qnAFhUg3lsUl6apwOsqQLxfV/VOpswAAAGgSURBVH/WTgW2qADx3qK4NE0FXlcB4v26+rN2KrBFBYj3FsWlaSrwugoQ79fVn7VTgS0qIHj/+++/Hz9+DL85v729Tb85//79++Pj4w/9/NTPr1+/0m/Oq5+dy09b0s9XBhJbbA1NUwEqAAoQbxCDSSpwWAoQ78PqT7aGCoACxBvEYJIKHJYCxPuw+pOtoQKgAPEGMZikAoelAPE+rP5ka6gAKEC8QQwmqcBhKUC8D6s/2RoqAAoQbxCDSSpwWAoQ78PqT7aGCoACxBvEYJIKHJYCGe/r6+vPnz/f3t6GUOffvn37/v37w8MD/ub858+f+Jvzl/3s/LAEZGuowHwVIN7z7Rt6RgUmKkC8JwrI4lRgvgoQ7/n2DT2jAhMVIN4TBWRxKjBfBYj3fPuGnlGBiQoQ74kCsjgVmK8CxHu+fUPPqMBEBYj3RAFZnArMVwHiPd++oWdUYKICxHuigCxOBearAPGeb9/QMyowUQHiPVFAFqcC81XA4f3p06f6lZKwkkFYxmDMKyVjFjOYrx70jAockALE+4A6k02hAl6B/weQq00iExjj0AAAAABJRU5ErkJggg==;" vertex="1" parent="1">
          <mxGeometry x="30" y="20" width="330" height="234" as="geometry" />
        </mxCell>
      </root>
    </mxGraphModel>
  </diagram>
  <diagram name="etapa1.2" id="ahjhIJJKz6GGQoLUUPeq">
    <mxGraphModel dx="1434" dy="836" grid="1" gridSize="10" guides="1" tooltips="1" connect="1" arrows="1" fold="1" page="1" pageScale="1" pageWidth="827" pageHeight="1169" math="0" shadow="0">
      <root>
        <mxCell id="mWumHvkwMA_tnh_n1_BU-0" />
        <mxCell id="mWumHvkwMA_tnh_n1_BU-1" parent="mWumHvkwMA_tnh_n1_BU-0" />
        <mxCell id="mWumHvkwMA_tnh_n1_BU-2" style="edgeStyle=orthogonalEdgeStyle;rounded=0;orthogonalLoop=1;jettySize=auto;html=1;" parent="mWumHvkwMA_tnh_n1_BU-1" source="mWumHvkwMA_tnh_n1_BU-3" edge="1">
          <mxGeometry relative="1" as="geometry">
            <mxPoint x="360" y="430" as="targetPoint" />
          </mxGeometry>
        </mxCell>
        <mxCell id="mWumHvkwMA_tnh_n1_BU-3" value="INICIO" style="text;html=1;align=center;verticalAlign=middle;whiteSpace=wrap;rounded=0;strokeWidth=15;fontSize=18;" parent="mWumHvkwMA_tnh_n1_BU-1" vertex="1">
          <mxGeometry x="330" y="290" width="60" height="30" as="geometry" />
        </mxCell>
        <mxCell id="mWumHvkwMA_tnh_n1_BU-4" value="" style="endArrow=none;html=1;rounded=0;" parent="mWumHvkwMA_tnh_n1_BU-1" edge="1">
          <mxGeometry width="50" height="50" relative="1" as="geometry">
            <mxPoint x="320" y="450" as="sourcePoint" />
            <mxPoint x="400" y="450" as="targetPoint" />
          </mxGeometry>
        </mxCell>
        <mxCell id="mWumHvkwMA_tnh_n1_BU-5" value="" style="endArrow=none;html=1;rounded=0;" parent="mWumHvkwMA_tnh_n1_BU-1" edge="1">
          <mxGeometry width="50" height="50" relative="1" as="geometry">
            <mxPoint x="330" y="460" as="sourcePoint" />
            <mxPoint x="390" y="460" as="targetPoint" />
          </mxGeometry>
        </mxCell>
        <mxCell id="mWumHvkwMA_tnh_n1_BU-6" value="" style="endArrow=none;html=1;rounded=0;" parent="mWumHvkwMA_tnh_n1_BU-1" edge="1">
          <mxGeometry width="50" height="50" relative="1" as="geometry">
            <mxPoint x="335" y="470" as="sourcePoint" />
            <mxPoint x="385" y="470" as="targetPoint" />
          </mxGeometry>
        </mxCell>
        <mxCell id="mWumHvkwMA_tnh_n1_BU-7" style="edgeStyle=orthogonalEdgeStyle;rounded=0;orthogonalLoop=1;jettySize=auto;html=1;" parent="mWumHvkwMA_tnh_n1_BU-1" source="mWumHvkwMA_tnh_n1_BU-8" edge="1">
          <mxGeometry relative="1" as="geometry">
            <mxPoint x="520" y="430" as="targetPoint" />
          </mxGeometry>
        </mxCell>
        <mxCell id="mWumHvkwMA_tnh_n1_BU-8" value="FIM" style="text;html=1;align=center;verticalAlign=middle;whiteSpace=wrap;rounded=0;strokeWidth=15;fontSize=18;" parent="mWumHvkwMA_tnh_n1_BU-1" vertex="1">
          <mxGeometry x="490" y="290" width="60" height="30" as="geometry" />
        </mxCell>
        <mxCell id="mWumHvkwMA_tnh_n1_BU-9" value="" style="endArrow=none;html=1;rounded=0;" parent="mWumHvkwMA_tnh_n1_BU-1" edge="1">
          <mxGeometry width="50" height="50" relative="1" as="geometry">
            <mxPoint x="480" y="450" as="sourcePoint" />
            <mxPoint x="560" y="450" as="targetPoint" />
          </mxGeometry>
        </mxCell>
        <mxCell id="mWumHvkwMA_tnh_n1_BU-10" value="" style="endArrow=none;html=1;rounded=0;" parent="mWumHvkwMA_tnh_n1_BU-1" edge="1">
          <mxGeometry width="50" height="50" relative="1" as="geometry">
            <mxPoint x="490" y="460" as="sourcePoint" />
            <mxPoint x="550" y="460" as="targetPoint" />
          </mxGeometry>
        </mxCell>
        <mxCell id="mWumHvkwMA_tnh_n1_BU-11" value="" style="endArrow=none;html=1;rounded=0;" parent="mWumHvkwMA_tnh_n1_BU-1" edge="1">
          <mxGeometry width="50" height="50" relative="1" as="geometry">
            <mxPoint x="495" y="470" as="sourcePoint" />
            <mxPoint x="545" y="470" as="targetPoint" />
          </mxGeometry>
        </mxCell>
      </root>
    </mxGraphModel>
  </diagram>
  <diagram name="etapa2.1" id="DFi3GU8TqJF2ikROq9gV">
    <mxGraphModel dx="1434" dy="836" grid="1" gridSize="10" guides="1" tooltips="1" connect="1" arrows="1" fold="1" page="1" pageScale="1" pageWidth="827" pageHeight="1169" math="0" shadow="0">
      <root>
        <mxCell id="SoMBMAmqFPhyQqv_7DuK-0" />
        <mxCell id="SoMBMAmqFPhyQqv_7DuK-1" parent="SoMBMAmqFPhyQqv_7DuK-0" />
        <mxCell id="SoMBMAmqFPhyQqv_7DuK-2" style="edgeStyle=orthogonalEdgeStyle;rounded=0;orthogonalLoop=1;jettySize=auto;html=1;" parent="SoMBMAmqFPhyQqv_7DuK-1" source="SoMBMAmqFPhyQqv_7DuK-3" edge="1">
          <mxGeometry relative="1" as="geometry">
            <mxPoint x="260" y="450" as="targetPoint" />
          </mxGeometry>
        </mxCell>
        <mxCell id="SoMBMAmqFPhyQqv_7DuK-3" value="INICIO" style="text;html=1;align=center;verticalAlign=middle;whiteSpace=wrap;rounded=0;strokeWidth=15;fontSize=18;" parent="SoMBMAmqFPhyQqv_7DuK-1" vertex="1">
          <mxGeometry x="230" y="310" width="60" height="30" as="geometry" />
        </mxCell>
        <mxCell id="SoMBMAmqFPhyQqv_7DuK-4" value="" style="endArrow=none;html=1;rounded=0;" parent="SoMBMAmqFPhyQqv_7DuK-1" edge="1">
          <mxGeometry width="50" height="50" relative="1" as="geometry">
            <mxPoint x="220" y="470" as="sourcePoint" />
            <mxPoint x="300" y="470" as="targetPoint" />
          </mxGeometry>
        </mxCell>
        <mxCell id="SoMBMAmqFPhyQqv_7DuK-5" value="" style="endArrow=none;html=1;rounded=0;" parent="SoMBMAmqFPhyQqv_7DuK-1" edge="1">
          <mxGeometry width="50" height="50" relative="1" as="geometry">
            <mxPoint x="230" y="480" as="sourcePoint" />
            <mxPoint x="290" y="480" as="targetPoint" />
          </mxGeometry>
        </mxCell>
        <mxCell id="SoMBMAmqFPhyQqv_7DuK-6" value="" style="endArrow=none;html=1;rounded=0;" parent="SoMBMAmqFPhyQqv_7DuK-1" edge="1">
          <mxGeometry width="50" height="50" relative="1" as="geometry">
            <mxPoint x="235" y="490" as="sourcePoint" />
            <mxPoint x="285" y="490" as="targetPoint" />
          </mxGeometry>
        </mxCell>
        <mxCell id="SoMBMAmqFPhyQqv_7DuK-7" style="edgeStyle=orthogonalEdgeStyle;rounded=0;orthogonalLoop=1;jettySize=auto;html=1;" parent="SoMBMAmqFPhyQqv_7DuK-1" source="SoMBMAmqFPhyQqv_7DuK-8" edge="1">
          <mxGeometry relative="1" as="geometry">
            <mxPoint x="420" y="450" as="targetPoint" />
          </mxGeometry>
        </mxCell>
        <mxCell id="SoMBMAmqFPhyQqv_7DuK-8" value="FIM" style="text;html=1;align=center;verticalAlign=middle;whiteSpace=wrap;rounded=0;strokeWidth=15;fontSize=18;" parent="SoMBMAmqFPhyQqv_7DuK-1" vertex="1">
          <mxGeometry x="390" y="310" width="60" height="30" as="geometry" />
        </mxCell>
        <mxCell id="SoMBMAmqFPhyQqv_7DuK-9" value="" style="endArrow=none;html=1;rounded=0;" parent="SoMBMAmqFPhyQqv_7DuK-1" edge="1">
          <mxGeometry width="50" height="50" relative="1" as="geometry">
            <mxPoint x="380" y="470" as="sourcePoint" />
            <mxPoint x="460" y="470" as="targetPoint" />
          </mxGeometry>
        </mxCell>
        <mxCell id="SoMBMAmqFPhyQqv_7DuK-10" value="" style="endArrow=none;html=1;rounded=0;" parent="SoMBMAmqFPhyQqv_7DuK-1" edge="1">
          <mxGeometry width="50" height="50" relative="1" as="geometry">
            <mxPoint x="390" y="480" as="sourcePoint" />
            <mxPoint x="450" y="480" as="targetPoint" />
          </mxGeometry>
        </mxCell>
        <mxCell id="SoMBMAmqFPhyQqv_7DuK-11" value="" style="endArrow=none;html=1;rounded=0;" parent="SoMBMAmqFPhyQqv_7DuK-1" edge="1">
          <mxGeometry width="50" height="50" relative="1" as="geometry">
            <mxPoint x="395" y="490" as="sourcePoint" />
            <mxPoint x="445" y="490" as="targetPoint" />
          </mxGeometry>
        </mxCell>
        <mxCell id="wj_CFEny0mPCbfltV42A-7" style="edgeStyle=orthogonalEdgeStyle;rounded=0;orthogonalLoop=1;jettySize=auto;html=1;" parent="SoMBMAmqFPhyQqv_7DuK-1" source="wj_CFEny0mPCbfltV42A-0" edge="1">
          <mxGeometry relative="1" as="geometry">
            <mxPoint x="690" y="570" as="targetPoint" />
          </mxGeometry>
        </mxCell>
        <mxCell id="wj_CFEny0mPCbfltV42A-0" value="3" style="whiteSpace=wrap;html=1;aspect=fixed;fontSize=18;" parent="SoMBMAmqFPhyQqv_7DuK-1" vertex="1">
          <mxGeometry x="650" y="400" width="80" height="80" as="geometry" />
        </mxCell>
        <mxCell id="wj_CFEny0mPCbfltV42A-4" value="" style="endArrow=none;html=1;rounded=0;" parent="SoMBMAmqFPhyQqv_7DuK-1" edge="1">
          <mxGeometry width="50" height="50" relative="1" as="geometry">
            <mxPoint x="650" y="580" as="sourcePoint" />
            <mxPoint x="730" y="580" as="targetPoint" />
          </mxGeometry>
        </mxCell>
        <mxCell id="wj_CFEny0mPCbfltV42A-5" value="" style="endArrow=none;html=1;rounded=0;" parent="SoMBMAmqFPhyQqv_7DuK-1" edge="1">
          <mxGeometry width="50" height="50" relative="1" as="geometry">
            <mxPoint x="660" y="590" as="sourcePoint" />
            <mxPoint x="720" y="590" as="targetPoint" />
          </mxGeometry>
        </mxCell>
        <mxCell id="wj_CFEny0mPCbfltV42A-6" value="" style="endArrow=none;html=1;rounded=0;" parent="SoMBMAmqFPhyQqv_7DuK-1" edge="1">
          <mxGeometry width="50" height="50" relative="1" as="geometry">
            <mxPoint x="665" y="600" as="sourcePoint" />
            <mxPoint x="715" y="600" as="targetPoint" />
          </mxGeometry>
        </mxCell>
      </root>
    </mxGraphModel>
  </diagram>
  <diagram name="etapa2.2" id="sX-LIjUNus6pPl1BwcMI">
    <mxGraphModel dx="1434" dy="836" grid="1" gridSize="10" guides="1" tooltips="1" connect="1" arrows="1" fold="1" page="1" pageScale="1" pageWidth="827" pageHeight="1169" math="0" shadow="0">
      <root>
        <mxCell id="Z2TJa3KOZA7MKcbd9KH1-0" />
        <mxCell id="Z2TJa3KOZA7MKcbd9KH1-1" parent="Z2TJa3KOZA7MKcbd9KH1-0" />
        <mxCell id="Z2TJa3KOZA7MKcbd9KH1-2" style="edgeStyle=orthogonalEdgeStyle;rounded=0;orthogonalLoop=1;jettySize=auto;html=1;" parent="Z2TJa3KOZA7MKcbd9KH1-1" source="Z2TJa3KOZA7MKcbd9KH1-3" edge="1">
          <mxGeometry relative="1" as="geometry">
            <mxPoint x="190" y="280" as="targetPoint" />
          </mxGeometry>
        </mxCell>
        <mxCell id="Z2TJa3KOZA7MKcbd9KH1-3" value="INICIO" style="text;html=1;align=center;verticalAlign=middle;whiteSpace=wrap;rounded=0;strokeWidth=15;fontSize=18;" parent="Z2TJa3KOZA7MKcbd9KH1-1" vertex="1">
          <mxGeometry x="160" y="140" width="60" height="30" as="geometry" />
        </mxCell>
        <mxCell id="Z2TJa3KOZA7MKcbd9KH1-7" style="edgeStyle=orthogonalEdgeStyle;rounded=0;orthogonalLoop=1;jettySize=auto;html=1;" parent="Z2TJa3KOZA7MKcbd9KH1-1" source="Z2TJa3KOZA7MKcbd9KH1-8" edge="1">
          <mxGeometry relative="1" as="geometry">
            <mxPoint x="350" y="280" as="targetPoint" />
          </mxGeometry>
        </mxCell>
        <mxCell id="Z2TJa3KOZA7MKcbd9KH1-8" value="FIM" style="text;html=1;align=center;verticalAlign=middle;whiteSpace=wrap;rounded=0;strokeWidth=15;fontSize=18;" parent="Z2TJa3KOZA7MKcbd9KH1-1" vertex="1">
          <mxGeometry x="320" y="140" width="60" height="30" as="geometry" />
        </mxCell>
        <mxCell id="Z2TJa3KOZA7MKcbd9KH1-9" value="" style="endArrow=none;html=1;rounded=0;" parent="Z2TJa3KOZA7MKcbd9KH1-1" edge="1">
          <mxGeometry width="50" height="50" relative="1" as="geometry">
            <mxPoint x="310" y="300" as="sourcePoint" />
            <mxPoint x="390" y="300" as="targetPoint" />
          </mxGeometry>
        </mxCell>
        <mxCell id="Z2TJa3KOZA7MKcbd9KH1-10" value="" style="endArrow=none;html=1;rounded=0;" parent="Z2TJa3KOZA7MKcbd9KH1-1" edge="1">
          <mxGeometry width="50" height="50" relative="1" as="geometry">
            <mxPoint x="320" y="310" as="sourcePoint" />
            <mxPoint x="380" y="310" as="targetPoint" />
          </mxGeometry>
        </mxCell>
        <mxCell id="Z2TJa3KOZA7MKcbd9KH1-11" value="" style="endArrow=none;html=1;rounded=0;" parent="Z2TJa3KOZA7MKcbd9KH1-1" edge="1">
          <mxGeometry width="50" height="50" relative="1" as="geometry">
            <mxPoint x="325" y="320" as="sourcePoint" />
            <mxPoint x="375" y="320" as="targetPoint" />
          </mxGeometry>
        </mxCell>
        <mxCell id="Z2TJa3KOZA7MKcbd9KH1-12" style="edgeStyle=orthogonalEdgeStyle;rounded=0;orthogonalLoop=1;jettySize=auto;html=1;" parent="Z2TJa3KOZA7MKcbd9KH1-1" source="Z2TJa3KOZA7MKcbd9KH1-13" edge="1">
          <mxGeometry relative="1" as="geometry">
            <mxPoint x="190" y="470" as="targetPoint" />
          </mxGeometry>
        </mxCell>
        <mxCell id="Z2TJa3KOZA7MKcbd9KH1-13" value="3" style="whiteSpace=wrap;html=1;aspect=fixed;fontSize=18;" parent="Z2TJa3KOZA7MKcbd9KH1-1" vertex="1">
          <mxGeometry x="150" y="300" width="80" height="80" as="geometry" />
        </mxCell>
        <mxCell id="Z2TJa3KOZA7MKcbd9KH1-14" value="" style="endArrow=none;html=1;rounded=0;" parent="Z2TJa3KOZA7MKcbd9KH1-1" edge="1">
          <mxGeometry width="50" height="50" relative="1" as="geometry">
            <mxPoint x="150" y="480" as="sourcePoint" />
            <mxPoint x="230" y="480" as="targetPoint" />
          </mxGeometry>
        </mxCell>
        <mxCell id="Z2TJa3KOZA7MKcbd9KH1-15" value="" style="endArrow=none;html=1;rounded=0;" parent="Z2TJa3KOZA7MKcbd9KH1-1" edge="1">
          <mxGeometry width="50" height="50" relative="1" as="geometry">
            <mxPoint x="160" y="490" as="sourcePoint" />
            <mxPoint x="220" y="490" as="targetPoint" />
          </mxGeometry>
        </mxCell>
        <mxCell id="Z2TJa3KOZA7MKcbd9KH1-16" value="" style="endArrow=none;html=1;rounded=0;" parent="Z2TJa3KOZA7MKcbd9KH1-1" edge="1">
          <mxGeometry width="50" height="50" relative="1" as="geometry">
            <mxPoint x="165" y="500" as="sourcePoint" />
            <mxPoint x="215" y="500" as="targetPoint" />
          </mxGeometry>
        </mxCell>
      </root>
    </mxGraphModel>
  </diagram>
  <diagram name="etapa2.3" id="YJKVguxUwOCrfONodF2c">
    <mxGraphModel dx="1434" dy="836" grid="1" gridSize="10" guides="1" tooltips="1" connect="1" arrows="1" fold="1" page="1" pageScale="1" pageWidth="827" pageHeight="1169" math="0" shadow="0">
      <root>
        <mxCell id="K1UDHZFrkie1QRbYow-V-0" />
        <mxCell id="K1UDHZFrkie1QRbYow-V-1" parent="K1UDHZFrkie1QRbYow-V-0" />
        <mxCell id="K1UDHZFrkie1QRbYow-V-2" style="edgeStyle=orthogonalEdgeStyle;rounded=0;orthogonalLoop=1;jettySize=auto;html=1;" parent="K1UDHZFrkie1QRbYow-V-1" source="K1UDHZFrkie1QRbYow-V-3" edge="1">
          <mxGeometry relative="1" as="geometry">
            <mxPoint x="190" y="280" as="targetPoint" />
          </mxGeometry>
        </mxCell>
        <mxCell id="K1UDHZFrkie1QRbYow-V-3" value="INICIO" style="text;html=1;align=center;verticalAlign=middle;whiteSpace=wrap;rounded=0;strokeWidth=15;fontSize=18;" parent="K1UDHZFrkie1QRbYow-V-1" vertex="1">
          <mxGeometry x="160" y="140" width="60" height="30" as="geometry" />
        </mxCell>
        <mxCell id="42VFwCWEH2Z_g7yoLHBX-0" style="edgeStyle=orthogonalEdgeStyle;rounded=0;orthogonalLoop=1;jettySize=auto;html=1;entryX=1;entryY=0.25;entryDx=0;entryDy=0;" parent="K1UDHZFrkie1QRbYow-V-1" target="K1UDHZFrkie1QRbYow-V-10" edge="1">
          <mxGeometry relative="1" as="geometry">
            <mxPoint x="350" y="170" as="sourcePoint" />
            <mxPoint x="260" y="315" as="targetPoint" />
            <Array as="points">
              <mxPoint x="350" y="320" />
            </Array>
          </mxGeometry>
        </mxCell>
        <mxCell id="K1UDHZFrkie1QRbYow-V-5" value="FIM" style="text;html=1;align=center;verticalAlign=middle;whiteSpace=wrap;rounded=0;strokeWidth=15;fontSize=18;" parent="K1UDHZFrkie1QRbYow-V-1" vertex="1">
          <mxGeometry x="320" y="140" width="60" height="30" as="geometry" />
        </mxCell>
        <mxCell id="K1UDHZFrkie1QRbYow-V-9" style="edgeStyle=orthogonalEdgeStyle;rounded=0;orthogonalLoop=1;jettySize=auto;html=1;" parent="K1UDHZFrkie1QRbYow-V-1" source="K1UDHZFrkie1QRbYow-V-10" edge="1">
          <mxGeometry relative="1" as="geometry">
            <mxPoint x="190" y="470" as="targetPoint" />
          </mxGeometry>
        </mxCell>
        <mxCell id="K1UDHZFrkie1QRbYow-V-10" value="3" style="whiteSpace=wrap;html=1;aspect=fixed;fontSize=18;" parent="K1UDHZFrkie1QRbYow-V-1" vertex="1">
          <mxGeometry x="150" y="300" width="80" height="80" as="geometry" />
        </mxCell>
        <mxCell id="K1UDHZFrkie1QRbYow-V-11" value="" style="endArrow=none;html=1;rounded=0;" parent="K1UDHZFrkie1QRbYow-V-1" edge="1">
          <mxGeometry width="50" height="50" relative="1" as="geometry">
            <mxPoint x="150" y="480" as="sourcePoint" />
            <mxPoint x="230" y="480" as="targetPoint" />
          </mxGeometry>
        </mxCell>
        <mxCell id="K1UDHZFrkie1QRbYow-V-12" value="" style="endArrow=none;html=1;rounded=0;" parent="K1UDHZFrkie1QRbYow-V-1" edge="1">
          <mxGeometry width="50" height="50" relative="1" as="geometry">
            <mxPoint x="160" y="490" as="sourcePoint" />
            <mxPoint x="220" y="490" as="targetPoint" />
          </mxGeometry>
        </mxCell>
        <mxCell id="K1UDHZFrkie1QRbYow-V-13" value="" style="endArrow=none;html=1;rounded=0;" parent="K1UDHZFrkie1QRbYow-V-1" edge="1">
          <mxGeometry width="50" height="50" relative="1" as="geometry">
            <mxPoint x="165" y="500" as="sourcePoint" />
            <mxPoint x="215" y="500" as="targetPoint" />
          </mxGeometry>
        </mxCell>
      </root>
    </mxGraphModel>
  </diagram>
  <diagram name="etapa3.1" id="k3ZUlJxbjWPE73ZLC8HJ">
    <mxGraphModel dx="1434" dy="836" grid="1" gridSize="10" guides="1" tooltips="1" connect="1" arrows="1" fold="1" page="1" pageScale="1" pageWidth="827" pageHeight="1169" math="0" shadow="0">
      <root>
        <mxCell id="25K9ERW-ZLPJfZEddFV5-0" />
        <mxCell id="25K9ERW-ZLPJfZEddFV5-1" parent="25K9ERW-ZLPJfZEddFV5-0" />
        <mxCell id="25K9ERW-ZLPJfZEddFV5-2" style="edgeStyle=orthogonalEdgeStyle;rounded=0;orthogonalLoop=1;jettySize=auto;html=1;" parent="25K9ERW-ZLPJfZEddFV5-1" source="25K9ERW-ZLPJfZEddFV5-3" edge="1">
          <mxGeometry relative="1" as="geometry">
            <mxPoint x="190" y="280" as="targetPoint" />
          </mxGeometry>
        </mxCell>
        <mxCell id="25K9ERW-ZLPJfZEddFV5-3" value="INICIO" style="text;html=1;align=center;verticalAlign=middle;whiteSpace=wrap;rounded=0;strokeWidth=15;fontSize=18;" parent="25K9ERW-ZLPJfZEddFV5-1" vertex="1">
          <mxGeometry x="160" y="140" width="60" height="30" as="geometry" />
        </mxCell>
        <mxCell id="25K9ERW-ZLPJfZEddFV5-4" style="edgeStyle=orthogonalEdgeStyle;rounded=0;orthogonalLoop=1;jettySize=auto;html=1;entryX=1;entryY=0.25;entryDx=0;entryDy=0;" parent="25K9ERW-ZLPJfZEddFV5-1" target="25K9ERW-ZLPJfZEddFV5-7" edge="1">
          <mxGeometry relative="1" as="geometry">
            <mxPoint x="350" y="170" as="sourcePoint" />
            <mxPoint x="260" y="315" as="targetPoint" />
            <Array as="points">
              <mxPoint x="350" y="320" />
            </Array>
          </mxGeometry>
        </mxCell>
        <mxCell id="25K9ERW-ZLPJfZEddFV5-5" value="FIM" style="text;html=1;align=center;verticalAlign=middle;whiteSpace=wrap;rounded=0;strokeWidth=15;fontSize=18;" parent="25K9ERW-ZLPJfZEddFV5-1" vertex="1">
          <mxGeometry x="320" y="140" width="60" height="30" as="geometry" />
        </mxCell>
        <mxCell id="25K9ERW-ZLPJfZEddFV5-6" style="edgeStyle=orthogonalEdgeStyle;rounded=0;orthogonalLoop=1;jettySize=auto;html=1;" parent="25K9ERW-ZLPJfZEddFV5-1" source="25K9ERW-ZLPJfZEddFV5-7" edge="1">
          <mxGeometry relative="1" as="geometry">
            <mxPoint x="190" y="470" as="targetPoint" />
          </mxGeometry>
        </mxCell>
        <mxCell id="25K9ERW-ZLPJfZEddFV5-7" value="3" style="whiteSpace=wrap;html=1;aspect=fixed;fontSize=18;" parent="25K9ERW-ZLPJfZEddFV5-1" vertex="1">
          <mxGeometry x="150" y="300" width="80" height="80" as="geometry" />
        </mxCell>
        <mxCell id="25K9ERW-ZLPJfZEddFV5-8" value="" style="endArrow=none;html=1;rounded=0;" parent="25K9ERW-ZLPJfZEddFV5-1" edge="1">
          <mxGeometry width="50" height="50" relative="1" as="geometry">
            <mxPoint x="150" y="480" as="sourcePoint" />
            <mxPoint x="230" y="480" as="targetPoint" />
          </mxGeometry>
        </mxCell>
        <mxCell id="25K9ERW-ZLPJfZEddFV5-9" value="" style="endArrow=none;html=1;rounded=0;" parent="25K9ERW-ZLPJfZEddFV5-1" edge="1">
          <mxGeometry width="50" height="50" relative="1" as="geometry">
            <mxPoint x="160" y="490" as="sourcePoint" />
            <mxPoint x="220" y="490" as="targetPoint" />
          </mxGeometry>
        </mxCell>
        <mxCell id="25K9ERW-ZLPJfZEddFV5-10" value="" style="endArrow=none;html=1;rounded=0;" parent="25K9ERW-ZLPJfZEddFV5-1" edge="1">
          <mxGeometry width="50" height="50" relative="1" as="geometry">
            <mxPoint x="165" y="500" as="sourcePoint" />
            <mxPoint x="215" y="500" as="targetPoint" />
          </mxGeometry>
        </mxCell>
        <mxCell id="e67BNAWLoSVmD4Nmf1bC-0" value="AUX" style="text;html=1;align=center;verticalAlign=middle;whiteSpace=wrap;rounded=0;fontSize=18;" vertex="1" parent="25K9ERW-ZLPJfZEddFV5-1">
          <mxGeometry x="520" y="270" width="60" height="30" as="geometry" />
        </mxCell>
        <mxCell id="e67BNAWLoSVmD4Nmf1bC-5" value="" style="endArrow=classic;html=1;rounded=0;exitX=0;exitY=0.75;exitDx=0;exitDy=0;entryX=1;entryY=1;entryDx=0;entryDy=0;" edge="1" parent="25K9ERW-ZLPJfZEddFV5-1" source="e67BNAWLoSVmD4Nmf1bC-0" target="25K9ERW-ZLPJfZEddFV5-7">
          <mxGeometry width="50" height="50" relative="1" as="geometry">
            <mxPoint x="390" y="450" as="sourcePoint" />
            <mxPoint x="440" y="400" as="targetPoint" />
          </mxGeometry>
        </mxCell>
      </root>
    </mxGraphModel>
  </diagram>
  <diagram name="etapa3.2" id="VWoAy-c-In6bmB6tgRDQ">
    <mxGraphModel dx="1434" dy="836" grid="1" gridSize="10" guides="1" tooltips="1" connect="1" arrows="1" fold="1" page="1" pageScale="1" pageWidth="827" pageHeight="1169" math="0" shadow="0">
      <root>
        <mxCell id="U7TNplUrktocA94asJZe-0" />
        <mxCell id="U7TNplUrktocA94asJZe-1" parent="U7TNplUrktocA94asJZe-0" />
        <mxCell id="U7TNplUrktocA94asJZe-3" value="INICIO" style="text;html=1;align=center;verticalAlign=middle;whiteSpace=wrap;rounded=0;strokeWidth=15;fontSize=18;" vertex="1" parent="U7TNplUrktocA94asJZe-1">
          <mxGeometry x="60" y="150" width="60" height="30" as="geometry" />
        </mxCell>
        <mxCell id="U7TNplUrktocA94asJZe-4" style="edgeStyle=orthogonalEdgeStyle;rounded=0;orthogonalLoop=1;jettySize=auto;html=1;entryX=1;entryY=0.25;entryDx=0;entryDy=0;" edge="1" parent="U7TNplUrktocA94asJZe-1" target="U7TNplUrktocA94asJZe-7">
          <mxGeometry relative="1" as="geometry">
            <mxPoint x="350" y="170" as="sourcePoint" />
            <mxPoint x="260" y="315" as="targetPoint" />
            <Array as="points">
              <mxPoint x="350" y="320" />
            </Array>
          </mxGeometry>
        </mxCell>
        <mxCell id="U7TNplUrktocA94asJZe-5" value="FIM" style="text;html=1;align=center;verticalAlign=middle;whiteSpace=wrap;rounded=0;strokeWidth=15;fontSize=18;" vertex="1" parent="U7TNplUrktocA94asJZe-1">
          <mxGeometry x="320" y="140" width="60" height="30" as="geometry" />
        </mxCell>
        <mxCell id="U7TNplUrktocA94asJZe-6" style="edgeStyle=orthogonalEdgeStyle;rounded=0;orthogonalLoop=1;jettySize=auto;html=1;" edge="1" parent="U7TNplUrktocA94asJZe-1" source="U7TNplUrktocA94asJZe-7">
          <mxGeometry relative="1" as="geometry">
            <mxPoint x="190" y="470" as="targetPoint" />
          </mxGeometry>
        </mxCell>
        <mxCell id="U7TNplUrktocA94asJZe-7" value="3" style="whiteSpace=wrap;html=1;aspect=fixed;fontSize=18;" vertex="1" parent="U7TNplUrktocA94asJZe-1">
          <mxGeometry x="150" y="300" width="80" height="80" as="geometry" />
        </mxCell>
        <mxCell id="U7TNplUrktocA94asJZe-8" value="" style="endArrow=none;html=1;rounded=0;" edge="1" parent="U7TNplUrktocA94asJZe-1">
          <mxGeometry width="50" height="50" relative="1" as="geometry">
            <mxPoint x="150" y="480" as="sourcePoint" />
            <mxPoint x="230" y="480" as="targetPoint" />
          </mxGeometry>
        </mxCell>
        <mxCell id="U7TNplUrktocA94asJZe-9" value="" style="endArrow=none;html=1;rounded=0;" edge="1" parent="U7TNplUrktocA94asJZe-1">
          <mxGeometry width="50" height="50" relative="1" as="geometry">
            <mxPoint x="160" y="490" as="sourcePoint" />
            <mxPoint x="220" y="490" as="targetPoint" />
          </mxGeometry>
        </mxCell>
        <mxCell id="U7TNplUrktocA94asJZe-10" value="" style="endArrow=none;html=1;rounded=0;" edge="1" parent="U7TNplUrktocA94asJZe-1">
          <mxGeometry width="50" height="50" relative="1" as="geometry">
            <mxPoint x="165" y="500" as="sourcePoint" />
            <mxPoint x="215" y="500" as="targetPoint" />
          </mxGeometry>
        </mxCell>
        <mxCell id="U7TNplUrktocA94asJZe-11" value="AUX" style="text;html=1;align=center;verticalAlign=middle;whiteSpace=wrap;rounded=0;fontSize=18;" vertex="1" parent="U7TNplUrktocA94asJZe-1">
          <mxGeometry x="520" y="270" width="60" height="30" as="geometry" />
        </mxCell>
        <mxCell id="U7TNplUrktocA94asJZe-12" value="" style="endArrow=classic;html=1;rounded=0;exitX=0;exitY=0.75;exitDx=0;exitDy=0;entryX=1;entryY=1;entryDx=0;entryDy=0;" edge="1" parent="U7TNplUrktocA94asJZe-1" source="U7TNplUrktocA94asJZe-11" target="U7TNplUrktocA94asJZe-7">
          <mxGeometry width="50" height="50" relative="1" as="geometry">
            <mxPoint x="390" y="450" as="sourcePoint" />
            <mxPoint x="440" y="400" as="targetPoint" />
          </mxGeometry>
        </mxCell>
        <mxCell id="UHpauWgiaEtXkY-Ej0Ut-0" value="" style="endArrow=classic;html=1;rounded=0;exitX=0;exitY=0.75;exitDx=0;exitDy=0;" edge="1" parent="U7TNplUrktocA94asJZe-1" source="U7TNplUrktocA94asJZe-3">
          <mxGeometry width="50" height="50" relative="1" as="geometry">
            <mxPoint x="260" y="220" as="sourcePoint" />
            <mxPoint x="160" y="470" as="targetPoint" />
          </mxGeometry>
        </mxCell>
      </root>
    </mxGraphModel>
  </diagram>
  <diagram name="etapa3.3" id="b-hPyBaORdqhAggfrrsH">
    <mxGraphModel dx="1434" dy="836" grid="1" gridSize="10" guides="1" tooltips="1" connect="1" arrows="1" fold="1" page="1" pageScale="1" pageWidth="827" pageHeight="1169" math="0" shadow="0">
      <root>
        <mxCell id="QdcW_K-alUYXETNiNtcM-0" />
        <mxCell id="QdcW_K-alUYXETNiNtcM-1" parent="QdcW_K-alUYXETNiNtcM-0" />
        <mxCell id="QdcW_K-alUYXETNiNtcM-2" value="INICIO" style="text;html=1;align=center;verticalAlign=middle;whiteSpace=wrap;rounded=0;strokeWidth=15;fontSize=18;" vertex="1" parent="QdcW_K-alUYXETNiNtcM-1">
          <mxGeometry x="60" y="150" width="60" height="30" as="geometry" />
        </mxCell>
        <mxCell id="QdcW_K-alUYXETNiNtcM-4" value="FIM" style="text;html=1;align=center;verticalAlign=middle;whiteSpace=wrap;rounded=0;strokeWidth=15;fontSize=18;" vertex="1" parent="QdcW_K-alUYXETNiNtcM-1">
          <mxGeometry x="320" y="140" width="60" height="30" as="geometry" />
        </mxCell>
        <mxCell id="QdcW_K-alUYXETNiNtcM-5" style="edgeStyle=orthogonalEdgeStyle;rounded=0;orthogonalLoop=1;jettySize=auto;html=1;" edge="1" parent="QdcW_K-alUYXETNiNtcM-1" source="QdcW_K-alUYXETNiNtcM-6">
          <mxGeometry relative="1" as="geometry">
            <mxPoint x="190" y="470" as="targetPoint" />
          </mxGeometry>
        </mxCell>
        <mxCell id="QdcW_K-alUYXETNiNtcM-6" value="3" style="whiteSpace=wrap;html=1;aspect=fixed;fontSize=18;" vertex="1" parent="QdcW_K-alUYXETNiNtcM-1">
          <mxGeometry x="150" y="300" width="80" height="80" as="geometry" />
        </mxCell>
        <mxCell id="QdcW_K-alUYXETNiNtcM-7" value="" style="endArrow=none;html=1;rounded=0;" edge="1" parent="QdcW_K-alUYXETNiNtcM-1">
          <mxGeometry width="50" height="50" relative="1" as="geometry">
            <mxPoint x="150" y="480" as="sourcePoint" />
            <mxPoint x="230" y="480" as="targetPoint" />
          </mxGeometry>
        </mxCell>
        <mxCell id="QdcW_K-alUYXETNiNtcM-8" value="" style="endArrow=none;html=1;rounded=0;" edge="1" parent="QdcW_K-alUYXETNiNtcM-1">
          <mxGeometry width="50" height="50" relative="1" as="geometry">
            <mxPoint x="160" y="490" as="sourcePoint" />
            <mxPoint x="220" y="490" as="targetPoint" />
          </mxGeometry>
        </mxCell>
        <mxCell id="QdcW_K-alUYXETNiNtcM-9" value="" style="endArrow=none;html=1;rounded=0;" edge="1" parent="QdcW_K-alUYXETNiNtcM-1">
          <mxGeometry width="50" height="50" relative="1" as="geometry">
            <mxPoint x="165" y="500" as="sourcePoint" />
            <mxPoint x="215" y="500" as="targetPoint" />
          </mxGeometry>
        </mxCell>
        <mxCell id="QdcW_K-alUYXETNiNtcM-10" value="AUX" style="text;html=1;align=center;verticalAlign=middle;whiteSpace=wrap;rounded=0;fontSize=18;" vertex="1" parent="QdcW_K-alUYXETNiNtcM-1">
          <mxGeometry x="520" y="270" width="60" height="30" as="geometry" />
        </mxCell>
        <mxCell id="QdcW_K-alUYXETNiNtcM-11" value="" style="endArrow=classic;html=1;rounded=0;exitX=0;exitY=0.75;exitDx=0;exitDy=0;entryX=1;entryY=1;entryDx=0;entryDy=0;" edge="1" parent="QdcW_K-alUYXETNiNtcM-1" source="QdcW_K-alUYXETNiNtcM-10" target="QdcW_K-alUYXETNiNtcM-6">
          <mxGeometry width="50" height="50" relative="1" as="geometry">
            <mxPoint x="390" y="450" as="sourcePoint" />
            <mxPoint x="440" y="400" as="targetPoint" />
          </mxGeometry>
        </mxCell>
        <mxCell id="QdcW_K-alUYXETNiNtcM-12" value="" style="endArrow=classic;html=1;rounded=0;exitX=0;exitY=0.75;exitDx=0;exitDy=0;" edge="1" parent="QdcW_K-alUYXETNiNtcM-1" source="QdcW_K-alUYXETNiNtcM-2">
          <mxGeometry width="50" height="50" relative="1" as="geometry">
            <mxPoint x="260" y="220" as="sourcePoint" />
            <mxPoint x="160" y="470" as="targetPoint" />
          </mxGeometry>
        </mxCell>
        <mxCell id="7hcpijVBv-VOgmYdwYNg-0" value="" style="endArrow=classic;html=1;rounded=0;exitX=0.4;exitY=0.867;exitDx=0;exitDy=0;exitPerimeter=0;" edge="1" parent="QdcW_K-alUYXETNiNtcM-1" source="QdcW_K-alUYXETNiNtcM-4">
          <mxGeometry width="50" height="50" relative="1" as="geometry">
            <mxPoint x="540" y="313" as="sourcePoint" />
            <mxPoint x="210" y="470" as="targetPoint" />
          </mxGeometry>
        </mxCell>
      </root>
    </mxGraphModel>
  </diagram>
  <diagram name="etapa3.4" id="KcpOh2YYCnBMETw7RuD7">
    <mxGraphModel dx="1434" dy="836" grid="1" gridSize="10" guides="1" tooltips="1" connect="1" arrows="1" fold="1" page="1" pageScale="1" pageWidth="827" pageHeight="1169" math="0" shadow="0">
      <root>
        <mxCell id="WQXZ8vk3UI95geeb_ddF-0" />
        <mxCell id="WQXZ8vk3UI95geeb_ddF-1" parent="WQXZ8vk3UI95geeb_ddF-0" />
        <mxCell id="WQXZ8vk3UI95geeb_ddF-2" value="INICIO" style="text;html=1;align=center;verticalAlign=middle;whiteSpace=wrap;rounded=0;strokeWidth=15;fontSize=18;" vertex="1" parent="WQXZ8vk3UI95geeb_ddF-1">
          <mxGeometry x="60" y="150" width="60" height="30" as="geometry" />
        </mxCell>
        <mxCell id="WQXZ8vk3UI95geeb_ddF-3" value="FIM" style="text;html=1;align=center;verticalAlign=middle;whiteSpace=wrap;rounded=0;strokeWidth=15;fontSize=18;" vertex="1" parent="WQXZ8vk3UI95geeb_ddF-1">
          <mxGeometry x="320" y="140" width="60" height="30" as="geometry" />
        </mxCell>
        <mxCell id="WQXZ8vk3UI95geeb_ddF-4" style="edgeStyle=orthogonalEdgeStyle;rounded=0;orthogonalLoop=1;jettySize=auto;html=1;" edge="1" parent="WQXZ8vk3UI95geeb_ddF-1" source="WQXZ8vk3UI95geeb_ddF-5">
          <mxGeometry relative="1" as="geometry">
            <mxPoint x="190" y="470" as="targetPoint" />
          </mxGeometry>
        </mxCell>
        <mxCell id="WQXZ8vk3UI95geeb_ddF-5" value="3" style="whiteSpace=wrap;html=1;aspect=fixed;fontSize=18;" vertex="1" parent="WQXZ8vk3UI95geeb_ddF-1">
          <mxGeometry x="150" y="300" width="80" height="80" as="geometry" />
        </mxCell>
        <mxCell id="WQXZ8vk3UI95geeb_ddF-6" value="" style="endArrow=none;html=1;rounded=0;" edge="1" parent="WQXZ8vk3UI95geeb_ddF-1">
          <mxGeometry width="50" height="50" relative="1" as="geometry">
            <mxPoint x="150" y="480" as="sourcePoint" />
            <mxPoint x="230" y="480" as="targetPoint" />
          </mxGeometry>
        </mxCell>
        <mxCell id="WQXZ8vk3UI95geeb_ddF-7" value="" style="endArrow=none;html=1;rounded=0;" edge="1" parent="WQXZ8vk3UI95geeb_ddF-1">
          <mxGeometry width="50" height="50" relative="1" as="geometry">
            <mxPoint x="160" y="490" as="sourcePoint" />
            <mxPoint x="220" y="490" as="targetPoint" />
          </mxGeometry>
        </mxCell>
        <mxCell id="WQXZ8vk3UI95geeb_ddF-8" value="" style="endArrow=none;html=1;rounded=0;" edge="1" parent="WQXZ8vk3UI95geeb_ddF-1">
          <mxGeometry width="50" height="50" relative="1" as="geometry">
            <mxPoint x="165" y="500" as="sourcePoint" />
            <mxPoint x="215" y="500" as="targetPoint" />
          </mxGeometry>
        </mxCell>
        <mxCell id="WQXZ8vk3UI95geeb_ddF-9" value="AUX" style="text;html=1;align=center;verticalAlign=middle;whiteSpace=wrap;rounded=0;fontSize=18;" vertex="1" parent="WQXZ8vk3UI95geeb_ddF-1">
          <mxGeometry x="520" y="270" width="60" height="30" as="geometry" />
        </mxCell>
        <mxCell id="WQXZ8vk3UI95geeb_ddF-10" value="" style="endArrow=classic;html=1;rounded=0;exitX=0;exitY=0.75;exitDx=0;exitDy=0;entryX=1;entryY=1;entryDx=0;entryDy=0;" edge="1" parent="WQXZ8vk3UI95geeb_ddF-1" source="WQXZ8vk3UI95geeb_ddF-9" target="WQXZ8vk3UI95geeb_ddF-5">
          <mxGeometry width="50" height="50" relative="1" as="geometry">
            <mxPoint x="390" y="450" as="sourcePoint" />
            <mxPoint x="440" y="400" as="targetPoint" />
          </mxGeometry>
        </mxCell>
        <mxCell id="WQXZ8vk3UI95geeb_ddF-11" value="" style="endArrow=classic;html=1;rounded=0;exitX=0;exitY=0.75;exitDx=0;exitDy=0;" edge="1" parent="WQXZ8vk3UI95geeb_ddF-1" source="WQXZ8vk3UI95geeb_ddF-2">
          <mxGeometry width="50" height="50" relative="1" as="geometry">
            <mxPoint x="260" y="220" as="sourcePoint" />
            <mxPoint x="160" y="470" as="targetPoint" />
          </mxGeometry>
        </mxCell>
        <mxCell id="WQXZ8vk3UI95geeb_ddF-12" value="" style="endArrow=classic;html=1;rounded=0;exitX=0.4;exitY=0.867;exitDx=0;exitDy=0;exitPerimeter=0;" edge="1" parent="WQXZ8vk3UI95geeb_ddF-1" source="WQXZ8vk3UI95geeb_ddF-3">
          <mxGeometry width="50" height="50" relative="1" as="geometry">
            <mxPoint x="540" y="313" as="sourcePoint" />
            <mxPoint x="210" y="470" as="targetPoint" />
          </mxGeometry>
        </mxCell>
        <mxCell id="AlwE3aRMNFpvJX4x59vX-0" value="" style="shape=cross;whiteSpace=wrap;html=1;rotation=45;fillColor=#a20025;fontColor=#ffffff;strokeColor=#6F0000;" vertex="1" parent="WQXZ8vk3UI95geeb_ddF-1">
          <mxGeometry x="150" y="300" width="80" height="80" as="geometry" />
        </mxCell>
      </root>
    </mxGraphModel>
  </diagram>
  <diagram name="etapa4.1" id="FZgF0Q9J1uYoZUonI-Kr">
    <mxGraphModel dx="1434" dy="836" grid="1" gridSize="10" guides="1" tooltips="1" connect="1" arrows="1" fold="1" page="1" pageScale="1" pageWidth="827" pageHeight="1169" math="0" shadow="0">
      <root>
        <mxCell id="SoUGR5m-xIjk1WcUPP2Y-0" />
        <mxCell id="SoUGR5m-xIjk1WcUPP2Y-1" parent="SoUGR5m-xIjk1WcUPP2Y-0" />
        <mxCell id="SoUGR5m-xIjk1WcUPP2Y-2" value="INICIO" style="text;html=1;align=center;verticalAlign=middle;whiteSpace=wrap;rounded=0;strokeWidth=15;fontSize=18;" vertex="1" parent="SoUGR5m-xIjk1WcUPP2Y-1">
          <mxGeometry x="60" y="150" width="60" height="30" as="geometry" />
        </mxCell>
        <mxCell id="SoUGR5m-xIjk1WcUPP2Y-3" value="FIM" style="text;html=1;align=center;verticalAlign=middle;whiteSpace=wrap;rounded=0;strokeWidth=15;fontSize=18;" vertex="1" parent="SoUGR5m-xIjk1WcUPP2Y-1">
          <mxGeometry x="320" y="140" width="60" height="30" as="geometry" />
        </mxCell>
        <mxCell id="SoUGR5m-xIjk1WcUPP2Y-6" value="" style="endArrow=none;html=1;rounded=0;" edge="1" parent="SoUGR5m-xIjk1WcUPP2Y-1">
          <mxGeometry width="50" height="50" relative="1" as="geometry">
            <mxPoint x="150" y="480" as="sourcePoint" />
            <mxPoint x="230" y="480" as="targetPoint" />
          </mxGeometry>
        </mxCell>
        <mxCell id="SoUGR5m-xIjk1WcUPP2Y-7" value="" style="endArrow=none;html=1;rounded=0;" edge="1" parent="SoUGR5m-xIjk1WcUPP2Y-1">
          <mxGeometry width="50" height="50" relative="1" as="geometry">
            <mxPoint x="160" y="490" as="sourcePoint" />
            <mxPoint x="220" y="490" as="targetPoint" />
          </mxGeometry>
        </mxCell>
        <mxCell id="SoUGR5m-xIjk1WcUPP2Y-8" value="" style="endArrow=none;html=1;rounded=0;" edge="1" parent="SoUGR5m-xIjk1WcUPP2Y-1">
          <mxGeometry width="50" height="50" relative="1" as="geometry">
            <mxPoint x="165" y="500" as="sourcePoint" />
            <mxPoint x="215" y="500" as="targetPoint" />
          </mxGeometry>
        </mxCell>
        <mxCell id="SoUGR5m-xIjk1WcUPP2Y-11" value="" style="endArrow=classic;html=1;rounded=0;exitX=0;exitY=0.75;exitDx=0;exitDy=0;" edge="1" parent="SoUGR5m-xIjk1WcUPP2Y-1" source="SoUGR5m-xIjk1WcUPP2Y-2">
          <mxGeometry width="50" height="50" relative="1" as="geometry">
            <mxPoint x="260" y="220" as="sourcePoint" />
            <mxPoint x="160" y="470" as="targetPoint" />
          </mxGeometry>
        </mxCell>
        <mxCell id="SoUGR5m-xIjk1WcUPP2Y-12" value="" style="endArrow=classic;html=1;rounded=0;exitX=0.4;exitY=0.867;exitDx=0;exitDy=0;exitPerimeter=0;" edge="1" parent="SoUGR5m-xIjk1WcUPP2Y-1" source="SoUGR5m-xIjk1WcUPP2Y-3">
          <mxGeometry width="50" height="50" relative="1" as="geometry">
            <mxPoint x="540" y="313" as="sourcePoint" />
            <mxPoint x="210" y="470" as="targetPoint" />
          </mxGeometry>
        </mxCell>
        <mxCell id="FFsKvVnT5dj0KF_fxBE9-4" style="edgeStyle=orthogonalEdgeStyle;rounded=0;orthogonalLoop=1;jettySize=auto;html=1;" edge="1" parent="SoUGR5m-xIjk1WcUPP2Y-1" source="FFsKvVnT5dj0KF_fxBE9-0">
          <mxGeometry relative="1" as="geometry">
            <mxPoint x="500" y="440" as="targetPoint" />
          </mxGeometry>
        </mxCell>
        <mxCell id="FFsKvVnT5dj0KF_fxBE9-0" value="3" style="whiteSpace=wrap;html=1;aspect=fixed;fontSize=18;" vertex="1" parent="SoUGR5m-xIjk1WcUPP2Y-1">
          <mxGeometry x="460" y="280" width="80" height="80" as="geometry" />
        </mxCell>
        <mxCell id="FFsKvVnT5dj0KF_fxBE9-1" value="" style="endArrow=none;html=1;rounded=0;" edge="1" parent="SoUGR5m-xIjk1WcUPP2Y-1">
          <mxGeometry width="50" height="50" relative="1" as="geometry">
            <mxPoint x="460" y="450" as="sourcePoint" />
            <mxPoint x="540" y="450" as="targetPoint" />
          </mxGeometry>
        </mxCell>
        <mxCell id="FFsKvVnT5dj0KF_fxBE9-2" value="" style="endArrow=none;html=1;rounded=0;" edge="1" parent="SoUGR5m-xIjk1WcUPP2Y-1">
          <mxGeometry width="50" height="50" relative="1" as="geometry">
            <mxPoint x="470" y="460" as="sourcePoint" />
            <mxPoint x="530" y="460" as="targetPoint" />
          </mxGeometry>
        </mxCell>
        <mxCell id="FFsKvVnT5dj0KF_fxBE9-3" value="" style="endArrow=none;html=1;rounded=0;" edge="1" parent="SoUGR5m-xIjk1WcUPP2Y-1">
          <mxGeometry width="50" height="50" relative="1" as="geometry">
            <mxPoint x="475" y="470" as="sourcePoint" />
            <mxPoint x="525" y="470" as="targetPoint" />
          </mxGeometry>
        </mxCell>
      </root>
    </mxGraphModel>
  </diagram>
  <diagram name="etapa4.2" id="NEw93QB-9vCXqH5gRY22">
    <mxGraphModel dx="1434" dy="836" grid="1" gridSize="10" guides="1" tooltips="1" connect="1" arrows="1" fold="1" page="1" pageScale="1" pageWidth="827" pageHeight="1169" math="0" shadow="0">
      <root>
        <mxCell id="76sIA1GjqkDgVSNy8QxX-0" />
        <mxCell id="76sIA1GjqkDgVSNy8QxX-1" parent="76sIA1GjqkDgVSNy8QxX-0" />
        <mxCell id="76sIA1GjqkDgVSNy8QxX-2" value="INICIO" style="text;html=1;align=center;verticalAlign=middle;whiteSpace=wrap;rounded=0;strokeWidth=15;fontSize=18;" vertex="1" parent="76sIA1GjqkDgVSNy8QxX-1">
          <mxGeometry x="60" y="150" width="60" height="30" as="geometry" />
        </mxCell>
        <mxCell id="76sIA1GjqkDgVSNy8QxX-3" value="FIM" style="text;html=1;align=center;verticalAlign=middle;whiteSpace=wrap;rounded=0;strokeWidth=15;fontSize=18;" vertex="1" parent="76sIA1GjqkDgVSNy8QxX-1">
          <mxGeometry x="320" y="140" width="60" height="30" as="geometry" />
        </mxCell>
        <mxCell id="76sIA1GjqkDgVSNy8QxX-4" value="" style="endArrow=none;html=1;rounded=0;" edge="1" parent="76sIA1GjqkDgVSNy8QxX-1">
          <mxGeometry width="50" height="50" relative="1" as="geometry">
            <mxPoint x="150" y="480" as="sourcePoint" />
            <mxPoint x="230" y="480" as="targetPoint" />
          </mxGeometry>
        </mxCell>
        <mxCell id="76sIA1GjqkDgVSNy8QxX-5" value="" style="endArrow=none;html=1;rounded=0;" edge="1" parent="76sIA1GjqkDgVSNy8QxX-1">
          <mxGeometry width="50" height="50" relative="1" as="geometry">
            <mxPoint x="160" y="490" as="sourcePoint" />
            <mxPoint x="220" y="490" as="targetPoint" />
          </mxGeometry>
        </mxCell>
        <mxCell id="76sIA1GjqkDgVSNy8QxX-6" value="" style="endArrow=none;html=1;rounded=0;" edge="1" parent="76sIA1GjqkDgVSNy8QxX-1">
          <mxGeometry width="50" height="50" relative="1" as="geometry">
            <mxPoint x="165" y="500" as="sourcePoint" />
            <mxPoint x="215" y="500" as="targetPoint" />
          </mxGeometry>
        </mxCell>
        <mxCell id="76sIA1GjqkDgVSNy8QxX-7" value="" style="endArrow=classic;html=1;rounded=0;exitX=0;exitY=0.75;exitDx=0;exitDy=0;entryX=0.25;entryY=0;entryDx=0;entryDy=0;" edge="1" parent="76sIA1GjqkDgVSNy8QxX-1" source="76sIA1GjqkDgVSNy8QxX-2" target="76sIA1GjqkDgVSNy8QxX-10">
          <mxGeometry width="50" height="50" relative="1" as="geometry">
            <mxPoint x="260" y="220" as="sourcePoint" />
            <mxPoint x="160" y="470" as="targetPoint" />
          </mxGeometry>
        </mxCell>
        <mxCell id="76sIA1GjqkDgVSNy8QxX-8" value="" style="endArrow=classic;html=1;rounded=0;exitX=0.4;exitY=0.867;exitDx=0;exitDy=0;exitPerimeter=0;" edge="1" parent="76sIA1GjqkDgVSNy8QxX-1" source="76sIA1GjqkDgVSNy8QxX-3">
          <mxGeometry width="50" height="50" relative="1" as="geometry">
            <mxPoint x="540" y="313" as="sourcePoint" />
            <mxPoint x="210" y="470" as="targetPoint" />
          </mxGeometry>
        </mxCell>
        <mxCell id="HgSAyXbQTh1UPkB_ql0W-0" style="edgeStyle=orthogonalEdgeStyle;rounded=0;orthogonalLoop=1;jettySize=auto;html=1;" edge="1" parent="76sIA1GjqkDgVSNy8QxX-1" source="76sIA1GjqkDgVSNy8QxX-10">
          <mxGeometry relative="1" as="geometry">
            <mxPoint x="190" y="480" as="targetPoint" />
          </mxGeometry>
        </mxCell>
        <mxCell id="76sIA1GjqkDgVSNy8QxX-10" value="3" style="whiteSpace=wrap;html=1;aspect=fixed;fontSize=18;" vertex="1" parent="76sIA1GjqkDgVSNy8QxX-1">
          <mxGeometry x="150" y="300" width="80" height="80" as="geometry" />
        </mxCell>
      </root>
    </mxGraphModel>
  </diagram>
  <diagram name="etapa4.3" id="KoFKQQPsSgSPRuMkoxTt">
    <mxGraphModel dx="1434" dy="836" grid="1" gridSize="10" guides="1" tooltips="1" connect="1" arrows="1" fold="1" page="1" pageScale="1" pageWidth="827" pageHeight="1169" math="0" shadow="0">
      <root>
        <mxCell id="KkPjGdkdJhA31tyw1l1X-0" />
        <mxCell id="KkPjGdkdJhA31tyw1l1X-1" parent="KkPjGdkdJhA31tyw1l1X-0" />
        <mxCell id="KkPjGdkdJhA31tyw1l1X-2" value="INICIO" style="text;html=1;align=center;verticalAlign=middle;whiteSpace=wrap;rounded=0;strokeWidth=15;fontSize=18;" vertex="1" parent="KkPjGdkdJhA31tyw1l1X-1">
          <mxGeometry x="60" y="150" width="60" height="30" as="geometry" />
        </mxCell>
        <mxCell id="KkPjGdkdJhA31tyw1l1X-3" value="FIM" style="text;html=1;align=center;verticalAlign=middle;whiteSpace=wrap;rounded=0;strokeWidth=15;fontSize=18;" vertex="1" parent="KkPjGdkdJhA31tyw1l1X-1">
          <mxGeometry x="320" y="140" width="60" height="30" as="geometry" />
        </mxCell>
        <mxCell id="KkPjGdkdJhA31tyw1l1X-4" value="" style="endArrow=none;html=1;rounded=0;" edge="1" parent="KkPjGdkdJhA31tyw1l1X-1">
          <mxGeometry width="50" height="50" relative="1" as="geometry">
            <mxPoint x="150" y="480" as="sourcePoint" />
            <mxPoint x="230" y="480" as="targetPoint" />
          </mxGeometry>
        </mxCell>
        <mxCell id="KkPjGdkdJhA31tyw1l1X-5" value="" style="endArrow=none;html=1;rounded=0;" edge="1" parent="KkPjGdkdJhA31tyw1l1X-1">
          <mxGeometry width="50" height="50" relative="1" as="geometry">
            <mxPoint x="160" y="490" as="sourcePoint" />
            <mxPoint x="220" y="490" as="targetPoint" />
          </mxGeometry>
        </mxCell>
        <mxCell id="KkPjGdkdJhA31tyw1l1X-6" value="" style="endArrow=none;html=1;rounded=0;" edge="1" parent="KkPjGdkdJhA31tyw1l1X-1">
          <mxGeometry width="50" height="50" relative="1" as="geometry">
            <mxPoint x="165" y="500" as="sourcePoint" />
            <mxPoint x="215" y="500" as="targetPoint" />
          </mxGeometry>
        </mxCell>
        <mxCell id="KkPjGdkdJhA31tyw1l1X-7" value="" style="endArrow=classic;html=1;rounded=0;exitX=0;exitY=0.75;exitDx=0;exitDy=0;entryX=0.25;entryY=0;entryDx=0;entryDy=0;" edge="1" parent="KkPjGdkdJhA31tyw1l1X-1" source="KkPjGdkdJhA31tyw1l1X-2" target="KkPjGdkdJhA31tyw1l1X-10">
          <mxGeometry width="50" height="50" relative="1" as="geometry">
            <mxPoint x="260" y="220" as="sourcePoint" />
            <mxPoint x="160" y="470" as="targetPoint" />
          </mxGeometry>
        </mxCell>
        <mxCell id="KkPjGdkdJhA31tyw1l1X-8" value="" style="endArrow=classic;html=1;rounded=0;exitX=0.4;exitY=0.867;exitDx=0;exitDy=0;exitPerimeter=0;entryX=1;entryY=0;entryDx=0;entryDy=0;" edge="1" parent="KkPjGdkdJhA31tyw1l1X-1" source="KkPjGdkdJhA31tyw1l1X-3" target="KkPjGdkdJhA31tyw1l1X-10">
          <mxGeometry width="50" height="50" relative="1" as="geometry">
            <mxPoint x="540" y="313" as="sourcePoint" />
            <mxPoint x="210" y="470" as="targetPoint" />
          </mxGeometry>
        </mxCell>
        <mxCell id="KkPjGdkdJhA31tyw1l1X-9" style="edgeStyle=orthogonalEdgeStyle;rounded=0;orthogonalLoop=1;jettySize=auto;html=1;" edge="1" parent="KkPjGdkdJhA31tyw1l1X-1" source="KkPjGdkdJhA31tyw1l1X-10">
          <mxGeometry relative="1" as="geometry">
            <mxPoint x="190" y="480" as="targetPoint" />
          </mxGeometry>
        </mxCell>
        <mxCell id="KkPjGdkdJhA31tyw1l1X-10" value="3" style="whiteSpace=wrap;html=1;aspect=fixed;fontSize=18;" vertex="1" parent="KkPjGdkdJhA31tyw1l1X-1">
          <mxGeometry x="150" y="300" width="80" height="80" as="geometry" />
        </mxCell>
      </root>
    </mxGraphModel>
  </diagram>
  <diagram name="etapa5.1" id="LMSrXZh-J1sd7ddCl2_a">
    <mxGraphModel dx="1434" dy="836" grid="1" gridSize="10" guides="1" tooltips="1" connect="1" arrows="1" fold="1" page="1" pageScale="1" pageWidth="827" pageHeight="1169" math="0" shadow="0">
      <root>
        <mxCell id="9y6q9jOmZ2fHrzz2Ufni-0" />
        <mxCell id="9y6q9jOmZ2fHrzz2Ufni-1" parent="9y6q9jOmZ2fHrzz2Ufni-0" />
        <mxCell id="9y6q9jOmZ2fHrzz2Ufni-2" value="INICIO" style="text;html=1;align=center;verticalAlign=middle;whiteSpace=wrap;rounded=0;strokeWidth=15;fontSize=18;" vertex="1" parent="9y6q9jOmZ2fHrzz2Ufni-1">
          <mxGeometry x="60" y="150" width="60" height="30" as="geometry" />
        </mxCell>
        <mxCell id="9y6q9jOmZ2fHrzz2Ufni-3" value="FIM" style="text;html=1;align=center;verticalAlign=middle;whiteSpace=wrap;rounded=0;strokeWidth=15;fontSize=18;" vertex="1" parent="9y6q9jOmZ2fHrzz2Ufni-1">
          <mxGeometry x="320" y="140" width="60" height="30" as="geometry" />
        </mxCell>
        <mxCell id="9y6q9jOmZ2fHrzz2Ufni-4" value="" style="endArrow=none;html=1;rounded=0;" edge="1" parent="9y6q9jOmZ2fHrzz2Ufni-1">
          <mxGeometry width="50" height="50" relative="1" as="geometry">
            <mxPoint x="150" y="480" as="sourcePoint" />
            <mxPoint x="230" y="480" as="targetPoint" />
          </mxGeometry>
        </mxCell>
        <mxCell id="9y6q9jOmZ2fHrzz2Ufni-5" value="" style="endArrow=none;html=1;rounded=0;" edge="1" parent="9y6q9jOmZ2fHrzz2Ufni-1">
          <mxGeometry width="50" height="50" relative="1" as="geometry">
            <mxPoint x="160" y="490" as="sourcePoint" />
            <mxPoint x="220" y="490" as="targetPoint" />
          </mxGeometry>
        </mxCell>
        <mxCell id="9y6q9jOmZ2fHrzz2Ufni-6" value="" style="endArrow=none;html=1;rounded=0;" edge="1" parent="9y6q9jOmZ2fHrzz2Ufni-1">
          <mxGeometry width="50" height="50" relative="1" as="geometry">
            <mxPoint x="165" y="500" as="sourcePoint" />
            <mxPoint x="215" y="500" as="targetPoint" />
          </mxGeometry>
        </mxCell>
        <mxCell id="9y6q9jOmZ2fHrzz2Ufni-7" value="" style="endArrow=classic;html=1;rounded=0;exitX=0;exitY=0.75;exitDx=0;exitDy=0;entryX=0.25;entryY=0;entryDx=0;entryDy=0;" edge="1" parent="9y6q9jOmZ2fHrzz2Ufni-1" source="9y6q9jOmZ2fHrzz2Ufni-2" target="9y6q9jOmZ2fHrzz2Ufni-10">
          <mxGeometry width="50" height="50" relative="1" as="geometry">
            <mxPoint x="260" y="220" as="sourcePoint" />
            <mxPoint x="160" y="470" as="targetPoint" />
          </mxGeometry>
        </mxCell>
        <mxCell id="9y6q9jOmZ2fHrzz2Ufni-8" value="" style="endArrow=classic;html=1;rounded=0;exitX=0.4;exitY=0.867;exitDx=0;exitDy=0;exitPerimeter=0;entryX=1;entryY=0;entryDx=0;entryDy=0;" edge="1" parent="9y6q9jOmZ2fHrzz2Ufni-1" source="9y6q9jOmZ2fHrzz2Ufni-3" target="9y6q9jOmZ2fHrzz2Ufni-10">
          <mxGeometry width="50" height="50" relative="1" as="geometry">
            <mxPoint x="540" y="313" as="sourcePoint" />
            <mxPoint x="210" y="470" as="targetPoint" />
          </mxGeometry>
        </mxCell>
        <mxCell id="9y6q9jOmZ2fHrzz2Ufni-9" style="edgeStyle=orthogonalEdgeStyle;rounded=0;orthogonalLoop=1;jettySize=auto;html=1;" edge="1" parent="9y6q9jOmZ2fHrzz2Ufni-1" source="9y6q9jOmZ2fHrzz2Ufni-10">
          <mxGeometry relative="1" as="geometry">
            <mxPoint x="190" y="480" as="targetPoint" />
          </mxGeometry>
        </mxCell>
        <mxCell id="9y6q9jOmZ2fHrzz2Ufni-10" value="3" style="whiteSpace=wrap;html=1;aspect=fixed;fontSize=18;" vertex="1" parent="9y6q9jOmZ2fHrzz2Ufni-1">
          <mxGeometry x="150" y="300" width="80" height="80" as="geometry" />
        </mxCell>
        <mxCell id="7Hma6mM6K7PzBQXDLXjL-7" style="edgeStyle=orthogonalEdgeStyle;rounded=0;orthogonalLoop=1;jettySize=auto;html=1;" edge="1" parent="9y6q9jOmZ2fHrzz2Ufni-1" source="7Hma6mM6K7PzBQXDLXjL-0">
          <mxGeometry relative="1" as="geometry">
            <mxPoint x="550" y="330" as="targetPoint" />
          </mxGeometry>
        </mxCell>
        <mxCell id="7Hma6mM6K7PzBQXDLXjL-0" value="2" style="whiteSpace=wrap;html=1;aspect=fixed;fontSize=18;" vertex="1" parent="9y6q9jOmZ2fHrzz2Ufni-1">
          <mxGeometry x="510" y="180" width="80" height="80" as="geometry" />
        </mxCell>
        <mxCell id="7Hma6mM6K7PzBQXDLXjL-4" value="" style="endArrow=none;html=1;rounded=0;" edge="1" parent="9y6q9jOmZ2fHrzz2Ufni-1">
          <mxGeometry width="50" height="50" relative="1" as="geometry">
            <mxPoint x="510" y="340" as="sourcePoint" />
            <mxPoint x="590" y="340" as="targetPoint" />
          </mxGeometry>
        </mxCell>
        <mxCell id="7Hma6mM6K7PzBQXDLXjL-5" value="" style="endArrow=none;html=1;rounded=0;" edge="1" parent="9y6q9jOmZ2fHrzz2Ufni-1">
          <mxGeometry width="50" height="50" relative="1" as="geometry">
            <mxPoint x="520" y="350" as="sourcePoint" />
            <mxPoint x="580" y="350" as="targetPoint" />
          </mxGeometry>
        </mxCell>
        <mxCell id="7Hma6mM6K7PzBQXDLXjL-6" value="" style="endArrow=none;html=1;rounded=0;" edge="1" parent="9y6q9jOmZ2fHrzz2Ufni-1">
          <mxGeometry width="50" height="50" relative="1" as="geometry">
            <mxPoint x="525" y="360" as="sourcePoint" />
            <mxPoint x="575" y="360" as="targetPoint" />
          </mxGeometry>
        </mxCell>
      </root>
    </mxGraphModel>
  </diagram>
  <diagram name="etapa5.2" id="KEF8lYF8LvUgwcLb1h-Y">
    <mxGraphModel dx="1434" dy="836" grid="1" gridSize="10" guides="1" tooltips="1" connect="1" arrows="1" fold="1" page="1" pageScale="1" pageWidth="827" pageHeight="1169" math="0" shadow="0">
      <root>
        <mxCell id="7mQnjs1XW_fqdk5Yuzia-0" />
        <mxCell id="7mQnjs1XW_fqdk5Yuzia-1" parent="7mQnjs1XW_fqdk5Yuzia-0" />
        <mxCell id="7mQnjs1XW_fqdk5Yuzia-2" value="INICIO" style="text;html=1;align=center;verticalAlign=middle;whiteSpace=wrap;rounded=0;strokeWidth=15;fontSize=18;" vertex="1" parent="7mQnjs1XW_fqdk5Yuzia-1">
          <mxGeometry x="60" y="150" width="60" height="30" as="geometry" />
        </mxCell>
        <mxCell id="7mQnjs1XW_fqdk5Yuzia-3" value="FIM" style="text;html=1;align=center;verticalAlign=middle;whiteSpace=wrap;rounded=0;strokeWidth=15;fontSize=18;" vertex="1" parent="7mQnjs1XW_fqdk5Yuzia-1">
          <mxGeometry x="320" y="140" width="60" height="30" as="geometry" />
        </mxCell>
        <mxCell id="7mQnjs1XW_fqdk5Yuzia-7" value="" style="endArrow=classic;html=1;rounded=0;exitX=0;exitY=0.75;exitDx=0;exitDy=0;entryX=0.25;entryY=0;entryDx=0;entryDy=0;" edge="1" parent="7mQnjs1XW_fqdk5Yuzia-1" source="7mQnjs1XW_fqdk5Yuzia-2" target="7mQnjs1XW_fqdk5Yuzia-10">
          <mxGeometry width="50" height="50" relative="1" as="geometry">
            <mxPoint x="260" y="220" as="sourcePoint" />
            <mxPoint x="160" y="470" as="targetPoint" />
          </mxGeometry>
        </mxCell>
        <mxCell id="7mQnjs1XW_fqdk5Yuzia-8" value="" style="endArrow=classic;html=1;rounded=0;exitX=0.4;exitY=0.867;exitDx=0;exitDy=0;exitPerimeter=0;entryX=1;entryY=0;entryDx=0;entryDy=0;" edge="1" parent="7mQnjs1XW_fqdk5Yuzia-1" source="7mQnjs1XW_fqdk5Yuzia-3" target="7mQnjs1XW_fqdk5Yuzia-10">
          <mxGeometry width="50" height="50" relative="1" as="geometry">
            <mxPoint x="540" y="313" as="sourcePoint" />
            <mxPoint x="210" y="470" as="targetPoint" />
          </mxGeometry>
        </mxCell>
        <mxCell id="PujY1FpLlf7yelloS2h3-0" style="edgeStyle=orthogonalEdgeStyle;rounded=0;orthogonalLoop=1;jettySize=auto;html=1;entryX=0;entryY=0.5;entryDx=0;entryDy=0;" edge="1" parent="7mQnjs1XW_fqdk5Yuzia-1" source="7mQnjs1XW_fqdk5Yuzia-10" target="7mQnjs1XW_fqdk5Yuzia-12">
          <mxGeometry relative="1" as="geometry" />
        </mxCell>
        <mxCell id="7mQnjs1XW_fqdk5Yuzia-10" value="3" style="whiteSpace=wrap;html=1;aspect=fixed;fontSize=18;" vertex="1" parent="7mQnjs1XW_fqdk5Yuzia-1">
          <mxGeometry x="150" y="300" width="80" height="80" as="geometry" />
        </mxCell>
        <mxCell id="7mQnjs1XW_fqdk5Yuzia-11" style="edgeStyle=orthogonalEdgeStyle;rounded=0;orthogonalLoop=1;jettySize=auto;html=1;" edge="1" parent="7mQnjs1XW_fqdk5Yuzia-1" source="7mQnjs1XW_fqdk5Yuzia-12">
          <mxGeometry relative="1" as="geometry">
            <mxPoint x="590" y="450" as="targetPoint" />
          </mxGeometry>
        </mxCell>
        <mxCell id="7mQnjs1XW_fqdk5Yuzia-12" value="2" style="whiteSpace=wrap;html=1;aspect=fixed;fontSize=18;" vertex="1" parent="7mQnjs1XW_fqdk5Yuzia-1">
          <mxGeometry x="550" y="300" width="80" height="80" as="geometry" />
        </mxCell>
        <mxCell id="7mQnjs1XW_fqdk5Yuzia-13" value="" style="endArrow=none;html=1;rounded=0;" edge="1" parent="7mQnjs1XW_fqdk5Yuzia-1">
          <mxGeometry width="50" height="50" relative="1" as="geometry">
            <mxPoint x="550" y="460" as="sourcePoint" />
            <mxPoint x="630" y="460" as="targetPoint" />
          </mxGeometry>
        </mxCell>
        <mxCell id="7mQnjs1XW_fqdk5Yuzia-14" value="" style="endArrow=none;html=1;rounded=0;" edge="1" parent="7mQnjs1XW_fqdk5Yuzia-1">
          <mxGeometry width="50" height="50" relative="1" as="geometry">
            <mxPoint x="560" y="470" as="sourcePoint" />
            <mxPoint x="620" y="470" as="targetPoint" />
          </mxGeometry>
        </mxCell>
        <mxCell id="7mQnjs1XW_fqdk5Yuzia-15" value="" style="endArrow=none;html=1;rounded=0;" edge="1" parent="7mQnjs1XW_fqdk5Yuzia-1">
          <mxGeometry width="50" height="50" relative="1" as="geometry">
            <mxPoint x="565" y="480" as="sourcePoint" />
            <mxPoint x="615" y="480" as="targetPoint" />
          </mxGeometry>
        </mxCell>
      </root>
    </mxGraphModel>
  </diagram>
  <diagram name="etapa5.3" id="o8x_-zKx4qXzjcoHVrKQ">
    <mxGraphModel dx="1434" dy="836" grid="1" gridSize="10" guides="1" tooltips="1" connect="1" arrows="1" fold="1" page="1" pageScale="1" pageWidth="827" pageHeight="1169" math="0" shadow="0">
      <root>
        <mxCell id="Uww0oARLktl5g7cwUxWn-0" />
        <mxCell id="Uww0oARLktl5g7cwUxWn-1" parent="Uww0oARLktl5g7cwUxWn-0" />
        <mxCell id="Uww0oARLktl5g7cwUxWn-2" value="INICIO" style="text;html=1;align=center;verticalAlign=middle;whiteSpace=wrap;rounded=0;strokeWidth=15;fontSize=18;" vertex="1" parent="Uww0oARLktl5g7cwUxWn-1">
          <mxGeometry x="60" y="150" width="60" height="30" as="geometry" />
        </mxCell>
        <mxCell id="Uww0oARLktl5g7cwUxWn-3" value="FIM" style="text;html=1;align=center;verticalAlign=middle;whiteSpace=wrap;rounded=0;strokeWidth=15;fontSize=18;" vertex="1" parent="Uww0oARLktl5g7cwUxWn-1">
          <mxGeometry x="320" y="140" width="60" height="30" as="geometry" />
        </mxCell>
        <mxCell id="Uww0oARLktl5g7cwUxWn-4" value="" style="endArrow=classic;html=1;rounded=0;exitX=0;exitY=0.75;exitDx=0;exitDy=0;entryX=0.25;entryY=0;entryDx=0;entryDy=0;" edge="1" parent="Uww0oARLktl5g7cwUxWn-1" source="Uww0oARLktl5g7cwUxWn-2" target="Uww0oARLktl5g7cwUxWn-7">
          <mxGeometry width="50" height="50" relative="1" as="geometry">
            <mxPoint x="260" y="220" as="sourcePoint" />
            <mxPoint x="160" y="470" as="targetPoint" />
          </mxGeometry>
        </mxCell>
        <mxCell id="Uww0oARLktl5g7cwUxWn-5" value="" style="endArrow=classic;html=1;rounded=0;exitX=0.4;exitY=0.867;exitDx=0;exitDy=0;exitPerimeter=0;entryX=0;entryY=0;entryDx=0;entryDy=0;" edge="1" parent="Uww0oARLktl5g7cwUxWn-1" source="Uww0oARLktl5g7cwUxWn-3" target="Uww0oARLktl5g7cwUxWn-9">
          <mxGeometry width="50" height="50" relative="1" as="geometry">
            <mxPoint x="540" y="313" as="sourcePoint" />
            <mxPoint x="210" y="470" as="targetPoint" />
          </mxGeometry>
        </mxCell>
        <mxCell id="Uww0oARLktl5g7cwUxWn-6" style="edgeStyle=orthogonalEdgeStyle;rounded=0;orthogonalLoop=1;jettySize=auto;html=1;entryX=0;entryY=0.5;entryDx=0;entryDy=0;" edge="1" parent="Uww0oARLktl5g7cwUxWn-1" source="Uww0oARLktl5g7cwUxWn-7" target="Uww0oARLktl5g7cwUxWn-9">
          <mxGeometry relative="1" as="geometry" />
        </mxCell>
        <mxCell id="Uww0oARLktl5g7cwUxWn-7" value="3" style="whiteSpace=wrap;html=1;aspect=fixed;fontSize=18;" vertex="1" parent="Uww0oARLktl5g7cwUxWn-1">
          <mxGeometry x="150" y="300" width="80" height="80" as="geometry" />
        </mxCell>
        <mxCell id="Uww0oARLktl5g7cwUxWn-8" style="edgeStyle=orthogonalEdgeStyle;rounded=0;orthogonalLoop=1;jettySize=auto;html=1;" edge="1" parent="Uww0oARLktl5g7cwUxWn-1" source="Uww0oARLktl5g7cwUxWn-9">
          <mxGeometry relative="1" as="geometry">
            <mxPoint x="590" y="450" as="targetPoint" />
          </mxGeometry>
        </mxCell>
        <mxCell id="Uww0oARLktl5g7cwUxWn-9" value="2" style="whiteSpace=wrap;html=1;aspect=fixed;fontSize=18;" vertex="1" parent="Uww0oARLktl5g7cwUxWn-1">
          <mxGeometry x="550" y="300" width="80" height="80" as="geometry" />
        </mxCell>
        <mxCell id="Uww0oARLktl5g7cwUxWn-10" value="" style="endArrow=none;html=1;rounded=0;" edge="1" parent="Uww0oARLktl5g7cwUxWn-1">
          <mxGeometry width="50" height="50" relative="1" as="geometry">
            <mxPoint x="550" y="460" as="sourcePoint" />
            <mxPoint x="630" y="460" as="targetPoint" />
          </mxGeometry>
        </mxCell>
        <mxCell id="Uww0oARLktl5g7cwUxWn-11" value="" style="endArrow=none;html=1;rounded=0;" edge="1" parent="Uww0oARLktl5g7cwUxWn-1">
          <mxGeometry width="50" height="50" relative="1" as="geometry">
            <mxPoint x="560" y="470" as="sourcePoint" />
            <mxPoint x="620" y="470" as="targetPoint" />
          </mxGeometry>
        </mxCell>
        <mxCell id="Uww0oARLktl5g7cwUxWn-12" value="" style="endArrow=none;html=1;rounded=0;" edge="1" parent="Uww0oARLktl5g7cwUxWn-1">
          <mxGeometry width="50" height="50" relative="1" as="geometry">
            <mxPoint x="565" y="480" as="sourcePoint" />
            <mxPoint x="615" y="480" as="targetPoint" />
          </mxGeometry>
        </mxCell>
      </root>
    </mxGraphModel>
  </diagram>
  <diagram name="etapa6.1" id="esiOTytXwXlGoZ7xC3c2">
    <mxGraphModel dx="1434" dy="836" grid="1" gridSize="10" guides="1" tooltips="1" connect="1" arrows="1" fold="1" page="1" pageScale="1" pageWidth="827" pageHeight="1169" math="0" shadow="0">
      <root>
        <mxCell id="sfCOkUR7L35Kkxu9-2V5-0" />
        <mxCell id="sfCOkUR7L35Kkxu9-2V5-1" parent="sfCOkUR7L35Kkxu9-2V5-0" />
        <mxCell id="sfCOkUR7L35Kkxu9-2V5-2" value="INICIO" style="text;html=1;align=center;verticalAlign=middle;whiteSpace=wrap;rounded=0;strokeWidth=15;fontSize=18;" vertex="1" parent="sfCOkUR7L35Kkxu9-2V5-1">
          <mxGeometry x="60" y="150" width="60" height="30" as="geometry" />
        </mxCell>
        <mxCell id="sfCOkUR7L35Kkxu9-2V5-3" value="FIM" style="text;html=1;align=center;verticalAlign=middle;whiteSpace=wrap;rounded=0;strokeWidth=15;fontSize=18;" vertex="1" parent="sfCOkUR7L35Kkxu9-2V5-1">
          <mxGeometry x="320" y="140" width="60" height="30" as="geometry" />
        </mxCell>
        <mxCell id="sfCOkUR7L35Kkxu9-2V5-4" value="" style="endArrow=classic;html=1;rounded=0;exitX=0;exitY=0.75;exitDx=0;exitDy=0;entryX=0.25;entryY=0;entryDx=0;entryDy=0;" edge="1" parent="sfCOkUR7L35Kkxu9-2V5-1" source="sfCOkUR7L35Kkxu9-2V5-2" target="sfCOkUR7L35Kkxu9-2V5-7">
          <mxGeometry width="50" height="50" relative="1" as="geometry">
            <mxPoint x="260" y="220" as="sourcePoint" />
            <mxPoint x="160" y="470" as="targetPoint" />
          </mxGeometry>
        </mxCell>
        <mxCell id="sfCOkUR7L35Kkxu9-2V5-5" value="" style="endArrow=classic;html=1;rounded=0;exitX=0.4;exitY=0.867;exitDx=0;exitDy=0;exitPerimeter=0;entryX=0;entryY=0;entryDx=0;entryDy=0;" edge="1" parent="sfCOkUR7L35Kkxu9-2V5-1" source="sfCOkUR7L35Kkxu9-2V5-3" target="sfCOkUR7L35Kkxu9-2V5-9">
          <mxGeometry width="50" height="50" relative="1" as="geometry">
            <mxPoint x="540" y="313" as="sourcePoint" />
            <mxPoint x="210" y="470" as="targetPoint" />
          </mxGeometry>
        </mxCell>
        <mxCell id="sfCOkUR7L35Kkxu9-2V5-6" style="edgeStyle=orthogonalEdgeStyle;rounded=0;orthogonalLoop=1;jettySize=auto;html=1;entryX=0;entryY=0.5;entryDx=0;entryDy=0;" edge="1" parent="sfCOkUR7L35Kkxu9-2V5-1" source="sfCOkUR7L35Kkxu9-2V5-7" target="sfCOkUR7L35Kkxu9-2V5-9">
          <mxGeometry relative="1" as="geometry" />
        </mxCell>
        <mxCell id="sfCOkUR7L35Kkxu9-2V5-7" value="3" style="whiteSpace=wrap;html=1;aspect=fixed;fontSize=18;" vertex="1" parent="sfCOkUR7L35Kkxu9-2V5-1">
          <mxGeometry x="150" y="300" width="80" height="80" as="geometry" />
        </mxCell>
        <mxCell id="sfCOkUR7L35Kkxu9-2V5-8" style="edgeStyle=orthogonalEdgeStyle;rounded=0;orthogonalLoop=1;jettySize=auto;html=1;" edge="1" parent="sfCOkUR7L35Kkxu9-2V5-1" source="sfCOkUR7L35Kkxu9-2V5-9">
          <mxGeometry relative="1" as="geometry">
            <mxPoint x="590" y="450" as="targetPoint" />
          </mxGeometry>
        </mxCell>
        <mxCell id="sfCOkUR7L35Kkxu9-2V5-9" value="2" style="whiteSpace=wrap;html=1;aspect=fixed;fontSize=18;" vertex="1" parent="sfCOkUR7L35Kkxu9-2V5-1">
          <mxGeometry x="550" y="300" width="80" height="80" as="geometry" />
        </mxCell>
        <mxCell id="sfCOkUR7L35Kkxu9-2V5-10" value="" style="endArrow=none;html=1;rounded=0;" edge="1" parent="sfCOkUR7L35Kkxu9-2V5-1">
          <mxGeometry width="50" height="50" relative="1" as="geometry">
            <mxPoint x="550" y="460" as="sourcePoint" />
            <mxPoint x="630" y="460" as="targetPoint" />
          </mxGeometry>
        </mxCell>
        <mxCell id="sfCOkUR7L35Kkxu9-2V5-11" value="" style="endArrow=none;html=1;rounded=0;" edge="1" parent="sfCOkUR7L35Kkxu9-2V5-1">
          <mxGeometry width="50" height="50" relative="1" as="geometry">
            <mxPoint x="560" y="470" as="sourcePoint" />
            <mxPoint x="620" y="470" as="targetPoint" />
          </mxGeometry>
        </mxCell>
        <mxCell id="sfCOkUR7L35Kkxu9-2V5-12" value="" style="endArrow=none;html=1;rounded=0;" edge="1" parent="sfCOkUR7L35Kkxu9-2V5-1">
          <mxGeometry width="50" height="50" relative="1" as="geometry">
            <mxPoint x="565" y="480" as="sourcePoint" />
            <mxPoint x="615" y="480" as="targetPoint" />
          </mxGeometry>
        </mxCell>
        <mxCell id="vHCkIIGtFpE0gcAlbJo7-0" value="aux" style="text;html=1;align=center;verticalAlign=middle;whiteSpace=wrap;rounded=0;fontSize=18;" vertex="1" parent="sfCOkUR7L35Kkxu9-2V5-1">
          <mxGeometry x="170" y="180" width="60" height="30" as="geometry" />
        </mxCell>
        <mxCell id="vHCkIIGtFpE0gcAlbJo7-2" style="edgeStyle=orthogonalEdgeStyle;rounded=0;orthogonalLoop=1;jettySize=auto;html=1;" edge="1" parent="sfCOkUR7L35Kkxu9-2V5-1" source="vHCkIIGtFpE0gcAlbJo7-0">
          <mxGeometry relative="1" as="geometry">
            <mxPoint x="200" y="300" as="targetPoint" />
            <Array as="points">
              <mxPoint x="200" y="240" />
              <mxPoint x="200" y="240" />
            </Array>
          </mxGeometry>
        </mxCell>
      </root>
    </mxGraphModel>
  </diagram>
  <diagram name="etapa6.2" id="z8-Fx6n9QoLx66lXhyHj">
    <mxGraphModel dx="1434" dy="836" grid="1" gridSize="10" guides="1" tooltips="1" connect="1" arrows="1" fold="1" page="1" pageScale="1" pageWidth="827" pageHeight="1169" math="0" shadow="0">
      <root>
        <mxCell id="4JbQdeY1jnvrFk0qO1KY-0" />
        <mxCell id="4JbQdeY1jnvrFk0qO1KY-1" parent="4JbQdeY1jnvrFk0qO1KY-0" />
        <mxCell id="4JbQdeY1jnvrFk0qO1KY-2" value="INICIO" style="text;html=1;align=center;verticalAlign=middle;whiteSpace=wrap;rounded=0;strokeWidth=15;fontSize=18;" vertex="1" parent="4JbQdeY1jnvrFk0qO1KY-1">
          <mxGeometry x="250" y="150" width="60" height="30" as="geometry" />
        </mxCell>
        <mxCell id="4JbQdeY1jnvrFk0qO1KY-3" value="FIM" style="text;html=1;align=center;verticalAlign=middle;whiteSpace=wrap;rounded=0;strokeWidth=15;fontSize=18;" vertex="1" parent="4JbQdeY1jnvrFk0qO1KY-1">
          <mxGeometry x="320" y="140" width="60" height="30" as="geometry" />
        </mxCell>
        <mxCell id="4JbQdeY1jnvrFk0qO1KY-4" value="" style="endArrow=classic;html=1;rounded=0;exitX=0;exitY=0.75;exitDx=0;exitDy=0;entryX=0;entryY=0.25;entryDx=0;entryDy=0;" edge="1" parent="4JbQdeY1jnvrFk0qO1KY-1" source="4JbQdeY1jnvrFk0qO1KY-2" target="4JbQdeY1jnvrFk0qO1KY-9">
          <mxGeometry width="50" height="50" relative="1" as="geometry">
            <mxPoint x="260" y="220" as="sourcePoint" />
            <mxPoint x="160" y="470" as="targetPoint" />
          </mxGeometry>
        </mxCell>
        <mxCell id="4JbQdeY1jnvrFk0qO1KY-5" value="" style="endArrow=classic;html=1;rounded=0;exitX=0.4;exitY=0.867;exitDx=0;exitDy=0;exitPerimeter=0;entryX=0;entryY=0;entryDx=0;entryDy=0;" edge="1" parent="4JbQdeY1jnvrFk0qO1KY-1" source="4JbQdeY1jnvrFk0qO1KY-3" target="4JbQdeY1jnvrFk0qO1KY-9">
          <mxGeometry width="50" height="50" relative="1" as="geometry">
            <mxPoint x="540" y="313" as="sourcePoint" />
            <mxPoint x="210" y="470" as="targetPoint" />
          </mxGeometry>
        </mxCell>
        <mxCell id="4JbQdeY1jnvrFk0qO1KY-6" style="edgeStyle=orthogonalEdgeStyle;rounded=0;orthogonalLoop=1;jettySize=auto;html=1;entryX=0;entryY=0.5;entryDx=0;entryDy=0;" edge="1" parent="4JbQdeY1jnvrFk0qO1KY-1" source="4JbQdeY1jnvrFk0qO1KY-7" target="4JbQdeY1jnvrFk0qO1KY-9">
          <mxGeometry relative="1" as="geometry" />
        </mxCell>
        <mxCell id="4JbQdeY1jnvrFk0qO1KY-7" value="3" style="whiteSpace=wrap;html=1;aspect=fixed;fontSize=18;" vertex="1" parent="4JbQdeY1jnvrFk0qO1KY-1">
          <mxGeometry x="150" y="300" width="80" height="80" as="geometry" />
        </mxCell>
        <mxCell id="4JbQdeY1jnvrFk0qO1KY-8" style="edgeStyle=orthogonalEdgeStyle;rounded=0;orthogonalLoop=1;jettySize=auto;html=1;" edge="1" parent="4JbQdeY1jnvrFk0qO1KY-1" source="4JbQdeY1jnvrFk0qO1KY-9">
          <mxGeometry relative="1" as="geometry">
            <mxPoint x="590" y="450" as="targetPoint" />
          </mxGeometry>
        </mxCell>
        <mxCell id="4JbQdeY1jnvrFk0qO1KY-9" value="2" style="whiteSpace=wrap;html=1;aspect=fixed;fontSize=18;" vertex="1" parent="4JbQdeY1jnvrFk0qO1KY-1">
          <mxGeometry x="550" y="300" width="80" height="80" as="geometry" />
        </mxCell>
        <mxCell id="4JbQdeY1jnvrFk0qO1KY-10" value="" style="endArrow=none;html=1;rounded=0;" edge="1" parent="4JbQdeY1jnvrFk0qO1KY-1">
          <mxGeometry width="50" height="50" relative="1" as="geometry">
            <mxPoint x="550" y="460" as="sourcePoint" />
            <mxPoint x="630" y="460" as="targetPoint" />
          </mxGeometry>
        </mxCell>
        <mxCell id="4JbQdeY1jnvrFk0qO1KY-11" value="" style="endArrow=none;html=1;rounded=0;" edge="1" parent="4JbQdeY1jnvrFk0qO1KY-1">
          <mxGeometry width="50" height="50" relative="1" as="geometry">
            <mxPoint x="560" y="470" as="sourcePoint" />
            <mxPoint x="620" y="470" as="targetPoint" />
          </mxGeometry>
        </mxCell>
        <mxCell id="4JbQdeY1jnvrFk0qO1KY-12" value="" style="endArrow=none;html=1;rounded=0;" edge="1" parent="4JbQdeY1jnvrFk0qO1KY-1">
          <mxGeometry width="50" height="50" relative="1" as="geometry">
            <mxPoint x="565" y="480" as="sourcePoint" />
            <mxPoint x="615" y="480" as="targetPoint" />
          </mxGeometry>
        </mxCell>
        <mxCell id="4JbQdeY1jnvrFk0qO1KY-13" value="aux" style="text;html=1;align=center;verticalAlign=middle;whiteSpace=wrap;rounded=0;fontSize=18;" vertex="1" parent="4JbQdeY1jnvrFk0qO1KY-1">
          <mxGeometry x="170" y="180" width="60" height="30" as="geometry" />
        </mxCell>
        <mxCell id="4JbQdeY1jnvrFk0qO1KY-14" style="edgeStyle=orthogonalEdgeStyle;rounded=0;orthogonalLoop=1;jettySize=auto;html=1;" edge="1" parent="4JbQdeY1jnvrFk0qO1KY-1" source="4JbQdeY1jnvrFk0qO1KY-13">
          <mxGeometry relative="1" as="geometry">
            <mxPoint x="200" y="300" as="targetPoint" />
            <Array as="points">
              <mxPoint x="200" y="240" />
              <mxPoint x="200" y="240" />
            </Array>
          </mxGeometry>
        </mxCell>
      </root>
    </mxGraphModel>
  </diagram>
  <diagram name="etapa6.3" id="ZI_-pBz0UeHIzkMlookB">
    <mxGraphModel dx="1434" dy="836" grid="1" gridSize="10" guides="1" tooltips="1" connect="1" arrows="1" fold="1" page="1" pageScale="1" pageWidth="827" pageHeight="1169" math="0" shadow="0">
      <root>
        <mxCell id="SA0Z0aKf4-ODIDlckWRK-0" />
        <mxCell id="SA0Z0aKf4-ODIDlckWRK-1" parent="SA0Z0aKf4-ODIDlckWRK-0" />
        <mxCell id="SA0Z0aKf4-ODIDlckWRK-2" value="INICIO" style="text;html=1;align=center;verticalAlign=middle;whiteSpace=wrap;rounded=0;strokeWidth=15;fontSize=18;" vertex="1" parent="SA0Z0aKf4-ODIDlckWRK-1">
          <mxGeometry x="250" y="150" width="60" height="30" as="geometry" />
        </mxCell>
        <mxCell id="SA0Z0aKf4-ODIDlckWRK-3" value="FIM" style="text;html=1;align=center;verticalAlign=middle;whiteSpace=wrap;rounded=0;strokeWidth=15;fontSize=18;" vertex="1" parent="SA0Z0aKf4-ODIDlckWRK-1">
          <mxGeometry x="320" y="140" width="60" height="30" as="geometry" />
        </mxCell>
        <mxCell id="SA0Z0aKf4-ODIDlckWRK-4" value="" style="endArrow=classic;html=1;rounded=0;exitX=0;exitY=0.75;exitDx=0;exitDy=0;entryX=0;entryY=0.25;entryDx=0;entryDy=0;" edge="1" parent="SA0Z0aKf4-ODIDlckWRK-1" source="SA0Z0aKf4-ODIDlckWRK-2" target="SA0Z0aKf4-ODIDlckWRK-9">
          <mxGeometry width="50" height="50" relative="1" as="geometry">
            <mxPoint x="260" y="220" as="sourcePoint" />
            <mxPoint x="160" y="470" as="targetPoint" />
          </mxGeometry>
        </mxCell>
        <mxCell id="SA0Z0aKf4-ODIDlckWRK-5" value="" style="endArrow=classic;html=1;rounded=0;exitX=0.4;exitY=0.867;exitDx=0;exitDy=0;exitPerimeter=0;entryX=0;entryY=0;entryDx=0;entryDy=0;" edge="1" parent="SA0Z0aKf4-ODIDlckWRK-1" source="SA0Z0aKf4-ODIDlckWRK-3" target="SA0Z0aKf4-ODIDlckWRK-9">
          <mxGeometry width="50" height="50" relative="1" as="geometry">
            <mxPoint x="540" y="313" as="sourcePoint" />
            <mxPoint x="210" y="470" as="targetPoint" />
          </mxGeometry>
        </mxCell>
        <mxCell id="SA0Z0aKf4-ODIDlckWRK-6" style="edgeStyle=orthogonalEdgeStyle;rounded=0;orthogonalLoop=1;jettySize=auto;html=1;entryX=0;entryY=0.5;entryDx=0;entryDy=0;" edge="1" parent="SA0Z0aKf4-ODIDlckWRK-1" source="SA0Z0aKf4-ODIDlckWRK-7" target="SA0Z0aKf4-ODIDlckWRK-9">
          <mxGeometry relative="1" as="geometry" />
        </mxCell>
        <mxCell id="SA0Z0aKf4-ODIDlckWRK-7" value="3" style="whiteSpace=wrap;html=1;aspect=fixed;fontSize=18;" vertex="1" parent="SA0Z0aKf4-ODIDlckWRK-1">
          <mxGeometry x="150" y="300" width="80" height="80" as="geometry" />
        </mxCell>
        <mxCell id="SA0Z0aKf4-ODIDlckWRK-8" style="edgeStyle=orthogonalEdgeStyle;rounded=0;orthogonalLoop=1;jettySize=auto;html=1;" edge="1" parent="SA0Z0aKf4-ODIDlckWRK-1" source="SA0Z0aKf4-ODIDlckWRK-9">
          <mxGeometry relative="1" as="geometry">
            <mxPoint x="590" y="450" as="targetPoint" />
          </mxGeometry>
        </mxCell>
        <mxCell id="SA0Z0aKf4-ODIDlckWRK-9" value="2" style="whiteSpace=wrap;html=1;aspect=fixed;fontSize=18;" vertex="1" parent="SA0Z0aKf4-ODIDlckWRK-1">
          <mxGeometry x="550" y="300" width="80" height="80" as="geometry" />
        </mxCell>
        <mxCell id="SA0Z0aKf4-ODIDlckWRK-10" value="" style="endArrow=none;html=1;rounded=0;" edge="1" parent="SA0Z0aKf4-ODIDlckWRK-1">
          <mxGeometry width="50" height="50" relative="1" as="geometry">
            <mxPoint x="550" y="460" as="sourcePoint" />
            <mxPoint x="630" y="460" as="targetPoint" />
          </mxGeometry>
        </mxCell>
        <mxCell id="SA0Z0aKf4-ODIDlckWRK-11" value="" style="endArrow=none;html=1;rounded=0;" edge="1" parent="SA0Z0aKf4-ODIDlckWRK-1">
          <mxGeometry width="50" height="50" relative="1" as="geometry">
            <mxPoint x="560" y="470" as="sourcePoint" />
            <mxPoint x="620" y="470" as="targetPoint" />
          </mxGeometry>
        </mxCell>
        <mxCell id="SA0Z0aKf4-ODIDlckWRK-12" value="" style="endArrow=none;html=1;rounded=0;" edge="1" parent="SA0Z0aKf4-ODIDlckWRK-1">
          <mxGeometry width="50" height="50" relative="1" as="geometry">
            <mxPoint x="565" y="480" as="sourcePoint" />
            <mxPoint x="615" y="480" as="targetPoint" />
          </mxGeometry>
        </mxCell>
        <mxCell id="SA0Z0aKf4-ODIDlckWRK-13" value="aux" style="text;html=1;align=center;verticalAlign=middle;whiteSpace=wrap;rounded=0;fontSize=18;" vertex="1" parent="SA0Z0aKf4-ODIDlckWRK-1">
          <mxGeometry x="170" y="180" width="60" height="30" as="geometry" />
        </mxCell>
        <mxCell id="SA0Z0aKf4-ODIDlckWRK-14" style="edgeStyle=orthogonalEdgeStyle;rounded=0;orthogonalLoop=1;jettySize=auto;html=1;" edge="1" parent="SA0Z0aKf4-ODIDlckWRK-1" source="SA0Z0aKf4-ODIDlckWRK-13">
          <mxGeometry relative="1" as="geometry">
            <mxPoint x="200" y="300" as="targetPoint" />
            <Array as="points">
              <mxPoint x="200" y="240" />
              <mxPoint x="200" y="240" />
            </Array>
          </mxGeometry>
        </mxCell>
        <mxCell id="4Qvrv7l-Abf7IPgYLB7M-0" value="" style="shape=cross;whiteSpace=wrap;html=1;rotation=45;fillColor=#a20025;fontColor=#ffffff;strokeColor=#6F0000;" vertex="1" parent="SA0Z0aKf4-ODIDlckWRK-1">
          <mxGeometry x="150" y="300" width="80" height="80" as="geometry" />
        </mxCell>
      </root>
    </mxGraphModel>
  </diagram>
  <diagram name="etapa7.1" id="slvhOb25QI_nElTwMLat">
    <mxGraphModel dx="1434" dy="836" grid="1" gridSize="10" guides="1" tooltips="1" connect="1" arrows="1" fold="1" page="1" pageScale="1" pageWidth="827" pageHeight="1169" math="0" shadow="0">
      <root>
        <mxCell id="E-S4JV3uEw0Bndc_zRU0-0" />
        <mxCell id="E-S4JV3uEw0Bndc_zRU0-1" parent="E-S4JV3uEw0Bndc_zRU0-0" />
        <mxCell id="E-S4JV3uEw0Bndc_zRU0-2" value="INICIO" style="text;html=1;align=center;verticalAlign=middle;whiteSpace=wrap;rounded=0;strokeWidth=15;fontSize=18;" vertex="1" parent="E-S4JV3uEw0Bndc_zRU0-1">
          <mxGeometry x="80" y="130" width="60" height="30" as="geometry" />
        </mxCell>
        <mxCell id="E-S4JV3uEw0Bndc_zRU0-3" value="FIM" style="text;html=1;align=center;verticalAlign=middle;whiteSpace=wrap;rounded=0;strokeWidth=15;fontSize=18;" vertex="1" parent="E-S4JV3uEw0Bndc_zRU0-1">
          <mxGeometry x="190" y="140" width="60" height="30" as="geometry" />
        </mxCell>
        <mxCell id="E-S4JV3uEw0Bndc_zRU0-4" value="" style="endArrow=classic;html=1;rounded=0;exitX=0.383;exitY=0.933;exitDx=0;exitDy=0;entryX=0.25;entryY=0;entryDx=0;entryDy=0;exitPerimeter=0;" edge="1" parent="E-S4JV3uEw0Bndc_zRU0-1" source="E-S4JV3uEw0Bndc_zRU0-2" target="E-S4JV3uEw0Bndc_zRU0-9">
          <mxGeometry width="50" height="50" relative="1" as="geometry">
            <mxPoint x="260" y="220" as="sourcePoint" />
            <mxPoint x="160" y="470" as="targetPoint" />
          </mxGeometry>
        </mxCell>
        <mxCell id="E-S4JV3uEw0Bndc_zRU0-5" value="" style="endArrow=classic;html=1;rounded=0;exitX=0.4;exitY=0.867;exitDx=0;exitDy=0;exitPerimeter=0;entryX=0.913;entryY=-0.037;entryDx=0;entryDy=0;entryPerimeter=0;" edge="1" parent="E-S4JV3uEw0Bndc_zRU0-1" source="E-S4JV3uEw0Bndc_zRU0-3" target="E-S4JV3uEw0Bndc_zRU0-9">
          <mxGeometry width="50" height="50" relative="1" as="geometry">
            <mxPoint x="540" y="313" as="sourcePoint" />
            <mxPoint x="210" y="470" as="targetPoint" />
          </mxGeometry>
        </mxCell>
        <mxCell id="E-S4JV3uEw0Bndc_zRU0-8" style="edgeStyle=orthogonalEdgeStyle;rounded=0;orthogonalLoop=1;jettySize=auto;html=1;" edge="1" parent="E-S4JV3uEw0Bndc_zRU0-1" source="E-S4JV3uEw0Bndc_zRU0-9">
          <mxGeometry relative="1" as="geometry">
            <mxPoint x="170" y="520" as="targetPoint" />
          </mxGeometry>
        </mxCell>
        <mxCell id="E-S4JV3uEw0Bndc_zRU0-9" value="2" style="whiteSpace=wrap;html=1;aspect=fixed;fontSize=18;" vertex="1" parent="E-S4JV3uEw0Bndc_zRU0-1">
          <mxGeometry x="130" y="330" width="80" height="80" as="geometry" />
        </mxCell>
        <mxCell id="E-S4JV3uEw0Bndc_zRU0-10" value="" style="endArrow=none;html=1;rounded=0;" edge="1" parent="E-S4JV3uEw0Bndc_zRU0-1">
          <mxGeometry width="50" height="50" relative="1" as="geometry">
            <mxPoint x="130" y="540" as="sourcePoint" />
            <mxPoint x="210" y="540" as="targetPoint" />
          </mxGeometry>
        </mxCell>
        <mxCell id="E-S4JV3uEw0Bndc_zRU0-11" value="" style="endArrow=none;html=1;rounded=0;" edge="1" parent="E-S4JV3uEw0Bndc_zRU0-1">
          <mxGeometry width="50" height="50" relative="1" as="geometry">
            <mxPoint x="140" y="550" as="sourcePoint" />
            <mxPoint x="200" y="550" as="targetPoint" />
          </mxGeometry>
        </mxCell>
        <mxCell id="E-S4JV3uEw0Bndc_zRU0-12" value="" style="endArrow=none;html=1;rounded=0;" edge="1" parent="E-S4JV3uEw0Bndc_zRU0-1">
          <mxGeometry width="50" height="50" relative="1" as="geometry">
            <mxPoint x="145" y="560" as="sourcePoint" />
            <mxPoint x="195" y="560" as="targetPoint" />
          </mxGeometry>
        </mxCell>
        <mxCell id="FhbTtQf_urh0vSgQuoYJ-4" style="edgeStyle=orthogonalEdgeStyle;rounded=0;orthogonalLoop=1;jettySize=auto;html=1;" edge="1" parent="E-S4JV3uEw0Bndc_zRU0-1" source="FhbTtQf_urh0vSgQuoYJ-0">
          <mxGeometry relative="1" as="geometry">
            <mxPoint x="500" y="340" as="targetPoint" />
          </mxGeometry>
        </mxCell>
        <mxCell id="FhbTtQf_urh0vSgQuoYJ-0" value="12" style="whiteSpace=wrap;html=1;aspect=fixed;fontSize=18;" vertex="1" parent="E-S4JV3uEw0Bndc_zRU0-1">
          <mxGeometry x="460" y="190" width="80" height="80" as="geometry" />
        </mxCell>
        <mxCell id="FhbTtQf_urh0vSgQuoYJ-1" value="" style="endArrow=none;html=1;rounded=0;" edge="1" parent="E-S4JV3uEw0Bndc_zRU0-1">
          <mxGeometry width="50" height="50" relative="1" as="geometry">
            <mxPoint x="460" y="350" as="sourcePoint" />
            <mxPoint x="540" y="350" as="targetPoint" />
          </mxGeometry>
        </mxCell>
        <mxCell id="FhbTtQf_urh0vSgQuoYJ-2" value="" style="endArrow=none;html=1;rounded=0;" edge="1" parent="E-S4JV3uEw0Bndc_zRU0-1">
          <mxGeometry width="50" height="50" relative="1" as="geometry">
            <mxPoint x="470" y="360" as="sourcePoint" />
            <mxPoint x="530" y="360" as="targetPoint" />
          </mxGeometry>
        </mxCell>
        <mxCell id="FhbTtQf_urh0vSgQuoYJ-3" value="" style="endArrow=none;html=1;rounded=0;" edge="1" parent="E-S4JV3uEw0Bndc_zRU0-1">
          <mxGeometry width="50" height="50" relative="1" as="geometry">
            <mxPoint x="475" y="370" as="sourcePoint" />
            <mxPoint x="525" y="370" as="targetPoint" />
          </mxGeometry>
        </mxCell>
      </root>
    </mxGraphModel>
  </diagram>
  <diagram name="etapa7.2" id="s46cMpMkp7VV7RsnwZ_B">
    <mxGraphModel dx="1434" dy="836" grid="1" gridSize="10" guides="1" tooltips="1" connect="1" arrows="1" fold="1" page="1" pageScale="1" pageWidth="827" pageHeight="1169" math="0" shadow="0">
      <root>
        <mxCell id="9-jEXcRsokxOmLRRyZ9j-0" />
        <mxCell id="9-jEXcRsokxOmLRRyZ9j-1" parent="9-jEXcRsokxOmLRRyZ9j-0" />
        <mxCell id="9-jEXcRsokxOmLRRyZ9j-2" value="INICIO" style="text;html=1;align=center;verticalAlign=middle;whiteSpace=wrap;rounded=0;strokeWidth=15;fontSize=18;" vertex="1" parent="9-jEXcRsokxOmLRRyZ9j-1">
          <mxGeometry x="80" y="130" width="60" height="30" as="geometry" />
        </mxCell>
        <mxCell id="9-jEXcRsokxOmLRRyZ9j-3" value="FIM" style="text;html=1;align=center;verticalAlign=middle;whiteSpace=wrap;rounded=0;strokeWidth=15;fontSize=18;" vertex="1" parent="9-jEXcRsokxOmLRRyZ9j-1">
          <mxGeometry x="190" y="140" width="60" height="30" as="geometry" />
        </mxCell>
        <mxCell id="9-jEXcRsokxOmLRRyZ9j-4" value="" style="endArrow=classic;html=1;rounded=0;exitX=0.383;exitY=0.933;exitDx=0;exitDy=0;entryX=0.25;entryY=0;entryDx=0;entryDy=0;exitPerimeter=0;" edge="1" parent="9-jEXcRsokxOmLRRyZ9j-1" source="9-jEXcRsokxOmLRRyZ9j-2" target="9-jEXcRsokxOmLRRyZ9j-7">
          <mxGeometry width="50" height="50" relative="1" as="geometry">
            <mxPoint x="260" y="220" as="sourcePoint" />
            <mxPoint x="160" y="470" as="targetPoint" />
          </mxGeometry>
        </mxCell>
        <mxCell id="9-jEXcRsokxOmLRRyZ9j-5" value="" style="endArrow=classic;html=1;rounded=0;exitX=0.4;exitY=0.867;exitDx=0;exitDy=0;exitPerimeter=0;entryX=0.913;entryY=-0.037;entryDx=0;entryDy=0;entryPerimeter=0;" edge="1" parent="9-jEXcRsokxOmLRRyZ9j-1" source="9-jEXcRsokxOmLRRyZ9j-3" target="9-jEXcRsokxOmLRRyZ9j-7">
          <mxGeometry width="50" height="50" relative="1" as="geometry">
            <mxPoint x="540" y="313" as="sourcePoint" />
            <mxPoint x="210" y="470" as="targetPoint" />
          </mxGeometry>
        </mxCell>
        <mxCell id="9-jEXcRsokxOmLRRyZ9j-6" style="edgeStyle=orthogonalEdgeStyle;rounded=0;orthogonalLoop=1;jettySize=auto;html=1;entryX=0;entryY=0.5;entryDx=0;entryDy=0;" edge="1" parent="9-jEXcRsokxOmLRRyZ9j-1" source="9-jEXcRsokxOmLRRyZ9j-7" target="9-jEXcRsokxOmLRRyZ9j-12">
          <mxGeometry relative="1" as="geometry">
            <mxPoint x="370" y="370" as="targetPoint" />
          </mxGeometry>
        </mxCell>
        <mxCell id="9-jEXcRsokxOmLRRyZ9j-7" value="2" style="whiteSpace=wrap;html=1;aspect=fixed;fontSize=18;" vertex="1" parent="9-jEXcRsokxOmLRRyZ9j-1">
          <mxGeometry x="130" y="330" width="80" height="80" as="geometry" />
        </mxCell>
        <mxCell id="9-jEXcRsokxOmLRRyZ9j-11" style="edgeStyle=orthogonalEdgeStyle;rounded=0;orthogonalLoop=1;jettySize=auto;html=1;" edge="1" parent="9-jEXcRsokxOmLRRyZ9j-1" source="9-jEXcRsokxOmLRRyZ9j-12">
          <mxGeometry relative="1" as="geometry">
            <mxPoint x="500" y="480" as="targetPoint" />
          </mxGeometry>
        </mxCell>
        <mxCell id="9-jEXcRsokxOmLRRyZ9j-12" value="12" style="whiteSpace=wrap;html=1;aspect=fixed;fontSize=18;" vertex="1" parent="9-jEXcRsokxOmLRRyZ9j-1">
          <mxGeometry x="460" y="330" width="80" height="80" as="geometry" />
        </mxCell>
        <mxCell id="9-jEXcRsokxOmLRRyZ9j-13" value="" style="endArrow=none;html=1;rounded=0;" edge="1" parent="9-jEXcRsokxOmLRRyZ9j-1">
          <mxGeometry width="50" height="50" relative="1" as="geometry">
            <mxPoint x="460" y="490" as="sourcePoint" />
            <mxPoint x="540" y="490" as="targetPoint" />
          </mxGeometry>
        </mxCell>
        <mxCell id="9-jEXcRsokxOmLRRyZ9j-14" value="" style="endArrow=none;html=1;rounded=0;" edge="1" parent="9-jEXcRsokxOmLRRyZ9j-1">
          <mxGeometry width="50" height="50" relative="1" as="geometry">
            <mxPoint x="470" y="500" as="sourcePoint" />
            <mxPoint x="530" y="500" as="targetPoint" />
          </mxGeometry>
        </mxCell>
        <mxCell id="9-jEXcRsokxOmLRRyZ9j-15" value="" style="endArrow=none;html=1;rounded=0;" edge="1" parent="9-jEXcRsokxOmLRRyZ9j-1">
          <mxGeometry width="50" height="50" relative="1" as="geometry">
            <mxPoint x="475" y="510" as="sourcePoint" />
            <mxPoint x="525" y="510" as="targetPoint" />
          </mxGeometry>
        </mxCell>
      </root>
    </mxGraphModel>
  </diagram>
  <diagram name="etapa7.3" id="Rg2aZigMAQ-PPQ7LJ1E0">
    <mxGraphModel dx="1434" dy="836" grid="1" gridSize="10" guides="1" tooltips="1" connect="1" arrows="1" fold="1" page="1" pageScale="1" pageWidth="827" pageHeight="1169" math="0" shadow="0">
      <root>
        <mxCell id="HXEmZJt_pIEMnL95Xgv0-0" />
        <mxCell id="HXEmZJt_pIEMnL95Xgv0-1" parent="HXEmZJt_pIEMnL95Xgv0-0" />
        <mxCell id="HXEmZJt_pIEMnL95Xgv0-2" value="INICIO" style="text;html=1;align=center;verticalAlign=middle;whiteSpace=wrap;rounded=0;strokeWidth=15;fontSize=18;" vertex="1" parent="HXEmZJt_pIEMnL95Xgv0-1">
          <mxGeometry x="80" y="130" width="60" height="30" as="geometry" />
        </mxCell>
        <mxCell id="HXEmZJt_pIEMnL95Xgv0-3" value="FIM" style="text;html=1;align=center;verticalAlign=middle;whiteSpace=wrap;rounded=0;strokeWidth=15;fontSize=18;" vertex="1" parent="HXEmZJt_pIEMnL95Xgv0-1">
          <mxGeometry x="190" y="140" width="60" height="30" as="geometry" />
        </mxCell>
        <mxCell id="HXEmZJt_pIEMnL95Xgv0-4" value="" style="endArrow=classic;html=1;rounded=0;exitX=0.383;exitY=0.933;exitDx=0;exitDy=0;entryX=0.25;entryY=0;entryDx=0;entryDy=0;exitPerimeter=0;" edge="1" parent="HXEmZJt_pIEMnL95Xgv0-1" source="HXEmZJt_pIEMnL95Xgv0-2" target="HXEmZJt_pIEMnL95Xgv0-7">
          <mxGeometry width="50" height="50" relative="1" as="geometry">
            <mxPoint x="260" y="220" as="sourcePoint" />
            <mxPoint x="160" y="470" as="targetPoint" />
          </mxGeometry>
        </mxCell>
        <mxCell id="HXEmZJt_pIEMnL95Xgv0-5" value="" style="endArrow=classic;html=1;rounded=0;exitX=0.4;exitY=0.867;exitDx=0;exitDy=0;exitPerimeter=0;entryX=0;entryY=0;entryDx=0;entryDy=0;" edge="1" parent="HXEmZJt_pIEMnL95Xgv0-1" source="HXEmZJt_pIEMnL95Xgv0-3" target="HXEmZJt_pIEMnL95Xgv0-9">
          <mxGeometry width="50" height="50" relative="1" as="geometry">
            <mxPoint x="540" y="313" as="sourcePoint" />
            <mxPoint x="210" y="470" as="targetPoint" />
          </mxGeometry>
        </mxCell>
        <mxCell id="HXEmZJt_pIEMnL95Xgv0-6" style="edgeStyle=orthogonalEdgeStyle;rounded=0;orthogonalLoop=1;jettySize=auto;html=1;entryX=0;entryY=0.5;entryDx=0;entryDy=0;" edge="1" parent="HXEmZJt_pIEMnL95Xgv0-1" source="HXEmZJt_pIEMnL95Xgv0-7" target="HXEmZJt_pIEMnL95Xgv0-9">
          <mxGeometry relative="1" as="geometry">
            <mxPoint x="370" y="370" as="targetPoint" />
          </mxGeometry>
        </mxCell>
        <mxCell id="HXEmZJt_pIEMnL95Xgv0-7" value="2" style="whiteSpace=wrap;html=1;aspect=fixed;fontSize=18;" vertex="1" parent="HXEmZJt_pIEMnL95Xgv0-1">
          <mxGeometry x="130" y="330" width="80" height="80" as="geometry" />
        </mxCell>
        <mxCell id="HXEmZJt_pIEMnL95Xgv0-8" style="edgeStyle=orthogonalEdgeStyle;rounded=0;orthogonalLoop=1;jettySize=auto;html=1;" edge="1" parent="HXEmZJt_pIEMnL95Xgv0-1" source="HXEmZJt_pIEMnL95Xgv0-9">
          <mxGeometry relative="1" as="geometry">
            <mxPoint x="500" y="480" as="targetPoint" />
          </mxGeometry>
        </mxCell>
        <mxCell id="HXEmZJt_pIEMnL95Xgv0-9" value="12" style="whiteSpace=wrap;html=1;aspect=fixed;fontSize=18;" vertex="1" parent="HXEmZJt_pIEMnL95Xgv0-1">
          <mxGeometry x="460" y="330" width="80" height="80" as="geometry" />
        </mxCell>
        <mxCell id="HXEmZJt_pIEMnL95Xgv0-10" value="" style="endArrow=none;html=1;rounded=0;" edge="1" parent="HXEmZJt_pIEMnL95Xgv0-1">
          <mxGeometry width="50" height="50" relative="1" as="geometry">
            <mxPoint x="460" y="490" as="sourcePoint" />
            <mxPoint x="540" y="490" as="targetPoint" />
          </mxGeometry>
        </mxCell>
        <mxCell id="HXEmZJt_pIEMnL95Xgv0-11" value="" style="endArrow=none;html=1;rounded=0;" edge="1" parent="HXEmZJt_pIEMnL95Xgv0-1">
          <mxGeometry width="50" height="50" relative="1" as="geometry">
            <mxPoint x="470" y="500" as="sourcePoint" />
            <mxPoint x="530" y="500" as="targetPoint" />
          </mxGeometry>
        </mxCell>
        <mxCell id="HXEmZJt_pIEMnL95Xgv0-12" value="" style="endArrow=none;html=1;rounded=0;" edge="1" parent="HXEmZJt_pIEMnL95Xgv0-1">
          <mxGeometry width="50" height="50" relative="1" as="geometry">
            <mxPoint x="475" y="510" as="sourcePoint" />
            <mxPoint x="525" y="510" as="targetPoint" />
          </mxGeometry>
        </mxCell>
      </root>
    </mxGraphModel>
  </diagram>
  <diagram name="etapa8.1" id="XqPJMgyH6MgH8xoB3Klm">
    <mxGraphModel dx="1434" dy="836" grid="1" gridSize="10" guides="1" tooltips="1" connect="1" arrows="1" fold="1" page="1" pageScale="1" pageWidth="827" pageHeight="1169" math="0" shadow="0">
      <root>
        <mxCell id="D1cHRV1N1AN0x57l5YN_-0" />
        <mxCell id="D1cHRV1N1AN0x57l5YN_-1" parent="D1cHRV1N1AN0x57l5YN_-0" />
        <mxCell id="D1cHRV1N1AN0x57l5YN_-2" value="INICIO" style="text;html=1;align=center;verticalAlign=middle;whiteSpace=wrap;rounded=0;strokeWidth=15;fontSize=18;" vertex="1" parent="D1cHRV1N1AN0x57l5YN_-1">
          <mxGeometry x="80" y="130" width="60" height="30" as="geometry" />
        </mxCell>
        <mxCell id="D1cHRV1N1AN0x57l5YN_-3" value="FIM" style="text;html=1;align=center;verticalAlign=middle;whiteSpace=wrap;rounded=0;strokeWidth=15;fontSize=18;" vertex="1" parent="D1cHRV1N1AN0x57l5YN_-1">
          <mxGeometry x="190" y="140" width="60" height="30" as="geometry" />
        </mxCell>
        <mxCell id="D1cHRV1N1AN0x57l5YN_-4" value="" style="endArrow=classic;html=1;rounded=0;exitX=0.383;exitY=0.933;exitDx=0;exitDy=0;entryX=0.25;entryY=0;entryDx=0;entryDy=0;exitPerimeter=0;" edge="1" parent="D1cHRV1N1AN0x57l5YN_-1" source="D1cHRV1N1AN0x57l5YN_-2" target="D1cHRV1N1AN0x57l5YN_-7">
          <mxGeometry width="50" height="50" relative="1" as="geometry">
            <mxPoint x="260" y="220" as="sourcePoint" />
            <mxPoint x="160" y="470" as="targetPoint" />
          </mxGeometry>
        </mxCell>
        <mxCell id="D1cHRV1N1AN0x57l5YN_-5" value="" style="endArrow=classic;html=1;rounded=0;exitX=0.4;exitY=0.867;exitDx=0;exitDy=0;exitPerimeter=0;entryX=0;entryY=0;entryDx=0;entryDy=0;" edge="1" parent="D1cHRV1N1AN0x57l5YN_-1" source="D1cHRV1N1AN0x57l5YN_-3" target="D1cHRV1N1AN0x57l5YN_-9">
          <mxGeometry width="50" height="50" relative="1" as="geometry">
            <mxPoint x="540" y="313" as="sourcePoint" />
            <mxPoint x="210" y="470" as="targetPoint" />
          </mxGeometry>
        </mxCell>
        <mxCell id="D1cHRV1N1AN0x57l5YN_-6" style="edgeStyle=orthogonalEdgeStyle;rounded=0;orthogonalLoop=1;jettySize=auto;html=1;entryX=0;entryY=0.5;entryDx=0;entryDy=0;" edge="1" parent="D1cHRV1N1AN0x57l5YN_-1" source="D1cHRV1N1AN0x57l5YN_-7" target="D1cHRV1N1AN0x57l5YN_-9">
          <mxGeometry relative="1" as="geometry">
            <mxPoint x="370" y="370" as="targetPoint" />
          </mxGeometry>
        </mxCell>
        <mxCell id="D1cHRV1N1AN0x57l5YN_-7" value="2" style="whiteSpace=wrap;html=1;aspect=fixed;fontSize=18;" vertex="1" parent="D1cHRV1N1AN0x57l5YN_-1">
          <mxGeometry x="130" y="330" width="80" height="80" as="geometry" />
        </mxCell>
        <mxCell id="D1cHRV1N1AN0x57l5YN_-8" style="edgeStyle=orthogonalEdgeStyle;rounded=0;orthogonalLoop=1;jettySize=auto;html=1;" edge="1" parent="D1cHRV1N1AN0x57l5YN_-1" source="D1cHRV1N1AN0x57l5YN_-9">
          <mxGeometry relative="1" as="geometry">
            <mxPoint x="500" y="480" as="targetPoint" />
          </mxGeometry>
        </mxCell>
        <mxCell id="D1cHRV1N1AN0x57l5YN_-9" value="12" style="whiteSpace=wrap;html=1;aspect=fixed;fontSize=18;" vertex="1" parent="D1cHRV1N1AN0x57l5YN_-1">
          <mxGeometry x="460" y="330" width="80" height="80" as="geometry" />
        </mxCell>
        <mxCell id="D1cHRV1N1AN0x57l5YN_-10" value="" style="endArrow=none;html=1;rounded=0;" edge="1" parent="D1cHRV1N1AN0x57l5YN_-1">
          <mxGeometry width="50" height="50" relative="1" as="geometry">
            <mxPoint x="460" y="490" as="sourcePoint" />
            <mxPoint x="540" y="490" as="targetPoint" />
          </mxGeometry>
        </mxCell>
        <mxCell id="D1cHRV1N1AN0x57l5YN_-11" value="" style="endArrow=none;html=1;rounded=0;" edge="1" parent="D1cHRV1N1AN0x57l5YN_-1">
          <mxGeometry width="50" height="50" relative="1" as="geometry">
            <mxPoint x="470" y="500" as="sourcePoint" />
            <mxPoint x="530" y="500" as="targetPoint" />
          </mxGeometry>
        </mxCell>
        <mxCell id="D1cHRV1N1AN0x57l5YN_-12" value="" style="endArrow=none;html=1;rounded=0;" edge="1" parent="D1cHRV1N1AN0x57l5YN_-1">
          <mxGeometry width="50" height="50" relative="1" as="geometry">
            <mxPoint x="475" y="510" as="sourcePoint" />
            <mxPoint x="525" y="510" as="targetPoint" />
          </mxGeometry>
        </mxCell>
        <mxCell id="Vj88N_g_l-cuMYw2kYT2-4" style="edgeStyle=orthogonalEdgeStyle;rounded=0;orthogonalLoop=1;jettySize=auto;html=1;" edge="1" parent="D1cHRV1N1AN0x57l5YN_-1" source="Vj88N_g_l-cuMYw2kYT2-0">
          <mxGeometry relative="1" as="geometry">
            <mxPoint x="640" y="280" as="targetPoint" />
          </mxGeometry>
        </mxCell>
        <mxCell id="Vj88N_g_l-cuMYw2kYT2-0" value="4" style="whiteSpace=wrap;html=1;aspect=fixed;fontSize=18;" vertex="1" parent="D1cHRV1N1AN0x57l5YN_-1">
          <mxGeometry x="600" y="140" width="80" height="80" as="geometry" />
        </mxCell>
        <mxCell id="Vj88N_g_l-cuMYw2kYT2-1" value="" style="endArrow=none;html=1;rounded=0;" edge="1" parent="D1cHRV1N1AN0x57l5YN_-1">
          <mxGeometry width="50" height="50" relative="1" as="geometry">
            <mxPoint x="600" y="290" as="sourcePoint" />
            <mxPoint x="680" y="290" as="targetPoint" />
          </mxGeometry>
        </mxCell>
        <mxCell id="Vj88N_g_l-cuMYw2kYT2-2" value="" style="endArrow=none;html=1;rounded=0;" edge="1" parent="D1cHRV1N1AN0x57l5YN_-1">
          <mxGeometry width="50" height="50" relative="1" as="geometry">
            <mxPoint x="610" y="300" as="sourcePoint" />
            <mxPoint x="670" y="300" as="targetPoint" />
          </mxGeometry>
        </mxCell>
        <mxCell id="Vj88N_g_l-cuMYw2kYT2-3" value="" style="endArrow=none;html=1;rounded=0;" edge="1" parent="D1cHRV1N1AN0x57l5YN_-1">
          <mxGeometry width="50" height="50" relative="1" as="geometry">
            <mxPoint x="615" y="310" as="sourcePoint" />
            <mxPoint x="665" y="310" as="targetPoint" />
          </mxGeometry>
        </mxCell>
      </root>
    </mxGraphModel>
  </diagram>
  <diagram name="etapa8.2" id="orbh7cxEUo_2G0q-bMtN">
    <mxGraphModel dx="1434" dy="836" grid="1" gridSize="10" guides="1" tooltips="1" connect="1" arrows="1" fold="1" page="1" pageScale="1" pageWidth="827" pageHeight="1169" math="0" shadow="0">
      <root>
        <mxCell id="4Z5wuobKKSJg37WflS5X-0" />
        <mxCell id="4Z5wuobKKSJg37WflS5X-1" parent="4Z5wuobKKSJg37WflS5X-0" />
        <mxCell id="4Z5wuobKKSJg37WflS5X-2" value="INICIO" style="text;html=1;align=center;verticalAlign=middle;whiteSpace=wrap;rounded=0;strokeWidth=15;fontSize=18;" vertex="1" parent="4Z5wuobKKSJg37WflS5X-1">
          <mxGeometry x="80" y="130" width="60" height="30" as="geometry" />
        </mxCell>
        <mxCell id="4Z5wuobKKSJg37WflS5X-3" value="FIM" style="text;html=1;align=center;verticalAlign=middle;whiteSpace=wrap;rounded=0;strokeWidth=15;fontSize=18;" vertex="1" parent="4Z5wuobKKSJg37WflS5X-1">
          <mxGeometry x="190" y="140" width="60" height="30" as="geometry" />
        </mxCell>
        <mxCell id="4Z5wuobKKSJg37WflS5X-4" value="" style="endArrow=classic;html=1;rounded=0;exitX=0.383;exitY=0.933;exitDx=0;exitDy=0;entryX=0.25;entryY=0;entryDx=0;entryDy=0;exitPerimeter=0;" edge="1" parent="4Z5wuobKKSJg37WflS5X-1" source="4Z5wuobKKSJg37WflS5X-2" target="4Z5wuobKKSJg37WflS5X-7">
          <mxGeometry width="50" height="50" relative="1" as="geometry">
            <mxPoint x="260" y="220" as="sourcePoint" />
            <mxPoint x="160" y="470" as="targetPoint" />
          </mxGeometry>
        </mxCell>
        <mxCell id="4Z5wuobKKSJg37WflS5X-5" value="" style="endArrow=classic;html=1;rounded=0;exitX=0.4;exitY=0.867;exitDx=0;exitDy=0;exitPerimeter=0;entryX=0;entryY=0;entryDx=0;entryDy=0;" edge="1" parent="4Z5wuobKKSJg37WflS5X-1" source="4Z5wuobKKSJg37WflS5X-3" target="4Z5wuobKKSJg37WflS5X-9">
          <mxGeometry width="50" height="50" relative="1" as="geometry">
            <mxPoint x="540" y="313" as="sourcePoint" />
            <mxPoint x="210" y="470" as="targetPoint" />
          </mxGeometry>
        </mxCell>
        <mxCell id="4Z5wuobKKSJg37WflS5X-6" style="edgeStyle=orthogonalEdgeStyle;rounded=0;orthogonalLoop=1;jettySize=auto;html=1;entryX=0;entryY=0.5;entryDx=0;entryDy=0;" edge="1" parent="4Z5wuobKKSJg37WflS5X-1" source="4Z5wuobKKSJg37WflS5X-7" target="4Z5wuobKKSJg37WflS5X-9">
          <mxGeometry relative="1" as="geometry">
            <mxPoint x="370" y="370" as="targetPoint" />
          </mxGeometry>
        </mxCell>
        <mxCell id="4Z5wuobKKSJg37WflS5X-7" value="2" style="whiteSpace=wrap;html=1;aspect=fixed;fontSize=18;" vertex="1" parent="4Z5wuobKKSJg37WflS5X-1">
          <mxGeometry x="130" y="330" width="80" height="80" as="geometry" />
        </mxCell>
        <mxCell id="4Z5wuobKKSJg37WflS5X-8" style="edgeStyle=orthogonalEdgeStyle;rounded=0;orthogonalLoop=1;jettySize=auto;html=1;entryX=0;entryY=0.5;entryDx=0;entryDy=0;" edge="1" parent="4Z5wuobKKSJg37WflS5X-1" source="4Z5wuobKKSJg37WflS5X-9" target="4Z5wuobKKSJg37WflS5X-14">
          <mxGeometry relative="1" as="geometry">
            <mxPoint x="374" y="480" as="targetPoint" />
          </mxGeometry>
        </mxCell>
        <mxCell id="4Z5wuobKKSJg37WflS5X-9" value="12" style="whiteSpace=wrap;html=1;aspect=fixed;fontSize=18;" vertex="1" parent="4Z5wuobKKSJg37WflS5X-1">
          <mxGeometry x="334" y="330" width="80" height="80" as="geometry" />
        </mxCell>
        <mxCell id="4Z5wuobKKSJg37WflS5X-13" style="edgeStyle=orthogonalEdgeStyle;rounded=0;orthogonalLoop=1;jettySize=auto;html=1;" edge="1" parent="4Z5wuobKKSJg37WflS5X-1" source="4Z5wuobKKSJg37WflS5X-14">
          <mxGeometry relative="1" as="geometry">
            <mxPoint x="540" y="470" as="targetPoint" />
          </mxGeometry>
        </mxCell>
        <mxCell id="4Z5wuobKKSJg37WflS5X-14" value="4" style="whiteSpace=wrap;html=1;aspect=fixed;fontSize=18;" vertex="1" parent="4Z5wuobKKSJg37WflS5X-1">
          <mxGeometry x="500" y="330" width="80" height="80" as="geometry" />
        </mxCell>
        <mxCell id="4Z5wuobKKSJg37WflS5X-15" value="" style="endArrow=none;html=1;rounded=0;" edge="1" parent="4Z5wuobKKSJg37WflS5X-1">
          <mxGeometry width="50" height="50" relative="1" as="geometry">
            <mxPoint x="500" y="480" as="sourcePoint" />
            <mxPoint x="580" y="480" as="targetPoint" />
          </mxGeometry>
        </mxCell>
        <mxCell id="4Z5wuobKKSJg37WflS5X-16" value="" style="endArrow=none;html=1;rounded=0;" edge="1" parent="4Z5wuobKKSJg37WflS5X-1">
          <mxGeometry width="50" height="50" relative="1" as="geometry">
            <mxPoint x="510" y="490" as="sourcePoint" />
            <mxPoint x="570" y="490" as="targetPoint" />
          </mxGeometry>
        </mxCell>
        <mxCell id="4Z5wuobKKSJg37WflS5X-17" value="" style="endArrow=none;html=1;rounded=0;" edge="1" parent="4Z5wuobKKSJg37WflS5X-1">
          <mxGeometry width="50" height="50" relative="1" as="geometry">
            <mxPoint x="515" y="500" as="sourcePoint" />
            <mxPoint x="565" y="500" as="targetPoint" />
          </mxGeometry>
        </mxCell>
      </root>
    </mxGraphModel>
  </diagram>
  <diagram name="etapa8.3" id="yPtEbV-UBmC31_gbCBeq">
    <mxGraphModel dx="1434" dy="836" grid="1" gridSize="10" guides="1" tooltips="1" connect="1" arrows="1" fold="1" page="1" pageScale="1" pageWidth="827" pageHeight="1169" math="0" shadow="0">
      <root>
        <mxCell id="4rflzpBiVlFvS1Wf-f9p-0" />
        <mxCell id="4rflzpBiVlFvS1Wf-f9p-1" parent="4rflzpBiVlFvS1Wf-f9p-0" />
        <mxCell id="4rflzpBiVlFvS1Wf-f9p-2" value="INICIO" style="text;html=1;align=center;verticalAlign=middle;whiteSpace=wrap;rounded=0;strokeWidth=15;fontSize=18;" vertex="1" parent="4rflzpBiVlFvS1Wf-f9p-1">
          <mxGeometry x="80" y="130" width="60" height="30" as="geometry" />
        </mxCell>
        <mxCell id="4rflzpBiVlFvS1Wf-f9p-3" value="FIM" style="text;html=1;align=center;verticalAlign=middle;whiteSpace=wrap;rounded=0;strokeWidth=15;fontSize=18;" vertex="1" parent="4rflzpBiVlFvS1Wf-f9p-1">
          <mxGeometry x="190" y="140" width="60" height="30" as="geometry" />
        </mxCell>
        <mxCell id="4rflzpBiVlFvS1Wf-f9p-4" value="" style="endArrow=classic;html=1;rounded=0;exitX=0.383;exitY=0.933;exitDx=0;exitDy=0;entryX=0.25;entryY=0;entryDx=0;entryDy=0;exitPerimeter=0;" edge="1" parent="4rflzpBiVlFvS1Wf-f9p-1" source="4rflzpBiVlFvS1Wf-f9p-2" target="4rflzpBiVlFvS1Wf-f9p-7">
          <mxGeometry width="50" height="50" relative="1" as="geometry">
            <mxPoint x="260" y="220" as="sourcePoint" />
            <mxPoint x="160" y="470" as="targetPoint" />
          </mxGeometry>
        </mxCell>
        <mxCell id="4rflzpBiVlFvS1Wf-f9p-5" value="" style="endArrow=classic;html=1;rounded=0;exitX=0.4;exitY=0.867;exitDx=0;exitDy=0;exitPerimeter=0;entryX=0;entryY=0;entryDx=0;entryDy=0;" edge="1" parent="4rflzpBiVlFvS1Wf-f9p-1" source="4rflzpBiVlFvS1Wf-f9p-3" target="4rflzpBiVlFvS1Wf-f9p-11">
          <mxGeometry width="50" height="50" relative="1" as="geometry">
            <mxPoint x="540" y="313" as="sourcePoint" />
            <mxPoint x="210" y="470" as="targetPoint" />
          </mxGeometry>
        </mxCell>
        <mxCell id="4rflzpBiVlFvS1Wf-f9p-6" style="edgeStyle=orthogonalEdgeStyle;rounded=0;orthogonalLoop=1;jettySize=auto;html=1;entryX=0;entryY=0.5;entryDx=0;entryDy=0;" edge="1" parent="4rflzpBiVlFvS1Wf-f9p-1" source="4rflzpBiVlFvS1Wf-f9p-7" target="4rflzpBiVlFvS1Wf-f9p-9">
          <mxGeometry relative="1" as="geometry">
            <mxPoint x="370" y="370" as="targetPoint" />
          </mxGeometry>
        </mxCell>
        <mxCell id="4rflzpBiVlFvS1Wf-f9p-7" value="2" style="whiteSpace=wrap;html=1;aspect=fixed;fontSize=18;" vertex="1" parent="4rflzpBiVlFvS1Wf-f9p-1">
          <mxGeometry x="130" y="330" width="80" height="80" as="geometry" />
        </mxCell>
        <mxCell id="4rflzpBiVlFvS1Wf-f9p-8" style="edgeStyle=orthogonalEdgeStyle;rounded=0;orthogonalLoop=1;jettySize=auto;html=1;entryX=0;entryY=0.5;entryDx=0;entryDy=0;" edge="1" parent="4rflzpBiVlFvS1Wf-f9p-1" source="4rflzpBiVlFvS1Wf-f9p-9" target="4rflzpBiVlFvS1Wf-f9p-11">
          <mxGeometry relative="1" as="geometry">
            <mxPoint x="374" y="480" as="targetPoint" />
          </mxGeometry>
        </mxCell>
        <mxCell id="4rflzpBiVlFvS1Wf-f9p-9" value="12" style="whiteSpace=wrap;html=1;aspect=fixed;fontSize=18;" vertex="1" parent="4rflzpBiVlFvS1Wf-f9p-1">
          <mxGeometry x="334" y="330" width="80" height="80" as="geometry" />
        </mxCell>
        <mxCell id="4rflzpBiVlFvS1Wf-f9p-10" style="edgeStyle=orthogonalEdgeStyle;rounded=0;orthogonalLoop=1;jettySize=auto;html=1;" edge="1" parent="4rflzpBiVlFvS1Wf-f9p-1" source="4rflzpBiVlFvS1Wf-f9p-11">
          <mxGeometry relative="1" as="geometry">
            <mxPoint x="540" y="470" as="targetPoint" />
          </mxGeometry>
        </mxCell>
        <mxCell id="4rflzpBiVlFvS1Wf-f9p-11" value="4" style="whiteSpace=wrap;html=1;aspect=fixed;fontSize=18;" vertex="1" parent="4rflzpBiVlFvS1Wf-f9p-1">
          <mxGeometry x="500" y="330" width="80" height="80" as="geometry" />
        </mxCell>
        <mxCell id="4rflzpBiVlFvS1Wf-f9p-12" value="" style="endArrow=none;html=1;rounded=0;" edge="1" parent="4rflzpBiVlFvS1Wf-f9p-1">
          <mxGeometry width="50" height="50" relative="1" as="geometry">
            <mxPoint x="500" y="480" as="sourcePoint" />
            <mxPoint x="580" y="480" as="targetPoint" />
          </mxGeometry>
        </mxCell>
        <mxCell id="4rflzpBiVlFvS1Wf-f9p-13" value="" style="endArrow=none;html=1;rounded=0;" edge="1" parent="4rflzpBiVlFvS1Wf-f9p-1">
          <mxGeometry width="50" height="50" relative="1" as="geometry">
            <mxPoint x="510" y="490" as="sourcePoint" />
            <mxPoint x="570" y="490" as="targetPoint" />
          </mxGeometry>
        </mxCell>
        <mxCell id="4rflzpBiVlFvS1Wf-f9p-14" value="" style="endArrow=none;html=1;rounded=0;" edge="1" parent="4rflzpBiVlFvS1Wf-f9p-1">
          <mxGeometry width="50" height="50" relative="1" as="geometry">
            <mxPoint x="515" y="500" as="sourcePoint" />
            <mxPoint x="565" y="500" as="targetPoint" />
          </mxGeometry>
        </mxCell>
      </root>
    </mxGraphModel>
  </diagram>
  <diagram name="etapa9.1" id="LB7ayvcRPsJoGkW3xF00">
    <mxGraphModel dx="1434" dy="836" grid="1" gridSize="10" guides="1" tooltips="1" connect="1" arrows="1" fold="1" page="1" pageScale="1" pageWidth="827" pageHeight="1169" math="0" shadow="0">
      <root>
        <mxCell id="BSbLhM99UYiPCthS-9jc-0" />
        <mxCell id="BSbLhM99UYiPCthS-9jc-1" parent="BSbLhM99UYiPCthS-9jc-0" />
        <mxCell id="BSbLhM99UYiPCthS-9jc-2" value="INICIO" style="text;html=1;align=center;verticalAlign=middle;whiteSpace=wrap;rounded=0;strokeWidth=15;fontSize=18;" vertex="1" parent="BSbLhM99UYiPCthS-9jc-1">
          <mxGeometry x="80" y="130" width="60" height="30" as="geometry" />
        </mxCell>
        <mxCell id="BSbLhM99UYiPCthS-9jc-3" value="FIM" style="text;html=1;align=center;verticalAlign=middle;whiteSpace=wrap;rounded=0;strokeWidth=15;fontSize=18;" vertex="1" parent="BSbLhM99UYiPCthS-9jc-1">
          <mxGeometry x="190" y="140" width="60" height="30" as="geometry" />
        </mxCell>
        <mxCell id="BSbLhM99UYiPCthS-9jc-4" value="" style="endArrow=classic;html=1;rounded=0;exitX=0.383;exitY=0.933;exitDx=0;exitDy=0;entryX=0.25;entryY=0;entryDx=0;entryDy=0;exitPerimeter=0;" edge="1" parent="BSbLhM99UYiPCthS-9jc-1" source="BSbLhM99UYiPCthS-9jc-2" target="BSbLhM99UYiPCthS-9jc-7">
          <mxGeometry width="50" height="50" relative="1" as="geometry">
            <mxPoint x="260" y="220" as="sourcePoint" />
            <mxPoint x="160" y="470" as="targetPoint" />
          </mxGeometry>
        </mxCell>
        <mxCell id="BSbLhM99UYiPCthS-9jc-5" value="" style="endArrow=classic;html=1;rounded=0;exitX=0.4;exitY=0.867;exitDx=0;exitDy=0;exitPerimeter=0;entryX=0;entryY=0;entryDx=0;entryDy=0;" edge="1" parent="BSbLhM99UYiPCthS-9jc-1" source="BSbLhM99UYiPCthS-9jc-3" target="BSbLhM99UYiPCthS-9jc-11">
          <mxGeometry width="50" height="50" relative="1" as="geometry">
            <mxPoint x="540" y="313" as="sourcePoint" />
            <mxPoint x="210" y="470" as="targetPoint" />
          </mxGeometry>
        </mxCell>
        <mxCell id="BSbLhM99UYiPCthS-9jc-6" style="edgeStyle=orthogonalEdgeStyle;rounded=0;orthogonalLoop=1;jettySize=auto;html=1;entryX=0;entryY=0.5;entryDx=0;entryDy=0;" edge="1" parent="BSbLhM99UYiPCthS-9jc-1" source="BSbLhM99UYiPCthS-9jc-7" target="BSbLhM99UYiPCthS-9jc-9">
          <mxGeometry relative="1" as="geometry">
            <mxPoint x="370" y="370" as="targetPoint" />
          </mxGeometry>
        </mxCell>
        <mxCell id="BSbLhM99UYiPCthS-9jc-7" value="2" style="whiteSpace=wrap;html=1;aspect=fixed;fontSize=18;" vertex="1" parent="BSbLhM99UYiPCthS-9jc-1">
          <mxGeometry x="130" y="330" width="80" height="80" as="geometry" />
        </mxCell>
        <mxCell id="BSbLhM99UYiPCthS-9jc-8" style="edgeStyle=orthogonalEdgeStyle;rounded=0;orthogonalLoop=1;jettySize=auto;html=1;entryX=0;entryY=0.5;entryDx=0;entryDy=0;" edge="1" parent="BSbLhM99UYiPCthS-9jc-1" source="BSbLhM99UYiPCthS-9jc-9" target="BSbLhM99UYiPCthS-9jc-11">
          <mxGeometry relative="1" as="geometry">
            <mxPoint x="374" y="480" as="targetPoint" />
          </mxGeometry>
        </mxCell>
        <mxCell id="BSbLhM99UYiPCthS-9jc-9" value="12" style="whiteSpace=wrap;html=1;aspect=fixed;fontSize=18;" vertex="1" parent="BSbLhM99UYiPCthS-9jc-1">
          <mxGeometry x="334" y="330" width="80" height="80" as="geometry" />
        </mxCell>
        <mxCell id="BSbLhM99UYiPCthS-9jc-10" style="edgeStyle=orthogonalEdgeStyle;rounded=0;orthogonalLoop=1;jettySize=auto;html=1;" edge="1" parent="BSbLhM99UYiPCthS-9jc-1" source="BSbLhM99UYiPCthS-9jc-11">
          <mxGeometry relative="1" as="geometry">
            <mxPoint x="540" y="470" as="targetPoint" />
          </mxGeometry>
        </mxCell>
        <mxCell id="BSbLhM99UYiPCthS-9jc-11" value="4" style="whiteSpace=wrap;html=1;aspect=fixed;fontSize=18;" vertex="1" parent="BSbLhM99UYiPCthS-9jc-1">
          <mxGeometry x="500" y="330" width="80" height="80" as="geometry" />
        </mxCell>
        <mxCell id="BSbLhM99UYiPCthS-9jc-12" value="" style="endArrow=none;html=1;rounded=0;" edge="1" parent="BSbLhM99UYiPCthS-9jc-1">
          <mxGeometry width="50" height="50" relative="1" as="geometry">
            <mxPoint x="500" y="480" as="sourcePoint" />
            <mxPoint x="580" y="480" as="targetPoint" />
          </mxGeometry>
        </mxCell>
        <mxCell id="BSbLhM99UYiPCthS-9jc-13" value="" style="endArrow=none;html=1;rounded=0;" edge="1" parent="BSbLhM99UYiPCthS-9jc-1">
          <mxGeometry width="50" height="50" relative="1" as="geometry">
            <mxPoint x="510" y="490" as="sourcePoint" />
            <mxPoint x="570" y="490" as="targetPoint" />
          </mxGeometry>
        </mxCell>
        <mxCell id="BSbLhM99UYiPCthS-9jc-14" value="" style="endArrow=none;html=1;rounded=0;" edge="1" parent="BSbLhM99UYiPCthS-9jc-1">
          <mxGeometry width="50" height="50" relative="1" as="geometry">
            <mxPoint x="515" y="500" as="sourcePoint" />
            <mxPoint x="565" y="500" as="targetPoint" />
          </mxGeometry>
        </mxCell>
        <mxCell id="pX6RiGZipptsPEHIK-DW-0" value="aux" style="text;html=1;align=center;verticalAlign=middle;whiteSpace=wrap;rounded=0;fontSize=18;" vertex="1" parent="BSbLhM99UYiPCthS-9jc-1">
          <mxGeometry x="130" y="555" width="60" height="30" as="geometry" />
        </mxCell>
        <mxCell id="pX6RiGZipptsPEHIK-DW-2" style="edgeStyle=orthogonalEdgeStyle;rounded=0;orthogonalLoop=1;jettySize=auto;html=1;entryX=0.363;entryY=1.038;entryDx=0;entryDy=0;entryPerimeter=0;" edge="1" parent="BSbLhM99UYiPCthS-9jc-1" source="pX6RiGZipptsPEHIK-DW-0" target="BSbLhM99UYiPCthS-9jc-7">
          <mxGeometry relative="1" as="geometry">
            <Array as="points">
              <mxPoint x="159" y="520" />
              <mxPoint x="159" y="520" />
            </Array>
          </mxGeometry>
        </mxCell>
      </root>
    </mxGraphModel>
  </diagram>
  <diagram name="etapa9.2" id="5njqxkEofFVDGpPGjXUb">
    <mxGraphModel dx="1434" dy="836" grid="1" gridSize="10" guides="1" tooltips="1" connect="1" arrows="1" fold="1" page="1" pageScale="1" pageWidth="827" pageHeight="1169" math="0" shadow="0">
      <root>
        <mxCell id="MawtJjyN_8GYIbUQb9xx-0" />
        <mxCell id="MawtJjyN_8GYIbUQb9xx-1" parent="MawtJjyN_8GYIbUQb9xx-0" />
        <mxCell id="MawtJjyN_8GYIbUQb9xx-2" value="INICIO" style="text;html=1;align=center;verticalAlign=middle;whiteSpace=wrap;rounded=0;strokeWidth=15;fontSize=18;" vertex="1" parent="MawtJjyN_8GYIbUQb9xx-1">
          <mxGeometry x="80" y="130" width="60" height="30" as="geometry" />
        </mxCell>
        <mxCell id="MawtJjyN_8GYIbUQb9xx-3" value="FIM" style="text;html=1;align=center;verticalAlign=middle;whiteSpace=wrap;rounded=0;strokeWidth=15;fontSize=18;" vertex="1" parent="MawtJjyN_8GYIbUQb9xx-1">
          <mxGeometry x="190" y="140" width="60" height="30" as="geometry" />
        </mxCell>
        <mxCell id="MawtJjyN_8GYIbUQb9xx-4" value="" style="endArrow=classic;html=1;rounded=0;exitX=0.383;exitY=0.933;exitDx=0;exitDy=0;entryX=0;entryY=0;entryDx=0;entryDy=0;exitPerimeter=0;" edge="1" parent="MawtJjyN_8GYIbUQb9xx-1" source="MawtJjyN_8GYIbUQb9xx-2" target="MawtJjyN_8GYIbUQb9xx-9">
          <mxGeometry width="50" height="50" relative="1" as="geometry">
            <mxPoint x="260" y="220" as="sourcePoint" />
            <mxPoint x="160" y="470" as="targetPoint" />
          </mxGeometry>
        </mxCell>
        <mxCell id="MawtJjyN_8GYIbUQb9xx-5" value="" style="endArrow=classic;html=1;rounded=0;exitX=0.4;exitY=0.867;exitDx=0;exitDy=0;exitPerimeter=0;entryX=0;entryY=0;entryDx=0;entryDy=0;" edge="1" parent="MawtJjyN_8GYIbUQb9xx-1" source="MawtJjyN_8GYIbUQb9xx-3" target="MawtJjyN_8GYIbUQb9xx-11">
          <mxGeometry width="50" height="50" relative="1" as="geometry">
            <mxPoint x="540" y="313" as="sourcePoint" />
            <mxPoint x="210" y="470" as="targetPoint" />
          </mxGeometry>
        </mxCell>
        <mxCell id="MawtJjyN_8GYIbUQb9xx-6" style="edgeStyle=orthogonalEdgeStyle;rounded=0;orthogonalLoop=1;jettySize=auto;html=1;entryX=0;entryY=0.5;entryDx=0;entryDy=0;" edge="1" parent="MawtJjyN_8GYIbUQb9xx-1" source="MawtJjyN_8GYIbUQb9xx-7" target="MawtJjyN_8GYIbUQb9xx-9">
          <mxGeometry relative="1" as="geometry">
            <mxPoint x="370" y="370" as="targetPoint" />
          </mxGeometry>
        </mxCell>
        <mxCell id="MawtJjyN_8GYIbUQb9xx-7" value="2" style="whiteSpace=wrap;html=1;aspect=fixed;fontSize=18;" vertex="1" parent="MawtJjyN_8GYIbUQb9xx-1">
          <mxGeometry x="130" y="330" width="80" height="80" as="geometry" />
        </mxCell>
        <mxCell id="MawtJjyN_8GYIbUQb9xx-8" style="edgeStyle=orthogonalEdgeStyle;rounded=0;orthogonalLoop=1;jettySize=auto;html=1;entryX=0;entryY=0.5;entryDx=0;entryDy=0;" edge="1" parent="MawtJjyN_8GYIbUQb9xx-1" source="MawtJjyN_8GYIbUQb9xx-9" target="MawtJjyN_8GYIbUQb9xx-11">
          <mxGeometry relative="1" as="geometry">
            <mxPoint x="374" y="480" as="targetPoint" />
          </mxGeometry>
        </mxCell>
        <mxCell id="MawtJjyN_8GYIbUQb9xx-9" value="12" style="whiteSpace=wrap;html=1;aspect=fixed;fontSize=18;" vertex="1" parent="MawtJjyN_8GYIbUQb9xx-1">
          <mxGeometry x="334" y="330" width="80" height="80" as="geometry" />
        </mxCell>
        <mxCell id="MawtJjyN_8GYIbUQb9xx-10" style="edgeStyle=orthogonalEdgeStyle;rounded=0;orthogonalLoop=1;jettySize=auto;html=1;" edge="1" parent="MawtJjyN_8GYIbUQb9xx-1" source="MawtJjyN_8GYIbUQb9xx-11">
          <mxGeometry relative="1" as="geometry">
            <mxPoint x="540" y="470" as="targetPoint" />
          </mxGeometry>
        </mxCell>
        <mxCell id="MawtJjyN_8GYIbUQb9xx-11" value="4" style="whiteSpace=wrap;html=1;aspect=fixed;fontSize=18;" vertex="1" parent="MawtJjyN_8GYIbUQb9xx-1">
          <mxGeometry x="500" y="330" width="80" height="80" as="geometry" />
        </mxCell>
        <mxCell id="MawtJjyN_8GYIbUQb9xx-12" value="" style="endArrow=none;html=1;rounded=0;" edge="1" parent="MawtJjyN_8GYIbUQb9xx-1">
          <mxGeometry width="50" height="50" relative="1" as="geometry">
            <mxPoint x="500" y="480" as="sourcePoint" />
            <mxPoint x="580" y="480" as="targetPoint" />
          </mxGeometry>
        </mxCell>
        <mxCell id="MawtJjyN_8GYIbUQb9xx-13" value="" style="endArrow=none;html=1;rounded=0;" edge="1" parent="MawtJjyN_8GYIbUQb9xx-1">
          <mxGeometry width="50" height="50" relative="1" as="geometry">
            <mxPoint x="510" y="490" as="sourcePoint" />
            <mxPoint x="570" y="490" as="targetPoint" />
          </mxGeometry>
        </mxCell>
        <mxCell id="MawtJjyN_8GYIbUQb9xx-14" value="" style="endArrow=none;html=1;rounded=0;" edge="1" parent="MawtJjyN_8GYIbUQb9xx-1">
          <mxGeometry width="50" height="50" relative="1" as="geometry">
            <mxPoint x="515" y="500" as="sourcePoint" />
            <mxPoint x="565" y="500" as="targetPoint" />
          </mxGeometry>
        </mxCell>
        <mxCell id="MawtJjyN_8GYIbUQb9xx-15" value="aux" style="text;html=1;align=center;verticalAlign=middle;whiteSpace=wrap;rounded=0;fontSize=18;" vertex="1" parent="MawtJjyN_8GYIbUQb9xx-1">
          <mxGeometry x="130" y="555" width="60" height="30" as="geometry" />
        </mxCell>
        <mxCell id="MawtJjyN_8GYIbUQb9xx-16" style="edgeStyle=orthogonalEdgeStyle;rounded=0;orthogonalLoop=1;jettySize=auto;html=1;entryX=0.363;entryY=1.038;entryDx=0;entryDy=0;entryPerimeter=0;" edge="1" parent="MawtJjyN_8GYIbUQb9xx-1" source="MawtJjyN_8GYIbUQb9xx-15" target="MawtJjyN_8GYIbUQb9xx-7">
          <mxGeometry relative="1" as="geometry">
            <Array as="points">
              <mxPoint x="159" y="520" />
              <mxPoint x="159" y="520" />
            </Array>
          </mxGeometry>
        </mxCell>
      </root>
    </mxGraphModel>
  </diagram>
  <diagram name="etapa9.3" id="syW5oCkVPj3OrRYbiOPk">
    <mxGraphModel dx="1434" dy="836" grid="1" gridSize="10" guides="1" tooltips="1" connect="1" arrows="1" fold="1" page="1" pageScale="1" pageWidth="827" pageHeight="1169" math="0" shadow="0">
      <root>
        <mxCell id="BT1AwZvRVtHrNrY7mBli-0" />
        <mxCell id="BT1AwZvRVtHrNrY7mBli-1" parent="BT1AwZvRVtHrNrY7mBli-0" />
        <mxCell id="BT1AwZvRVtHrNrY7mBli-2" value="INICIO" style="text;html=1;align=center;verticalAlign=middle;whiteSpace=wrap;rounded=0;strokeWidth=15;fontSize=18;" vertex="1" parent="BT1AwZvRVtHrNrY7mBli-1">
          <mxGeometry x="80" y="130" width="60" height="30" as="geometry" />
        </mxCell>
        <mxCell id="BT1AwZvRVtHrNrY7mBli-3" value="FIM" style="text;html=1;align=center;verticalAlign=middle;whiteSpace=wrap;rounded=0;strokeWidth=15;fontSize=18;" vertex="1" parent="BT1AwZvRVtHrNrY7mBli-1">
          <mxGeometry x="190" y="140" width="60" height="30" as="geometry" />
        </mxCell>
        <mxCell id="BT1AwZvRVtHrNrY7mBli-4" value="" style="endArrow=classic;html=1;rounded=0;exitX=0.383;exitY=0.933;exitDx=0;exitDy=0;entryX=0;entryY=0;entryDx=0;entryDy=0;exitPerimeter=0;" edge="1" parent="BT1AwZvRVtHrNrY7mBli-1" source="BT1AwZvRVtHrNrY7mBli-2" target="BT1AwZvRVtHrNrY7mBli-9">
          <mxGeometry width="50" height="50" relative="1" as="geometry">
            <mxPoint x="260" y="220" as="sourcePoint" />
            <mxPoint x="160" y="470" as="targetPoint" />
          </mxGeometry>
        </mxCell>
        <mxCell id="BT1AwZvRVtHrNrY7mBli-5" value="" style="endArrow=classic;html=1;rounded=0;exitX=0.4;exitY=0.867;exitDx=0;exitDy=0;exitPerimeter=0;entryX=0;entryY=0;entryDx=0;entryDy=0;" edge="1" parent="BT1AwZvRVtHrNrY7mBli-1" source="BT1AwZvRVtHrNrY7mBli-3" target="BT1AwZvRVtHrNrY7mBli-11">
          <mxGeometry width="50" height="50" relative="1" as="geometry">
            <mxPoint x="540" y="313" as="sourcePoint" />
            <mxPoint x="210" y="470" as="targetPoint" />
          </mxGeometry>
        </mxCell>
        <mxCell id="BT1AwZvRVtHrNrY7mBli-6" style="edgeStyle=orthogonalEdgeStyle;rounded=0;orthogonalLoop=1;jettySize=auto;html=1;entryX=0;entryY=0.5;entryDx=0;entryDy=0;" edge="1" parent="BT1AwZvRVtHrNrY7mBli-1" source="BT1AwZvRVtHrNrY7mBli-7" target="BT1AwZvRVtHrNrY7mBli-9">
          <mxGeometry relative="1" as="geometry">
            <mxPoint x="370" y="370" as="targetPoint" />
          </mxGeometry>
        </mxCell>
        <mxCell id="BT1AwZvRVtHrNrY7mBli-7" value="2" style="whiteSpace=wrap;html=1;aspect=fixed;fontSize=18;" vertex="1" parent="BT1AwZvRVtHrNrY7mBli-1">
          <mxGeometry x="130" y="330" width="80" height="80" as="geometry" />
        </mxCell>
        <mxCell id="BT1AwZvRVtHrNrY7mBli-8" style="edgeStyle=orthogonalEdgeStyle;rounded=0;orthogonalLoop=1;jettySize=auto;html=1;entryX=0;entryY=0.5;entryDx=0;entryDy=0;" edge="1" parent="BT1AwZvRVtHrNrY7mBli-1" source="BT1AwZvRVtHrNrY7mBli-9" target="BT1AwZvRVtHrNrY7mBli-11">
          <mxGeometry relative="1" as="geometry">
            <mxPoint x="374" y="480" as="targetPoint" />
          </mxGeometry>
        </mxCell>
        <mxCell id="BT1AwZvRVtHrNrY7mBli-9" value="12" style="whiteSpace=wrap;html=1;aspect=fixed;fontSize=18;" vertex="1" parent="BT1AwZvRVtHrNrY7mBli-1">
          <mxGeometry x="334" y="330" width="80" height="80" as="geometry" />
        </mxCell>
        <mxCell id="BT1AwZvRVtHrNrY7mBli-10" style="edgeStyle=orthogonalEdgeStyle;rounded=0;orthogonalLoop=1;jettySize=auto;html=1;" edge="1" parent="BT1AwZvRVtHrNrY7mBli-1" source="BT1AwZvRVtHrNrY7mBli-11">
          <mxGeometry relative="1" as="geometry">
            <mxPoint x="540" y="470" as="targetPoint" />
          </mxGeometry>
        </mxCell>
        <mxCell id="BT1AwZvRVtHrNrY7mBli-11" value="4" style="whiteSpace=wrap;html=1;aspect=fixed;fontSize=18;" vertex="1" parent="BT1AwZvRVtHrNrY7mBli-1">
          <mxGeometry x="500" y="330" width="80" height="80" as="geometry" />
        </mxCell>
        <mxCell id="BT1AwZvRVtHrNrY7mBli-12" value="" style="endArrow=none;html=1;rounded=0;" edge="1" parent="BT1AwZvRVtHrNrY7mBli-1">
          <mxGeometry width="50" height="50" relative="1" as="geometry">
            <mxPoint x="500" y="480" as="sourcePoint" />
            <mxPoint x="580" y="480" as="targetPoint" />
          </mxGeometry>
        </mxCell>
        <mxCell id="BT1AwZvRVtHrNrY7mBli-13" value="" style="endArrow=none;html=1;rounded=0;" edge="1" parent="BT1AwZvRVtHrNrY7mBli-1">
          <mxGeometry width="50" height="50" relative="1" as="geometry">
            <mxPoint x="510" y="490" as="sourcePoint" />
            <mxPoint x="570" y="490" as="targetPoint" />
          </mxGeometry>
        </mxCell>
        <mxCell id="BT1AwZvRVtHrNrY7mBli-14" value="" style="endArrow=none;html=1;rounded=0;" edge="1" parent="BT1AwZvRVtHrNrY7mBli-1">
          <mxGeometry width="50" height="50" relative="1" as="geometry">
            <mxPoint x="515" y="500" as="sourcePoint" />
            <mxPoint x="565" y="500" as="targetPoint" />
          </mxGeometry>
        </mxCell>
        <mxCell id="BT1AwZvRVtHrNrY7mBli-15" value="aux" style="text;html=1;align=center;verticalAlign=middle;whiteSpace=wrap;rounded=0;fontSize=18;" vertex="1" parent="BT1AwZvRVtHrNrY7mBli-1">
          <mxGeometry x="130" y="555" width="60" height="30" as="geometry" />
        </mxCell>
        <mxCell id="BT1AwZvRVtHrNrY7mBli-16" style="edgeStyle=orthogonalEdgeStyle;rounded=0;orthogonalLoop=1;jettySize=auto;html=1;entryX=0.363;entryY=1.038;entryDx=0;entryDy=0;entryPerimeter=0;" edge="1" parent="BT1AwZvRVtHrNrY7mBli-1" source="BT1AwZvRVtHrNrY7mBli-15" target="BT1AwZvRVtHrNrY7mBli-7">
          <mxGeometry relative="1" as="geometry">
            <Array as="points">
              <mxPoint x="159" y="520" />
              <mxPoint x="159" y="520" />
            </Array>
          </mxGeometry>
        </mxCell>
        <mxCell id="iebH5oQ5rsIADew6_79u-0" value="" style="shape=cross;whiteSpace=wrap;html=1;rotation=45;fillColor=#a20025;fontColor=#ffffff;strokeColor=#6F0000;" vertex="1" parent="BT1AwZvRVtHrNrY7mBli-1">
          <mxGeometry x="130" y="330" width="80" height="80" as="geometry" />
        </mxCell>
      </root>
    </mxGraphModel>
  </diagram>
  <diagram name="etapa10.1" id="ILWbJrtRjoSyTuOQ-CN0">
    <mxGraphModel dx="1434" dy="836" grid="1" gridSize="10" guides="1" tooltips="1" connect="1" arrows="1" fold="1" page="1" pageScale="1" pageWidth="827" pageHeight="1169" math="0" shadow="0">
      <root>
        <mxCell id="haEnobPGghmlwQDBrdL5-0" />
        <mxCell id="haEnobPGghmlwQDBrdL5-1" parent="haEnobPGghmlwQDBrdL5-0" />
        <mxCell id="haEnobPGghmlwQDBrdL5-2" value="INICIO" style="text;html=1;align=center;verticalAlign=middle;whiteSpace=wrap;rounded=0;strokeWidth=15;fontSize=18;" vertex="1" parent="haEnobPGghmlwQDBrdL5-1">
          <mxGeometry x="80" y="130" width="60" height="30" as="geometry" />
        </mxCell>
        <mxCell id="haEnobPGghmlwQDBrdL5-3" value="FIM" style="text;html=1;align=center;verticalAlign=middle;whiteSpace=wrap;rounded=0;strokeWidth=15;fontSize=18;" vertex="1" parent="haEnobPGghmlwQDBrdL5-1">
          <mxGeometry x="190" y="140" width="60" height="30" as="geometry" />
        </mxCell>
        <mxCell id="haEnobPGghmlwQDBrdL5-4" value="" style="endArrow=classic;html=1;rounded=0;exitX=0.383;exitY=0.933;exitDx=0;exitDy=0;entryX=0;entryY=0;entryDx=0;entryDy=0;exitPerimeter=0;" edge="1" parent="haEnobPGghmlwQDBrdL5-1" source="haEnobPGghmlwQDBrdL5-2" target="haEnobPGghmlwQDBrdL5-9">
          <mxGeometry width="50" height="50" relative="1" as="geometry">
            <mxPoint x="260" y="220" as="sourcePoint" />
            <mxPoint x="160" y="470" as="targetPoint" />
          </mxGeometry>
        </mxCell>
        <mxCell id="haEnobPGghmlwQDBrdL5-5" value="" style="endArrow=classic;html=1;rounded=0;exitX=0.4;exitY=0.867;exitDx=0;exitDy=0;exitPerimeter=0;entryX=0;entryY=0;entryDx=0;entryDy=0;" edge="1" parent="haEnobPGghmlwQDBrdL5-1" source="haEnobPGghmlwQDBrdL5-3" target="haEnobPGghmlwQDBrdL5-11">
          <mxGeometry width="50" height="50" relative="1" as="geometry">
            <mxPoint x="540" y="313" as="sourcePoint" />
            <mxPoint x="210" y="470" as="targetPoint" />
          </mxGeometry>
        </mxCell>
        <mxCell id="haEnobPGghmlwQDBrdL5-8" style="edgeStyle=orthogonalEdgeStyle;rounded=0;orthogonalLoop=1;jettySize=auto;html=1;entryX=0;entryY=0.5;entryDx=0;entryDy=0;" edge="1" parent="haEnobPGghmlwQDBrdL5-1" source="haEnobPGghmlwQDBrdL5-9" target="haEnobPGghmlwQDBrdL5-11">
          <mxGeometry relative="1" as="geometry">
            <mxPoint x="374" y="480" as="targetPoint" />
          </mxGeometry>
        </mxCell>
        <mxCell id="haEnobPGghmlwQDBrdL5-9" value="12" style="whiteSpace=wrap;html=1;aspect=fixed;fontSize=18;" vertex="1" parent="haEnobPGghmlwQDBrdL5-1">
          <mxGeometry x="334" y="330" width="80" height="80" as="geometry" />
        </mxCell>
        <mxCell id="haEnobPGghmlwQDBrdL5-10" style="edgeStyle=orthogonalEdgeStyle;rounded=0;orthogonalLoop=1;jettySize=auto;html=1;" edge="1" parent="haEnobPGghmlwQDBrdL5-1" source="haEnobPGghmlwQDBrdL5-11">
          <mxGeometry relative="1" as="geometry">
            <mxPoint x="540" y="470" as="targetPoint" />
          </mxGeometry>
        </mxCell>
        <mxCell id="haEnobPGghmlwQDBrdL5-11" value="4" style="whiteSpace=wrap;html=1;aspect=fixed;fontSize=18;" vertex="1" parent="haEnobPGghmlwQDBrdL5-1">
          <mxGeometry x="500" y="330" width="80" height="80" as="geometry" />
        </mxCell>
        <mxCell id="haEnobPGghmlwQDBrdL5-12" value="" style="endArrow=none;html=1;rounded=0;" edge="1" parent="haEnobPGghmlwQDBrdL5-1">
          <mxGeometry width="50" height="50" relative="1" as="geometry">
            <mxPoint x="500" y="480" as="sourcePoint" />
            <mxPoint x="580" y="480" as="targetPoint" />
          </mxGeometry>
        </mxCell>
        <mxCell id="haEnobPGghmlwQDBrdL5-13" value="" style="endArrow=none;html=1;rounded=0;" edge="1" parent="haEnobPGghmlwQDBrdL5-1">
          <mxGeometry width="50" height="50" relative="1" as="geometry">
            <mxPoint x="510" y="490" as="sourcePoint" />
            <mxPoint x="570" y="490" as="targetPoint" />
          </mxGeometry>
        </mxCell>
        <mxCell id="haEnobPGghmlwQDBrdL5-14" value="" style="endArrow=none;html=1;rounded=0;" edge="1" parent="haEnobPGghmlwQDBrdL5-1">
          <mxGeometry width="50" height="50" relative="1" as="geometry">
            <mxPoint x="515" y="500" as="sourcePoint" />
            <mxPoint x="565" y="500" as="targetPoint" />
          </mxGeometry>
        </mxCell>
        <mxCell id="Wp6ErrKNjvzaEW1rA78U-0" style="edgeStyle=orthogonalEdgeStyle;rounded=0;orthogonalLoop=1;jettySize=auto;html=1;entryX=0.5;entryY=1;entryDx=0;entryDy=0;" edge="1" parent="haEnobPGghmlwQDBrdL5-1" source="haEnobPGghmlwQDBrdL5-15" target="haEnobPGghmlwQDBrdL5-9">
          <mxGeometry relative="1" as="geometry" />
        </mxCell>
        <mxCell id="haEnobPGghmlwQDBrdL5-15" value="aux" style="text;html=1;align=center;verticalAlign=middle;whiteSpace=wrap;rounded=0;fontSize=18;" vertex="1" parent="haEnobPGghmlwQDBrdL5-1">
          <mxGeometry x="344" y="555" width="60" height="30" as="geometry" />
        </mxCell>
      </root>
    </mxGraphModel>
  </diagram>
  <diagram name="etapa10.2" id="D8VOdc2VP0gtxkwFly7R">
    <mxGraphModel dx="1434" dy="836" grid="1" gridSize="10" guides="1" tooltips="1" connect="1" arrows="1" fold="1" page="1" pageScale="1" pageWidth="827" pageHeight="1169" math="0" shadow="0">
      <root>
        <mxCell id="E8-qbzhI5Qy7gCBOn07s-0" />
        <mxCell id="E8-qbzhI5Qy7gCBOn07s-1" parent="E8-qbzhI5Qy7gCBOn07s-0" />
        <mxCell id="E8-qbzhI5Qy7gCBOn07s-2" value="INICIO" style="text;html=1;align=center;verticalAlign=middle;whiteSpace=wrap;rounded=0;strokeWidth=15;fontSize=18;" vertex="1" parent="E8-qbzhI5Qy7gCBOn07s-1">
          <mxGeometry x="80" y="130" width="60" height="30" as="geometry" />
        </mxCell>
        <mxCell id="E8-qbzhI5Qy7gCBOn07s-3" value="FIM" style="text;html=1;align=center;verticalAlign=middle;whiteSpace=wrap;rounded=0;strokeWidth=15;fontSize=18;" vertex="1" parent="E8-qbzhI5Qy7gCBOn07s-1">
          <mxGeometry x="190" y="140" width="60" height="30" as="geometry" />
        </mxCell>
        <mxCell id="E8-qbzhI5Qy7gCBOn07s-4" value="" style="endArrow=classic;html=1;rounded=0;exitX=0.383;exitY=0.933;exitDx=0;exitDy=0;entryX=-0.025;entryY=0.163;entryDx=0;entryDy=0;exitPerimeter=0;entryPerimeter=0;" edge="1" parent="E8-qbzhI5Qy7gCBOn07s-1" source="E8-qbzhI5Qy7gCBOn07s-2" target="E8-qbzhI5Qy7gCBOn07s-9">
          <mxGeometry width="50" height="50" relative="1" as="geometry">
            <mxPoint x="260" y="220" as="sourcePoint" />
            <mxPoint x="160" y="470" as="targetPoint" />
          </mxGeometry>
        </mxCell>
        <mxCell id="E8-qbzhI5Qy7gCBOn07s-5" value="" style="endArrow=classic;html=1;rounded=0;exitX=0.4;exitY=0.867;exitDx=0;exitDy=0;exitPerimeter=0;entryX=0;entryY=0;entryDx=0;entryDy=0;" edge="1" parent="E8-qbzhI5Qy7gCBOn07s-1" source="E8-qbzhI5Qy7gCBOn07s-3" target="E8-qbzhI5Qy7gCBOn07s-9">
          <mxGeometry width="50" height="50" relative="1" as="geometry">
            <mxPoint x="540" y="313" as="sourcePoint" />
            <mxPoint x="210" y="470" as="targetPoint" />
          </mxGeometry>
        </mxCell>
        <mxCell id="E8-qbzhI5Qy7gCBOn07s-6" style="edgeStyle=orthogonalEdgeStyle;rounded=0;orthogonalLoop=1;jettySize=auto;html=1;entryX=0;entryY=0.5;entryDx=0;entryDy=0;" edge="1" parent="E8-qbzhI5Qy7gCBOn07s-1" source="E8-qbzhI5Qy7gCBOn07s-7" target="E8-qbzhI5Qy7gCBOn07s-9">
          <mxGeometry relative="1" as="geometry">
            <mxPoint x="374" y="480" as="targetPoint" />
          </mxGeometry>
        </mxCell>
        <mxCell id="E8-qbzhI5Qy7gCBOn07s-7" value="12" style="whiteSpace=wrap;html=1;aspect=fixed;fontSize=18;" vertex="1" parent="E8-qbzhI5Qy7gCBOn07s-1">
          <mxGeometry x="334" y="330" width="80" height="80" as="geometry" />
        </mxCell>
        <mxCell id="E8-qbzhI5Qy7gCBOn07s-8" style="edgeStyle=orthogonalEdgeStyle;rounded=0;orthogonalLoop=1;jettySize=auto;html=1;" edge="1" parent="E8-qbzhI5Qy7gCBOn07s-1" source="E8-qbzhI5Qy7gCBOn07s-9">
          <mxGeometry relative="1" as="geometry">
            <mxPoint x="540" y="470" as="targetPoint" />
          </mxGeometry>
        </mxCell>
        <mxCell id="E8-qbzhI5Qy7gCBOn07s-9" value="4" style="whiteSpace=wrap;html=1;aspect=fixed;fontSize=18;" vertex="1" parent="E8-qbzhI5Qy7gCBOn07s-1">
          <mxGeometry x="500" y="330" width="80" height="80" as="geometry" />
        </mxCell>
        <mxCell id="E8-qbzhI5Qy7gCBOn07s-10" value="" style="endArrow=none;html=1;rounded=0;" edge="1" parent="E8-qbzhI5Qy7gCBOn07s-1">
          <mxGeometry width="50" height="50" relative="1" as="geometry">
            <mxPoint x="500" y="480" as="sourcePoint" />
            <mxPoint x="580" y="480" as="targetPoint" />
          </mxGeometry>
        </mxCell>
        <mxCell id="E8-qbzhI5Qy7gCBOn07s-11" value="" style="endArrow=none;html=1;rounded=0;" edge="1" parent="E8-qbzhI5Qy7gCBOn07s-1">
          <mxGeometry width="50" height="50" relative="1" as="geometry">
            <mxPoint x="510" y="490" as="sourcePoint" />
            <mxPoint x="570" y="490" as="targetPoint" />
          </mxGeometry>
        </mxCell>
        <mxCell id="E8-qbzhI5Qy7gCBOn07s-12" value="" style="endArrow=none;html=1;rounded=0;" edge="1" parent="E8-qbzhI5Qy7gCBOn07s-1">
          <mxGeometry width="50" height="50" relative="1" as="geometry">
            <mxPoint x="515" y="500" as="sourcePoint" />
            <mxPoint x="565" y="500" as="targetPoint" />
          </mxGeometry>
        </mxCell>
        <mxCell id="E8-qbzhI5Qy7gCBOn07s-13" style="edgeStyle=orthogonalEdgeStyle;rounded=0;orthogonalLoop=1;jettySize=auto;html=1;entryX=0.5;entryY=1;entryDx=0;entryDy=0;" edge="1" parent="E8-qbzhI5Qy7gCBOn07s-1" source="E8-qbzhI5Qy7gCBOn07s-14" target="E8-qbzhI5Qy7gCBOn07s-7">
          <mxGeometry relative="1" as="geometry" />
        </mxCell>
        <mxCell id="E8-qbzhI5Qy7gCBOn07s-14" value="aux" style="text;html=1;align=center;verticalAlign=middle;whiteSpace=wrap;rounded=0;fontSize=18;" vertex="1" parent="E8-qbzhI5Qy7gCBOn07s-1">
          <mxGeometry x="344" y="555" width="60" height="30" as="geometry" />
        </mxCell>
      </root>
    </mxGraphModel>
  </diagram>
  <diagram name="etapa10.3" id="cPyFBaF3NGNwx2VZsoyn">
    <mxGraphModel dx="1434" dy="836" grid="1" gridSize="10" guides="1" tooltips="1" connect="1" arrows="1" fold="1" page="1" pageScale="1" pageWidth="827" pageHeight="1169" math="0" shadow="0">
      <root>
        <mxCell id="YSTT17THgNrocAyYRfox-0" />
        <mxCell id="YSTT17THgNrocAyYRfox-1" parent="YSTT17THgNrocAyYRfox-0" />
        <mxCell id="YSTT17THgNrocAyYRfox-2" value="INICIO" style="text;html=1;align=center;verticalAlign=middle;whiteSpace=wrap;rounded=0;strokeWidth=15;fontSize=18;" vertex="1" parent="YSTT17THgNrocAyYRfox-1">
          <mxGeometry x="80" y="130" width="60" height="30" as="geometry" />
        </mxCell>
        <mxCell id="YSTT17THgNrocAyYRfox-3" value="FIM" style="text;html=1;align=center;verticalAlign=middle;whiteSpace=wrap;rounded=0;strokeWidth=15;fontSize=18;" vertex="1" parent="YSTT17THgNrocAyYRfox-1">
          <mxGeometry x="190" y="140" width="60" height="30" as="geometry" />
        </mxCell>
        <mxCell id="YSTT17THgNrocAyYRfox-4" value="" style="endArrow=classic;html=1;rounded=0;exitX=0.383;exitY=0.933;exitDx=0;exitDy=0;entryX=-0.025;entryY=0.163;entryDx=0;entryDy=0;exitPerimeter=0;entryPerimeter=0;" edge="1" parent="YSTT17THgNrocAyYRfox-1" source="YSTT17THgNrocAyYRfox-2" target="YSTT17THgNrocAyYRfox-9">
          <mxGeometry width="50" height="50" relative="1" as="geometry">
            <mxPoint x="260" y="220" as="sourcePoint" />
            <mxPoint x="160" y="470" as="targetPoint" />
          </mxGeometry>
        </mxCell>
        <mxCell id="YSTT17THgNrocAyYRfox-5" value="" style="endArrow=classic;html=1;rounded=0;exitX=0.4;exitY=0.867;exitDx=0;exitDy=0;exitPerimeter=0;entryX=0;entryY=0;entryDx=0;entryDy=0;" edge="1" parent="YSTT17THgNrocAyYRfox-1" source="YSTT17THgNrocAyYRfox-3" target="YSTT17THgNrocAyYRfox-9">
          <mxGeometry width="50" height="50" relative="1" as="geometry">
            <mxPoint x="540" y="313" as="sourcePoint" />
            <mxPoint x="210" y="470" as="targetPoint" />
          </mxGeometry>
        </mxCell>
        <mxCell id="YSTT17THgNrocAyYRfox-6" style="edgeStyle=orthogonalEdgeStyle;rounded=0;orthogonalLoop=1;jettySize=auto;html=1;entryX=0;entryY=0.5;entryDx=0;entryDy=0;" edge="1" parent="YSTT17THgNrocAyYRfox-1" source="YSTT17THgNrocAyYRfox-7" target="YSTT17THgNrocAyYRfox-9">
          <mxGeometry relative="1" as="geometry">
            <mxPoint x="374" y="480" as="targetPoint" />
          </mxGeometry>
        </mxCell>
        <mxCell id="YSTT17THgNrocAyYRfox-7" value="12" style="whiteSpace=wrap;html=1;aspect=fixed;fontSize=18;" vertex="1" parent="YSTT17THgNrocAyYRfox-1">
          <mxGeometry x="334" y="330" width="80" height="80" as="geometry" />
        </mxCell>
        <mxCell id="YSTT17THgNrocAyYRfox-8" style="edgeStyle=orthogonalEdgeStyle;rounded=0;orthogonalLoop=1;jettySize=auto;html=1;" edge="1" parent="YSTT17THgNrocAyYRfox-1" source="YSTT17THgNrocAyYRfox-9">
          <mxGeometry relative="1" as="geometry">
            <mxPoint x="540" y="470" as="targetPoint" />
          </mxGeometry>
        </mxCell>
        <mxCell id="YSTT17THgNrocAyYRfox-9" value="4" style="whiteSpace=wrap;html=1;aspect=fixed;fontSize=18;" vertex="1" parent="YSTT17THgNrocAyYRfox-1">
          <mxGeometry x="500" y="330" width="80" height="80" as="geometry" />
        </mxCell>
        <mxCell id="YSTT17THgNrocAyYRfox-10" value="" style="endArrow=none;html=1;rounded=0;" edge="1" parent="YSTT17THgNrocAyYRfox-1">
          <mxGeometry width="50" height="50" relative="1" as="geometry">
            <mxPoint x="500" y="480" as="sourcePoint" />
            <mxPoint x="580" y="480" as="targetPoint" />
          </mxGeometry>
        </mxCell>
        <mxCell id="YSTT17THgNrocAyYRfox-11" value="" style="endArrow=none;html=1;rounded=0;" edge="1" parent="YSTT17THgNrocAyYRfox-1">
          <mxGeometry width="50" height="50" relative="1" as="geometry">
            <mxPoint x="510" y="490" as="sourcePoint" />
            <mxPoint x="570" y="490" as="targetPoint" />
          </mxGeometry>
        </mxCell>
        <mxCell id="YSTT17THgNrocAyYRfox-12" value="" style="endArrow=none;html=1;rounded=0;" edge="1" parent="YSTT17THgNrocAyYRfox-1">
          <mxGeometry width="50" height="50" relative="1" as="geometry">
            <mxPoint x="515" y="500" as="sourcePoint" />
            <mxPoint x="565" y="500" as="targetPoint" />
          </mxGeometry>
        </mxCell>
        <mxCell id="YSTT17THgNrocAyYRfox-13" style="edgeStyle=orthogonalEdgeStyle;rounded=0;orthogonalLoop=1;jettySize=auto;html=1;entryX=0.5;entryY=1;entryDx=0;entryDy=0;" edge="1" parent="YSTT17THgNrocAyYRfox-1" source="YSTT17THgNrocAyYRfox-14" target="YSTT17THgNrocAyYRfox-7">
          <mxGeometry relative="1" as="geometry" />
        </mxCell>
        <mxCell id="YSTT17THgNrocAyYRfox-14" value="aux" style="text;html=1;align=center;verticalAlign=middle;whiteSpace=wrap;rounded=0;fontSize=18;" vertex="1" parent="YSTT17THgNrocAyYRfox-1">
          <mxGeometry x="344" y="555" width="60" height="30" as="geometry" />
        </mxCell>
        <mxCell id="Exv3zO_XNozp1Qf36Yb4-0" value="" style="shape=cross;whiteSpace=wrap;html=1;rotation=45;fillColor=#a20025;fontColor=#ffffff;strokeColor=#6F0000;" vertex="1" parent="YSTT17THgNrocAyYRfox-1">
          <mxGeometry x="334" y="330" width="80" height="80" as="geometry" />
        </mxCell>
      </root>
    </mxGraphModel>
  </diagram>
  <diagram name="FIM" id="ACf-IkGGUgAJLukoXSUJ">
    <mxGraphModel dx="1434" dy="836" grid="1" gridSize="10" guides="1" tooltips="1" connect="1" arrows="1" fold="1" page="1" pageScale="1" pageWidth="827" pageHeight="1169" math="0" shadow="0">
      <root>
        <mxCell id="Vm084TukSa-sCYype-i9-0" />
        <mxCell id="Vm084TukSa-sCYype-i9-1" parent="Vm084TukSa-sCYype-i9-0" />
        <mxCell id="Vm084TukSa-sCYype-i9-2" value="INICIO" style="text;html=1;align=center;verticalAlign=middle;whiteSpace=wrap;rounded=0;strokeWidth=15;fontSize=18;" vertex="1" parent="Vm084TukSa-sCYype-i9-1">
          <mxGeometry x="80" y="130" width="60" height="30" as="geometry" />
        </mxCell>
        <mxCell id="Vm084TukSa-sCYype-i9-3" value="FIM" style="text;html=1;align=center;verticalAlign=middle;whiteSpace=wrap;rounded=0;strokeWidth=15;fontSize=18;" vertex="1" parent="Vm084TukSa-sCYype-i9-1">
          <mxGeometry x="190" y="140" width="60" height="30" as="geometry" />
        </mxCell>
        <mxCell id="Vm084TukSa-sCYype-i9-4" value="" style="endArrow=classic;html=1;rounded=0;exitX=0.383;exitY=0.933;exitDx=0;exitDy=0;entryX=-0.025;entryY=0.163;entryDx=0;entryDy=0;exitPerimeter=0;entryPerimeter=0;" edge="1" parent="Vm084TukSa-sCYype-i9-1" source="Vm084TukSa-sCYype-i9-2" target="Vm084TukSa-sCYype-i9-9">
          <mxGeometry width="50" height="50" relative="1" as="geometry">
            <mxPoint x="260" y="220" as="sourcePoint" />
            <mxPoint x="160" y="470" as="targetPoint" />
          </mxGeometry>
        </mxCell>
        <mxCell id="Vm084TukSa-sCYype-i9-5" value="" style="endArrow=classic;html=1;rounded=0;exitX=0.4;exitY=0.867;exitDx=0;exitDy=0;exitPerimeter=0;entryX=0;entryY=0;entryDx=0;entryDy=0;" edge="1" parent="Vm084TukSa-sCYype-i9-1" source="Vm084TukSa-sCYype-i9-3" target="Vm084TukSa-sCYype-i9-9">
          <mxGeometry width="50" height="50" relative="1" as="geometry">
            <mxPoint x="540" y="313" as="sourcePoint" />
            <mxPoint x="210" y="470" as="targetPoint" />
          </mxGeometry>
        </mxCell>
        <mxCell id="Vm084TukSa-sCYype-i9-8" style="edgeStyle=orthogonalEdgeStyle;rounded=0;orthogonalLoop=1;jettySize=auto;html=1;" edge="1" parent="Vm084TukSa-sCYype-i9-1" source="Vm084TukSa-sCYype-i9-9">
          <mxGeometry relative="1" as="geometry">
            <mxPoint x="540" y="470" as="targetPoint" />
          </mxGeometry>
        </mxCell>
        <mxCell id="Vm084TukSa-sCYype-i9-9" value="4" style="whiteSpace=wrap;html=1;aspect=fixed;fontSize=18;" vertex="1" parent="Vm084TukSa-sCYype-i9-1">
          <mxGeometry x="500" y="330" width="80" height="80" as="geometry" />
        </mxCell>
        <mxCell id="Vm084TukSa-sCYype-i9-10" value="" style="endArrow=none;html=1;rounded=0;" edge="1" parent="Vm084TukSa-sCYype-i9-1">
          <mxGeometry width="50" height="50" relative="1" as="geometry">
            <mxPoint x="500" y="480" as="sourcePoint" />
            <mxPoint x="580" y="480" as="targetPoint" />
          </mxGeometry>
        </mxCell>
        <mxCell id="Vm084TukSa-sCYype-i9-11" value="" style="endArrow=none;html=1;rounded=0;" edge="1" parent="Vm084TukSa-sCYype-i9-1">
          <mxGeometry width="50" height="50" relative="1" as="geometry">
            <mxPoint x="510" y="490" as="sourcePoint" />
            <mxPoint x="570" y="490" as="targetPoint" />
          </mxGeometry>
        </mxCell>
        <mxCell id="Vm084TukSa-sCYype-i9-12" value="" style="endArrow=none;html=1;rounded=0;" edge="1" parent="Vm084TukSa-sCYype-i9-1">
          <mxGeometry width="50" height="50" relative="1" as="geometry">
            <mxPoint x="515" y="500" as="sourcePoint" />
            <mxPoint x="565" y="500" as="targetPoint" />
          </mxGeometry>
        </mxCell>
      </root>
    </mxGraphModel>
  </diagram>
</mxfile>
